<svg width="95" height="73" viewBox="0 0 95 73" fill="none" xmlns="http://www.w3.org/2000/svg">
<g clip-path="url(#clip0_4_930)">
<path d="M87.8971 66.3531C84.7845 68.7503 80.9924 71.1786 77.2641 72.3235C76.1893 72.6634 75.0802 72.8804 73.9576 72.9704C72.9081 73.0557 71.8519 72.9728 70.8279 72.7248C68.1372 72.0479 65.6414 70.8626 63.2265 69.4778C62.4375 69.0247 61.6577 68.5508 60.8824 68.0665C59.6168 67.2755 58.3638 66.4569 57.1073 65.6578C56.9192 65.5368 56.7322 65.418 56.5441 65.3004H56.5429C56.2397 65.1078 55.9356 64.9179 55.6308 64.7308C55.5772 64.6973 55.5237 64.6651 55.4689 64.6316C54.8931 64.2788 54.3075 63.934 53.712 63.5973C53.639 63.557 53.566 63.5155 53.493 63.4751C52.3408 62.8288 51.1565 62.2426 49.9449 61.719C49.1491 61.38 48.343 61.0745 47.5289 60.8139H47.5278C47.2165 60.7147 46.9041 60.6213 46.5906 60.536C45.6504 60.2751 44.6923 60.0855 43.7242 59.9687C42.3902 59.8054 41.041 59.8163 39.7098 60.001C39.6197 60.0137 39.5307 60.0264 39.4407 60.0414C35.8378 60.6248 32.5496 62.5919 28.9308 63.0554C28.8133 63.0704 28.697 63.0842 28.5796 63.0946C28.5294 63.0992 28.4793 63.105 28.4291 63.1084C27.3774 63.1995 26.3191 63.1732 25.2731 63.03C22.3509 62.6403 19.5051 61.4308 16.9432 59.9065C10.954 56.3424 6.09693 50.8643 3.14394 44.5203C2.63684 43.4331 2.18662 42.3196 1.79514 41.1846C0.700586 38.0371 0.0978112 34.7363 0.00851844 31.4011C-0.268539 19.8292 6.23375 8.21923 16.4427 2.98559C26.6527 -2.24805 40.0837 -0.517338 48.3179 7.5228C53.3129 12.4001 56.2032 19.0094 59.9623 24.9141C63.7214 30.8176 69.0641 36.4571 75.9552 37.3173C79.4657 37.7555 83.1393 36.908 86.5039 38.0103C88.3669 38.6214 89.9563 39.7906 91.2366 41.2803C92.0975 42.2912 92.8178 43.4162 93.3778 44.6241C93.7883 45.4973 94.1214 46.4056 94.3732 47.3383C94.42 47.5102 94.4633 47.6819 94.5055 47.8538C96.1815 54.7766 93.5033 62.0338 87.8971 66.3531Z" fill="#F2F2F2"/>
<path d="M31.8292 53.8206H21.1117C19.506 53.8206 18.2043 55.1369 18.2043 56.7608V56.7608C18.2043 58.3847 19.506 59.7011 21.1117 59.7011H31.8292C33.4349 59.7011 34.7366 58.3847 34.7366 56.7608C34.7366 55.1369 33.4349 53.8206 31.8292 53.8206Z" fill="#506DB8"/>
<path d="M28.5796 58.2023V63.0946C27.4787 63.2023 26.3692 63.1807 25.2732 63.03V58.2023H28.5796Z" fill="#506DB8"/>
<path d="M39.7098 60.0011C39.6198 60.0137 39.5308 60.0264 39.4408 60.0414C35.8379 60.6249 32.5497 62.5919 28.9308 63.0555C28.8134 63.0704 28.6971 63.0843 28.5797 63.0947C28.5295 63.0993 28.4793 63.105 28.4292 63.1085C27.5455 62.2333 26.6619 61.3017 25.8319 60.3366C25.3815 59.8143 24.946 59.2816 24.5367 58.7419C23.4741 57.3491 22.5733 55.917 21.9782 54.5103C22.0386 53.8358 21.6236 52.2757 21.4252 51.0812L21.4241 51.08C21.3397 50.5784 21.2941 50.1426 21.3363 49.8624C21.578 48.2458 22.8835 48.4315 23.2848 46.8472C23.6468 46.5433 24.0323 46.2692 24.4375 46.0274C24.5048 45.987 24.5732 45.9467 24.6439 45.9063L28.9992 42.8623L30.6639 44.5135L33.1973 47.0271L35.9428 49.7494L33.6123 52.1304C33.6123 52.1304 35.5597 54.4008 37.8366 57.4275C38.4477 58.2404 39.0828 59.1086 39.7098 60.0011Z" fill="#082777"/>
<path d="M77.264 58.2023V72.3235C76.1892 72.6634 75.0801 72.8804 73.9575 72.9704V58.2023H77.264Z" fill="#506DB8"/>
<path d="M81.5396 57.0492H70.8222C69.2165 57.0492 67.9148 58.3656 67.9148 59.9894V59.9894C67.9148 61.6133 69.2165 62.9297 70.8222 62.9297H81.5396C83.1453 62.9297 84.447 61.6133 84.447 59.9894C84.447 58.3656 83.1453 57.0492 81.5396 57.0492Z" fill="#506DB8"/>
<path d="M55.469 64.6316C54.8933 64.2788 54.3076 63.934 53.7121 63.5973C53.6391 63.557 53.5661 63.5155 53.4932 63.4751L53.8854 63.3056L54.9434 62.8456L54.9537 62.8409L54.9651 62.8801L55.469 64.6316Z" fill="#FFB6B6"/>
<path d="M57.1075 65.6577C56.9193 65.5366 56.7324 65.4179 56.5442 65.3003H56.5431C56.2398 65.1077 55.9358 64.9178 55.631 64.7307C55.5774 64.6972 55.5238 64.6649 55.4691 64.6315C54.8933 64.2787 54.3076 63.9339 53.7121 63.5972C53.6391 63.5569 53.5661 63.5154 53.4932 63.475C52.3409 62.8286 51.1567 62.2425 49.945 61.7189C49.1492 61.3799 48.3431 61.0744 47.529 60.8138H47.5279L46.8883 59.7311L44.0094 54.8549L43.3766 53.7837C43.3766 53.7837 41.2183 54.4294 38.1638 55.0486C37.0522 55.2746 35.8231 55.496 34.5336 55.6828C33.1551 55.8811 31.7094 56.0391 30.2728 56.1152C29.5876 56.1521 28.9047 56.1705 28.232 56.1647C26.4932 56.1532 24.8229 55.9883 23.3601 55.5963C22.8721 55.1328 21.4013 54.5021 20.3478 53.9244H20.3467C19.9043 53.6822 19.5372 53.4505 19.3445 53.2441C18.234 52.0565 19.1826 51.1306 18.1952 49.8346C18.1819 49.3591 18.2059 48.8833 18.267 48.4117C18.2773 48.3333 18.2876 48.2537 18.3001 48.173L18.6114 42.8275L20.9236 42.5185L24.4421 42.0481L28.2536 41.5385L28.6732 44.8615C28.6732 44.8615 31.641 44.7093 35.4012 44.76C41.4406 44.8431 49.522 45.4519 50.6166 48.0647C50.7192 48.3102 50.8218 48.5582 50.9244 48.8061C51.1684 49.3987 51.4101 49.9944 51.6496 50.5933C52.5172 52.761 53.345 54.9494 54.1009 57.018C54.5706 58.3048 55.013 59.5454 55.42 60.7066C55.7473 61.6405 56.0505 62.5237 56.3276 63.3366C56.5807 64.0792 56.8099 64.7629 57.014 65.3764C57.0459 65.4721 57.0767 65.5666 57.1075 65.6577Z" fill="#082777"/>
<path d="M35.8372 33.2705L28.5339 26.9978L33.2855 22.1346L36.6005 27.6258L48.8884 30.0895C49.2579 29.8082 49.7003 29.6418 50.1617 29.6105C50.6231 29.5792 51.0835 29.6843 51.4868 29.913C51.8902 30.1417 52.219 30.4842 52.4332 30.8987C52.6474 31.3131 52.7377 31.7817 52.6932 32.2471C52.6486 32.7126 52.4711 33.1549 52.1823 33.5201C51.8934 33.8854 51.5058 34.1577 51.0665 34.3039C50.6273 34.4502 50.1555 34.464 49.7086 34.3438C49.2617 34.2236 48.8591 33.9744 48.5498 33.6268L35.8372 33.2705Z" fill="#A0616A"/>
<path d="M22.0794 18.7539C21.2354 21.5307 29.2737 28.1534 29.2737 28.1534C29.3631 27.4868 33.9205 33.2353 34.2306 32.7147C35.1118 31.2351 36.0815 27.5777 37.0988 27.1102C37.6806 26.8429 34.343 23.1272 34.343 23.1272C34.343 23.1272 32.6405 20.8493 30.3926 17.9623C29.772 17.1341 28.9544 16.4783 28.0157 16.0557C27.0771 15.6331 26.048 15.4575 25.0243 15.5454C25.0243 15.5454 22.9235 15.9771 22.0794 18.7539Z" fill="#506DB8"/>
<path d="M25.6334 12.6067C28.3615 12.6067 30.573 10.3702 30.573 7.61127C30.573 4.85237 28.3615 2.61584 25.6334 2.61584C22.9054 2.61584 20.6938 4.85237 20.6938 7.61127C20.6938 10.3702 22.9054 12.6067 25.6334 12.6067Z" fill="#A0616A"/>
<path d="M28.1034 15.9081C29.1676 16.548 29.8041 17.7235 30.1696 18.9197C30.8461 21.1344 31.2533 23.4242 31.3823 25.7385L31.7682 32.667L36.5485 47.4198C32.4056 50.9649 16.8331 48.2255 16.8331 48.2255C16.8331 48.2255 16.3551 48.0644 16.8331 47.5809C17.3111 47.0975 17.7765 47.5258 17.2985 47.0424C16.8205 46.5589 17.15 47.0975 17.3093 46.6141C17.4687 46.1306 17.3093 46.4529 17.15 46.2918C16.9906 46.1306 18.3835 44.6804 18.3835 44.6804L17.1088 36.2121L15.5154 19.131C17.4275 16.7138 21.273 15.289 21.273 15.289L22.2666 13.4802L27.2347 13.8822L28.1034 15.9081Z" fill="#506DB8"/>
<path d="M29.7054 4.95724C30.0893 5.24682 30.3738 5.65088 30.5187 6.11253C30.5743 5.35809 30.5779 4.60065 30.5292 3.84572C30.471 3.31523 30.1017 3.1959 29.6741 3.05763C29.2879 2.93271 28.8511 2.7916 28.7336 2.27662C27.1809 0.749021 24.4779 0.82605 22.6281 1.3589C21.6102 1.65212 21.0245 2.02884 20.9721 2.24953L20.9612 2.29496L20.9199 2.31586C20.1353 2.7126 19.9826 3.96543 19.9926 4.94654C20.0118 6.79502 20.6429 8.89443 20.9984 9.06497C21.0172 9.074 21.022 9.07047 21.0301 9.0636C21.5655 8.63094 22.2186 9.09648 22.5056 9.34955C22.6749 8.20069 23.22 7.14234 24.0538 6.34353C24.8877 5.54471 25.9622 5.05152 27.1057 4.94272C27.4791 4.90622 27.8496 4.8434 28.2144 4.75471C28.3994 4.7063 28.5897 4.68105 28.7808 4.67954C29.1098 4.67449 29.4325 4.7714 29.7054 4.95724Z" fill="#082777"/>
<path d="M23.4812 40.7967L21.9702 40.014C21.8892 39.9557 21.8317 39.8699 21.8082 39.7722C21.7846 39.6745 21.7966 39.5715 21.8419 39.4821C21.8872 39.3926 21.9629 39.3226 22.055 39.2848C22.1471 39.2471 22.2496 39.2441 22.3437 39.2764L23.8548 40.059C23.9357 40.1174 23.9932 40.2032 24.0168 40.3009C24.0403 40.3986 24.0284 40.5015 23.983 40.591C23.9377 40.6805 23.8621 40.7505 23.77 40.7883C23.6778 40.826 23.5753 40.829 23.4812 40.7967Z" fill="#4B93E7"/>
<path d="M18.3958 38.6999L15.9102 29.3416L22.5525 28.0699L22.1953 34.4934L30.9228 43.5815C31.3849 43.5624 31.8424 43.6796 32.2397 43.919C32.637 44.1583 32.9568 44.5094 33.1602 44.9294C33.3636 45.3493 33.4418 45.8201 33.3852 46.2842C33.3286 46.7484 33.1397 47.1858 32.8415 47.5433C32.5434 47.9007 32.1488 48.1627 31.7059 48.2973C31.263 48.4318 30.791 48.4332 30.3474 48.3012C29.9038 48.1691 29.5078 47.9094 29.2076 47.5537C28.9074 47.198 28.716 46.7616 28.6568 46.2978L18.3958 38.6999Z" fill="#A0616A"/>
<path d="M15.2306 18.8489C12.976 20.649 15.8698 30.7178 15.8698 30.7178C16.3179 30.2205 16.8385 37.5697 17.3862 37.3194C18.9426 36.6082 21.7954 34.1557 22.8952 34.3556C23.5242 34.47 22.8652 29.4945 22.8652 29.4945C22.8652 29.4945 22.744 26.6417 22.5162 22.9743C22.4709 21.9363 22.1665 20.9267 21.6315 20.0396C21.0966 19.1525 20.3484 18.4168 19.4566 17.9008C19.4566 17.9008 17.4853 17.0489 15.2306 18.8489Z" fill="#506DB8"/>
<path d="M93.3779 44.6241L3.14396 44.5203C2.63687 43.4331 2.18665 42.3196 1.79517 41.1846L91.2367 41.2803C92.0975 42.2912 92.8179 43.4162 93.3779 44.6241Z" fill="#506DB8"/>
<path d="M64.638 68.8173C64.1717 69.0456 63.7012 69.2658 63.2265 69.4779C62.4375 69.0248 61.6576 68.5509 60.8823 68.0666L63.7578 66.7891L64.638 68.8173Z" fill="#FFB6B6"/>
<path d="M85.6032 52.9282C85.1357 53.5624 84.6534 54.1839 84.1563 54.7927C83.698 55.3542 83.2275 55.905 82.7448 56.445C82.5453 56.6687 82.3435 56.8912 82.1371 57.1114C81.7574 57.5231 81.3694 57.9278 80.973 58.3256C80.2593 58.5527 78.8136 58.9528 77.2641 59.3264C76.1365 59.5974 74.9541 59.8545 73.9576 60.0182C73.3998 60.1195 72.8355 60.1804 72.2691 60.2004C71.5964 60.2062 70.9134 60.1877 70.2282 60.1508C69.4552 60.1093 68.681 60.0448 67.916 59.9617C65.9264 59.7507 63.9996 59.4221 62.3372 59.0843C61.7284 58.9621 61.156 58.8375 60.6293 58.7165C59.6316 58.4893 58.797 58.2771 58.1928 58.1157C57.5121 57.9358 57.1244 57.8194 57.1244 57.8194L55.4199 60.7066L54.5352 62.2044L53.8853 63.3055L53.712 63.5973C53.639 63.5569 53.566 63.5154 53.4931 63.475C52.3408 62.8287 51.1566 62.2425 49.9449 61.719C49.1491 61.38 48.343 61.0744 47.5289 60.8138H47.5278C47.2165 60.7147 46.9041 60.6213 46.5906 60.5359C46.6886 60.2696 46.7878 60.0013 46.8882 59.7311C47.0751 59.2273 47.2659 58.7188 47.4605 58.2057C47.8812 57.0941 48.3168 55.9665 48.7649 54.8446C49.132 53.9233 49.506 53.0055 49.8845 52.1003C50.0589 51.6829 50.4135 51.3163 50.9095 50.9946C51.1465 50.8434 51.3938 50.7093 51.6494 50.5933C53.0689 49.9395 55.16 49.5141 57.4642 49.2408C57.6546 49.2189 57.8462 49.197 58.0389 49.1762C59.9463 48.9733 61.9701 48.8684 63.8628 48.8199C64.8102 48.7957 65.7246 48.7865 66.5752 48.7853C66.85 48.7853 67.1171 48.7861 67.3767 48.7876H67.3778C68.079 48.7911 68.7244 48.8015 69.2922 48.813C69.4028 48.8153 69.5099 48.8188 69.6148 48.8211H69.616C69.6867 48.8222 69.7562 48.8245 69.8246 48.8257C71.0662 48.858 71.8279 48.8972 71.8279 48.8972L72.1232 46.5542L72.1836 46.0815L72.2406 45.6318V45.6306L72.2474 45.5741L72.2942 45.573L73.1151 45.5568L80.0153 45.4208L83.7846 45.3458L83.1872 47.9356L82.201 52.2087C82.3013 52.8844 85.6374 52.3551 85.6032 52.9282Z" fill="#082777"/>
<path d="M65.4887 68.3906C65.207 68.5359 64.9231 68.6789 64.6381 68.8172C64.1718 69.0455 63.7013 69.2658 63.2266 69.4779C62.4376 69.0248 61.6577 68.5509 60.8824 68.0666C59.6169 67.2756 58.3638 66.457 57.1074 65.6579C56.9193 65.5368 56.7323 65.4181 56.5442 65.3005H56.543C56.0254 64.5233 55.4975 63.7139 54.965 62.8802C54.9571 62.8687 54.9502 62.8572 54.9434 62.8456C54.8066 62.6335 54.6705 62.4198 54.5352 62.2045C53.6835 60.8555 52.8273 59.4488 51.9961 58.0121L54.1008 57.0182L58.0138 55.171L58.6888 54.8528L60.6293 58.7166L62.3601 62.163L62.7454 62.9298L65.4887 68.3906Z" fill="#082777"/>
<path d="M66.0784 49.8402L76.0548 40.1104L78.8199 32.1925L74.7413 30.3989C72.6463 32.4284 70.3817 38.7497 70.3817 38.7497L63.5165 47.5825C63.463 47.601 63.4097 47.6207 63.357 47.6442C63.0478 47.7821 62.779 47.9984 62.5765 48.272C62.3741 48.5457 62.2449 48.8675 62.2014 49.2064C62.1579 49.5453 62.2016 49.8899 62.3282 50.2067C62.4549 50.5236 62.6602 50.802 62.9244 51.0152C63.1885 51.2283 63.5026 51.369 63.8362 51.4235C64.1698 51.478 64.5117 51.4446 64.8288 51.3265C65.1459 51.2083 65.4275 51.0095 65.6464 50.7491C65.8653 50.4887 66.0141 50.1757 66.0784 49.8402Z" fill="#FFB8B8"/>
<path d="M73.5935 31.283L78.767 32.944L78.7865 32.9407C80.7121 32.6145 82.3099 29.4341 83.3111 26.8234C83.6406 25.9623 83.6344 25.0068 83.2939 24.1501C82.9534 23.2934 82.304 22.5994 81.4769 22.2084C80.8649 21.9242 80.1864 21.8187 79.5182 21.904C78.85 21.9892 78.2187 22.2618 77.6956 22.6909L75.039 24.8862L73.5935 31.283Z" fill="#4B93E7"/>
<path d="M85.5824 53.045L85.6127 53.0044C87.2268 50.8394 85.0191 45.4781 84.6854 44.7006L86.1862 44.251L85.9246 41.361L85.7986 40.0724L86.9655 38.9517L86.9695 38.923L87.772 33.1472L88.8221 29.3244C89.2179 27.8793 89.2262 26.3536 88.8463 24.9041C88.4664 23.4546 87.7119 22.1334 86.6603 21.0762L84.5137 18.9208L81.9419 14.8499L77.6299 14.7373L76.0793 17.5229C74.6374 17.8205 73.3443 18.6203 72.4255 19.7829C71.5066 20.9455 71.0202 22.3972 71.0509 23.8852L71.1969 31.3011L69.6497 40.4893L69.6063 42.1583L68.0877 43.7789L68.3684 45.4173L67.2325 45.8749L66.6766 48.2031C66.4643 48.4717 65.0626 50.2636 65.0499 50.7631C65.0479 50.8381 65.1008 50.912 65.2162 50.9955C66.1236 51.652 71.1949 53.0745 73.4773 52.2193C75.9085 51.3091 85.4369 53.0186 85.5329 53.036L85.5824 53.045Z" fill="#4B93E7"/>
<path d="M79.4093 13.4895C82.5643 13.4895 85.1219 10.9029 85.1219 7.71232C85.1219 4.52169 82.5643 1.93518 79.4093 1.93518C76.2544 1.93518 73.6968 4.52169 73.6968 7.71232C73.6968 10.9029 76.2544 13.4895 79.4093 13.4895Z" fill="#FFB8B8"/>
<path d="M78.7123 13.5666C79.5969 13.5805 80.4811 13.5181 81.3553 13.3798C82.2217 13.2016 84.16 11.7652 84.7003 10.9008C85.1017 10.2586 85.3585 9.25568 85.5031 8.5275C85.698 7.56388 85.6906 6.56962 85.4813 5.6091C85.2721 4.64858 84.8657 3.74321 84.2885 2.95162C84.0666 2.62052 83.7604 2.35621 83.4022 2.18665C83.3705 2.1741 83.3378 2.16297 83.3048 2.15346C82.7828 2.01458 82.3139 1.72111 81.958 1.31072C81.889 1.22771 81.8142 1.14984 81.7342 1.07771C81.332 0.734492 80.8553 0.492396 80.3429 0.371208C79.5158 0.147356 78.3189 0.369559 76.7854 1.03228C76.015 1.36525 75.1724 1.24475 74.5242 1.10256C74.4879 1.09545 74.4503 1.0981 74.4153 1.11024C74.3802 1.12238 74.3489 1.14358 74.3245 1.17174C74.0488 1.43356 73.6852 1.58012 73.307 1.58195C73.0753 1.59224 72.8322 1.91665 72.5384 2.3397C72.4717 2.43573 72.3939 2.5478 72.3378 2.61597L72.3303 2.48501L72.1993 2.63111C71.9933 2.86074 71.8481 3.13935 71.7772 3.441C71.7064 3.74265 71.7121 4.05753 71.794 4.35632C71.8759 4.65511 72.0312 4.92808 72.2455 5.14983C72.4597 5.37157 72.726 5.53487 73.0195 5.62452C73.2526 5.68723 73.4913 5.72571 73.7321 5.73936C73.878 5.75263 74.0288 5.76636 74.1734 5.79173C74.6374 5.88782 75.0688 6.10394 75.4256 6.41901C75.7824 6.73407 76.0522 7.1373 76.2089 7.58933C76.2459 7.69382 76.3062 7.7883 76.3851 7.86548C76.464 7.94266 76.5594 8.00048 76.6638 8.03446C76.7683 8.06845 76.8791 8.07771 76.9877 8.06151C77.0963 8.04531 77.1998 8.00409 77.2901 7.94104C77.4407 7.82244 77.6174 7.74244 77.8052 7.70786C77.993 7.67328 78.1863 7.68514 78.3686 7.74244C78.5261 7.83102 78.6487 7.97167 78.7158 8.14081C78.7974 8.32926 78.9327 8.48885 79.1044 8.59923C79.6915 8.90536 79.732 10.2616 79.5211 11.3921C79.3178 12.4819 78.916 13.2702 78.544 13.3092C78.2576 13.3392 78.2248 13.3598 78.2041 13.411L78.1856 13.4568L78.2178 13.4997C78.3759 13.5577 78.5446 13.5805 78.7123 13.5666Z" fill="#082777"/>
<path d="M75.0121 29.5363L72.8095 25.0953C69.6124 25.3162 63.2671 29.0546 63.2671 29.0546L51.2614 31.6288C50.9058 31.4905 50.5204 31.4495 50.144 31.5097C49.7677 31.57 49.4137 31.7294 49.1176 31.972C48.8216 32.2146 48.594 32.5318 48.4577 32.8916C48.3214 33.2515 48.2813 33.6413 48.3413 34.0218C48.4013 34.4023 48.5594 34.7601 48.7997 35.0592C49.0399 35.3583 49.3538 35.5881 49.7098 35.7255C50.0658 35.8629 50.4513 35.903 50.8275 35.8419C51.2037 35.7807 51.5573 35.6204 51.8527 35.3771L67.1246 34.27L75.0121 29.5363Z" fill="#FFB8B8"/>
<path d="M74.1239 30.2654L79.8764 25.9422L80.8897 22.2493C81.086 21.5236 81.0777 20.7569 80.8657 20.0357C80.6537 19.3145 80.2465 18.6676 79.6901 18.1682C78.9313 17.4964 77.9486 17.141 76.9406 17.1738C75.9326 17.2067 74.9746 17.6255 74.2602 18.3454C72.0955 20.5305 69.6264 23.579 70.1568 25.6929L70.1622 25.7144L74.1239 30.2654Z" fill="#4B93E7"/>
<path d="M67.0026 41.8291H51.6106V43.9046H67.0026V41.8291Z" fill="white"/>
<path d="M27.6674 41.8291H12.2754V43.9046H27.6674V41.8291Z" fill="white"/>
<path d="M29.4648 31.8482V41.7302C29.4649 41.8561 29.5145 41.9769 29.6025 42.0659C29.6906 42.155 29.81 42.205 29.9345 42.2051H44.4149C44.5394 42.205 44.6588 42.155 44.7469 42.0659C44.8349 41.9769 44.8845 41.8561 44.8846 41.7302V31.8482C44.8843 31.7224 44.8347 31.6018 44.7467 31.5129C44.6586 31.424 44.5393 31.3739 44.4149 31.3738H29.9345C29.8101 31.3739 29.6908 31.424 29.6028 31.5129C29.5147 31.6018 29.4651 31.7224 29.4648 31.8482Z" fill="#506DB8"/>
<path d="M29.8044 31.971V41.6082C29.8046 41.6755 29.831 41.74 29.8781 41.7875C29.9251 41.8351 29.9889 41.8619 30.0554 41.862H44.2943C44.3608 41.8619 44.4246 41.8351 44.4716 41.7875C44.5187 41.74 44.5452 41.6755 44.5453 41.6082V31.971C44.5453 31.9037 44.5188 31.8391 44.4718 31.7914C44.4247 31.7437 44.3609 31.7168 44.2943 31.7167H30.0554C29.9888 31.7168 29.925 31.7437 29.8779 31.7914C29.8309 31.8391 29.8044 31.9037 29.8044 31.971Z" fill="#4B93E7"/>
<path d="M29.1621 43.6575C29.1886 43.6911 29.2223 43.7182 29.2607 43.7368C29.2991 43.7554 29.3411 43.7649 29.3836 43.7647H44.8888C44.9312 43.7646 44.9731 43.755 45.0113 43.7365C45.0496 43.7181 45.0833 43.6912 45.11 43.6579C45.1367 43.6246 45.1558 43.5857 45.1657 43.544C45.1757 43.5023 45.1764 43.4589 45.1677 43.417L44.927 42.2608C44.917 42.2136 44.8955 42.1698 44.8645 42.1331C44.8335 42.0965 44.7939 42.0684 44.7493 42.0512C44.7171 42.0384 44.6828 42.0318 44.6481 42.0319H29.6234C29.5887 42.0318 29.5544 42.0384 29.5221 42.0512C29.4776 42.0684 29.438 42.0965 29.407 42.1331C29.3759 42.1698 29.3544 42.2136 29.3445 42.2608L29.1038 43.417C29.0952 43.4589 29.096 43.5023 29.1061 43.5439C29.1162 43.5855 29.1353 43.6243 29.1621 43.6575Z" fill="#082777"/>
<path d="M44.116 42.5298H44.4822C44.5129 42.5298 44.5378 42.5046 44.5378 42.4735V42.2963C44.5378 42.2652 44.5129 42.24 44.4822 42.24H44.116C44.0852 42.24 44.0603 42.2652 44.0603 42.2963V42.4735C44.0603 42.5046 44.0852 42.5298 44.116 42.5298Z" fill="#506DB8"/>
<path d="M43.1609 42.5298H43.5271C43.5578 42.5298 43.5828 42.5046 43.5828 42.4735V42.2963C43.5828 42.2652 43.5578 42.24 43.5271 42.24H43.1609C43.1301 42.24 43.1052 42.2652 43.1052 42.2963V42.4735C43.1052 42.5046 43.1301 42.5298 43.1609 42.5298Z" fill="#506DB8"/>
<path d="M42.2058 42.5298H42.572C42.6028 42.5298 42.6277 42.5046 42.6277 42.4735V42.2963C42.6277 42.2652 42.6028 42.24 42.572 42.24H42.2058C42.1751 42.24 42.1501 42.2652 42.1501 42.2963V42.4735C42.1501 42.5046 42.1751 42.5298 42.2058 42.5298Z" fill="#506DB8"/>
<path d="M41.2507 42.5298H41.6169C41.6477 42.5298 41.6726 42.5046 41.6726 42.4735V42.2963C41.6726 42.2652 41.6477 42.24 41.6169 42.24H41.2507C41.22 42.24 41.1951 42.2652 41.1951 42.2963V42.4735C41.1951 42.5046 41.22 42.5298 41.2507 42.5298Z" fill="#506DB8"/>
<path d="M40.2956 42.5298H40.6619C40.6926 42.5298 40.7175 42.5046 40.7175 42.4735V42.2963C40.7175 42.2652 40.6926 42.24 40.6619 42.24H40.2956C40.2649 42.24 40.24 42.2652 40.24 42.2963V42.4735C40.24 42.5046 40.2649 42.5298 40.2956 42.5298Z" fill="#506DB8"/>
<path d="M39.3406 42.5298H39.7068C39.7375 42.5298 39.7625 42.5046 39.7625 42.4735V42.2963C39.7625 42.2652 39.7375 42.24 39.7068 42.24H39.3406C39.3098 42.24 39.2849 42.2652 39.2849 42.2963V42.4735C39.2849 42.5046 39.3098 42.5298 39.3406 42.5298Z" fill="#506DB8"/>
<path d="M38.3855 42.5298H38.7517C38.7825 42.5298 38.8074 42.5046 38.8074 42.4735V42.2963C38.8074 42.2652 38.7825 42.24 38.7517 42.24H38.3855C38.3547 42.24 38.3298 42.2652 38.3298 42.2963V42.4735C38.3298 42.5046 38.3547 42.5298 38.3855 42.5298Z" fill="#506DB8"/>
<path d="M37.4302 42.5298H37.7964C37.8271 42.5298 37.8521 42.5046 37.8521 42.4735V42.2963C37.8521 42.2652 37.8271 42.24 37.7964 42.24H37.4302C37.3994 42.24 37.3745 42.2652 37.3745 42.2963V42.4735C37.3745 42.5046 37.3994 42.5298 37.4302 42.5298Z" fill="#506DB8"/>
<path d="M36.4751 42.5298H36.8413C36.8721 42.5298 36.897 42.5046 36.897 42.4735V42.2963C36.897 42.2652 36.8721 42.24 36.8413 42.24H36.4751C36.4443 42.24 36.4194 42.2652 36.4194 42.2963V42.4735C36.4194 42.5046 36.4443 42.5298 36.4751 42.5298Z" fill="#506DB8"/>
<path d="M35.52 42.5298H35.8862C35.917 42.5298 35.9419 42.5046 35.9419 42.4735V42.2963C35.9419 42.2652 35.917 42.24 35.8862 42.24H35.52C35.4893 42.24 35.4643 42.2652 35.4643 42.2963V42.4735C35.4643 42.5046 35.4893 42.5298 35.52 42.5298Z" fill="#506DB8"/>
<path d="M34.5649 42.5298H34.9312C34.9619 42.5298 34.9868 42.5046 34.9868 42.4735V42.2963C34.9868 42.2652 34.9619 42.24 34.9312 42.24H34.5649C34.5342 42.24 34.5093 42.2652 34.5093 42.2963V42.4735C34.5093 42.5046 34.5342 42.5298 34.5649 42.5298Z" fill="#506DB8"/>
<path d="M33.6098 42.5298H33.9761C34.0068 42.5298 34.0317 42.5046 34.0317 42.4735V42.2963C34.0317 42.2652 34.0068 42.24 33.9761 42.24H33.6098C33.5791 42.24 33.5542 42.2652 33.5542 42.2963V42.4735C33.5542 42.5046 33.5791 42.5298 33.6098 42.5298Z" fill="#506DB8"/>
<path d="M32.6548 42.5298H33.021C33.0517 42.5298 33.0767 42.5046 33.0767 42.4735V42.2963C33.0767 42.2652 33.0517 42.24 33.021 42.24H32.6548C32.624 42.24 32.5991 42.2652 32.5991 42.2963V42.4735C32.5991 42.5046 32.624 42.5298 32.6548 42.5298Z" fill="#506DB8"/>
<path d="M31.6997 42.5298H32.0659C32.0967 42.5298 32.1216 42.5046 32.1216 42.4735V42.2963C32.1216 42.2652 32.0967 42.24 32.0659 42.24H31.6997C31.669 42.24 31.644 42.2652 31.644 42.2963V42.4735C31.644 42.5046 31.669 42.5298 31.6997 42.5298Z" fill="#506DB8"/>
<path d="M30.7446 42.5298H31.1108C31.1416 42.5298 31.1665 42.5046 31.1665 42.4735V42.2963C31.1665 42.2652 31.1416 42.24 31.1108 42.24H30.7446C30.7139 42.24 30.689 42.2652 30.689 42.2963V42.4735C30.689 42.5046 30.7139 42.5298 30.7446 42.5298Z" fill="#506DB8"/>
<path d="M29.7895 42.5298H30.1558C30.1865 42.5298 30.2114 42.5046 30.2114 42.4735V42.2963C30.2114 42.2652 30.1865 42.24 30.1558 42.24H29.7895C29.7588 42.24 29.7339 42.2652 29.7339 42.2963V42.4735C29.7339 42.5046 29.7588 42.5298 29.7895 42.5298Z" fill="#506DB8"/>
<path d="M44.1272 43.0127H44.4934C44.5241 43.0127 44.5491 42.9875 44.5491 42.9564V42.7792C44.5491 42.7481 44.5241 42.7229 44.4934 42.7229H44.1272C44.0964 42.7229 44.0715 42.7481 44.0715 42.7792V42.9564C44.0715 42.9875 44.0964 43.0127 44.1272 43.0127Z" fill="#506DB8"/>
<path d="M43.1721 43.0127H43.5383C43.5691 43.0127 43.594 42.9875 43.594 42.9564V42.7792C43.594 42.7481 43.5691 42.7229 43.5383 42.7229H43.1721C43.1414 42.7229 43.1164 42.7481 43.1164 42.7792V42.9564C43.1164 42.9875 43.1414 43.0127 43.1721 43.0127Z" fill="#506DB8"/>
<path d="M42.217 43.0127H42.5833C42.614 43.0127 42.6389 42.9875 42.6389 42.9564V42.7792C42.6389 42.7481 42.614 42.7229 42.5833 42.7229H42.217C42.1863 42.7229 42.1614 42.7481 42.1614 42.7792V42.9564C42.1614 42.9875 42.1863 43.0127 42.217 43.0127Z" fill="#506DB8"/>
<path d="M41.2619 43.0127H41.6282C41.6589 43.0127 41.6838 42.9875 41.6838 42.9564V42.7792C41.6838 42.7481 41.6589 42.7229 41.6282 42.7229H41.2619C41.2312 42.7229 41.2063 42.7481 41.2063 42.7792V42.9564C41.2063 42.9875 41.2312 43.0127 41.2619 43.0127Z" fill="#506DB8"/>
<path d="M40.3069 43.0127H40.6731C40.7038 43.0127 40.7288 42.9875 40.7288 42.9564V42.7792C40.7288 42.7481 40.7038 42.7229 40.6731 42.7229H40.3069C40.2761 42.7229 40.2512 42.7481 40.2512 42.7792V42.9564C40.2512 42.9875 40.2761 43.0127 40.3069 43.0127Z" fill="#506DB8"/>
<path d="M39.3518 43.0127H39.718C39.7488 43.0127 39.7737 42.9875 39.7737 42.9564V42.7792C39.7737 42.7481 39.7488 42.7229 39.718 42.7229H39.3518C39.321 42.7229 39.2961 42.7481 39.2961 42.7792V42.9564C39.2961 42.9875 39.321 43.0127 39.3518 43.0127Z" fill="#506DB8"/>
<path d="M38.3967 43.0127H38.7629C38.7937 43.0127 38.8186 42.9875 38.8186 42.9564V42.7792C38.8186 42.7481 38.7937 42.7229 38.7629 42.7229H38.3967C38.366 42.7229 38.3411 42.7481 38.3411 42.7792V42.9564C38.3411 42.9875 38.366 43.0127 38.3967 43.0127Z" fill="#506DB8"/>
<path d="M37.4416 43.0127H37.8079C37.8386 43.0127 37.8635 42.9875 37.8635 42.9564V42.7792C37.8635 42.7481 37.8386 42.7229 37.8079 42.7229H37.4416C37.4109 42.7229 37.386 42.7481 37.386 42.7792V42.9564C37.386 42.9875 37.4109 43.0127 37.4416 43.0127Z" fill="#506DB8"/>
<path d="M36.4866 43.0127H36.8528C36.8835 43.0127 36.9084 42.9875 36.9084 42.9564V42.7792C36.9084 42.7481 36.8835 42.7229 36.8528 42.7229H36.4866C36.4558 42.7229 36.4309 42.7481 36.4309 42.7792V42.9564C36.4309 42.9875 36.4558 43.0127 36.4866 43.0127Z" fill="#506DB8"/>
<path d="M35.5315 43.0127H35.8977C35.9284 43.0127 35.9534 42.9875 35.9534 42.9564V42.7792C35.9534 42.7481 35.9284 42.7229 35.8977 42.7229H35.5315C35.5007 42.7229 35.4758 42.7481 35.4758 42.7792V42.9564C35.4758 42.9875 35.5007 43.0127 35.5315 43.0127Z" fill="#506DB8"/>
<path d="M34.5762 43.0127H34.9424C34.9731 43.0127 34.998 42.9875 34.998 42.9564V42.7792C34.998 42.7481 34.9731 42.7229 34.9424 42.7229H34.5762C34.5454 42.7229 34.5205 42.7481 34.5205 42.7792V42.9564C34.5205 42.9875 34.5454 43.0127 34.5762 43.0127Z" fill="#506DB8"/>
<path d="M33.6211 43.0127H33.9873C34.018 43.0127 34.043 42.9875 34.043 42.9564V42.7792C34.043 42.7481 34.018 42.7229 33.9873 42.7229H33.6211C33.5903 42.7229 33.5654 42.7481 33.5654 42.7792V42.9564C33.5654 42.9875 33.5903 43.0127 33.6211 43.0127Z" fill="#506DB8"/>
<path d="M32.666 43.0127H33.0322C33.063 43.0127 33.0879 42.9875 33.0879 42.9564V42.7792C33.0879 42.7481 33.063 42.7229 33.0322 42.7229H32.666C32.6353 42.7229 32.6103 42.7481 32.6103 42.7792V42.9564C32.6103 42.9875 32.6353 43.0127 32.666 43.0127Z" fill="#506DB8"/>
<path d="M31.7109 43.0127H32.0772C32.1079 43.0127 32.1328 42.9875 32.1328 42.9564V42.7792C32.1328 42.7481 32.1079 42.7229 32.0772 42.7229H31.7109C31.6802 42.7229 31.6553 42.7481 31.6553 42.7792V42.9564C31.6553 42.9875 31.6802 43.0127 31.7109 43.0127Z" fill="#506DB8"/>
<path d="M30.7558 43.0127H31.1221C31.1528 43.0127 31.1777 42.9875 31.1777 42.9564V42.7792C31.1777 42.7481 31.1528 42.7229 31.1221 42.7229H30.7558C30.7251 42.7229 30.7002 42.7481 30.7002 42.7792V42.9564C30.7002 42.9875 30.7251 43.0127 30.7558 43.0127Z" fill="#506DB8"/>
<path d="M29.8008 43.0127H30.167C30.1977 43.0127 30.2227 42.9875 30.2227 42.9564V42.7792C30.2227 42.7481 30.1977 42.7229 30.167 42.7229H29.8008C29.77 42.7229 29.7451 42.7481 29.7451 42.7792V42.9564C29.7451 42.9875 29.77 43.0127 29.8008 43.0127Z" fill="#506DB8"/>
<path d="M36.1998 43.5923H39.9089C39.9397 43.5923 39.9646 43.5671 39.9646 43.536V43.3588C39.9646 43.3277 39.9397 43.3025 39.9089 43.3025H36.1998C36.1691 43.3025 36.1442 43.3277 36.1442 43.3588V43.536C36.1442 43.5671 36.1691 43.5923 36.1998 43.5923Z" fill="#506DB8"/>
</g>
<defs>
<clipPath id="clip0_4_930">
<rect width="95" height="73" fill="white"/>
</clipPath>
</defs>
</svg>
