<svg width="102" height="73" viewBox="0 0 102 73" fill="none" xmlns="http://www.w3.org/2000/svg">
<g clip-path="url(#clip0_4_929)">
<path d="M40.4122 52.2839H7.11301C6.81631 52.2836 6.53186 52.1655 6.32206 51.9554C6.11226 51.7454 5.99424 51.4606 5.9939 51.1636V46.2812C5.99424 45.9842 6.11226 45.6994 6.32206 45.4894C6.53186 45.2794 6.81631 45.1612 7.11301 45.1609H40.4122C40.7089 45.1612 40.9933 45.2794 41.2031 45.4894C41.4129 45.6994 41.531 45.9842 41.5313 46.2812V51.1636C41.531 51.4606 41.4129 51.7454 41.2031 51.9554C40.9933 52.1655 40.7089 52.2836 40.4122 52.2839Z" fill="#F0F0F0"/>
<path d="M37.1769 51.5281H7.86814C7.57143 51.5277 7.28699 51.4096 7.07719 51.1995C6.86738 50.9895 6.74937 50.7047 6.74902 50.4077V47.0374C6.74937 46.7403 6.86738 46.4555 7.07719 46.2455C7.28699 46.0355 7.57143 45.9173 7.86814 45.917H39.6574C39.9541 45.9173 40.2386 46.0355 40.4484 46.2455C40.6582 46.4555 40.7762 46.7403 40.7765 47.0374V47.9244C40.7755 48.8798 40.3959 49.7958 39.721 50.4714C39.0462 51.147 38.1312 51.527 37.1769 51.5281Z" fill="white"/>
<path d="M27.0671 48.375H13.6834C13.6068 48.375 13.5334 48.3446 13.4793 48.2904C13.4252 48.2362 13.3948 48.1627 13.3948 48.0861C13.3948 48.0094 13.4252 47.9359 13.4793 47.8818C13.5334 47.8276 13.6068 47.7971 13.6834 47.7971H27.0671C27.1437 47.7971 27.2171 47.8276 27.2712 47.8818C27.3253 47.9359 27.3557 48.0094 27.3557 48.0861C27.3557 48.1627 27.3253 48.2362 27.2712 48.2904C27.2171 48.3446 27.1437 48.375 27.0671 48.375Z" fill="#E6E6E6"/>
<path d="M33.8421 49.5568H13.6833C13.6453 49.5568 13.6077 49.5494 13.5727 49.535C13.5376 49.5205 13.5057 49.4992 13.4788 49.4724C13.4519 49.4455 13.4306 49.4136 13.4161 49.3785C13.4015 49.3434 13.394 49.3058 13.394 49.2678C13.394 49.2298 13.4015 49.1922 13.4161 49.1571C13.4306 49.122 13.4519 49.0901 13.4788 49.0633C13.5057 49.0364 13.5376 49.0152 13.5727 49.0007C13.6077 48.9862 13.6453 48.9788 13.6833 48.9789H33.8421C33.9185 48.9791 33.9918 49.0096 34.0458 49.0637C34.0998 49.1179 34.1301 49.1913 34.1301 49.2678C34.1301 49.3443 34.0998 49.4177 34.0458 49.4719C33.9918 49.5261 33.9185 49.5566 33.8421 49.5568Z" fill="#E6E6E6"/>
<path d="M42.5393 39.5747H4.5712C4.26823 39.5743 3.97778 39.4537 3.76355 39.2392C3.54932 39.0247 3.42881 38.7339 3.42847 38.4306V9.37553C3.42881 9.07223 3.54932 8.78145 3.76355 8.56699C3.97778 8.35253 4.26824 8.2319 4.5712 8.23157H42.5393C42.8422 8.2319 43.1327 8.35253 43.3469 8.56699C43.5612 8.78145 43.6817 9.07223 43.682 9.37553V38.4306C43.6817 38.7339 43.5612 39.0247 43.3469 39.2392C43.1327 39.4537 42.8423 39.5743 42.5393 39.5747Z" fill="white"/>
<path d="M42.5393 39.7166H4.57127C4.23075 39.7162 3.90429 39.5806 3.6635 39.3395C3.42271 39.0985 3.28726 38.7716 3.28687 38.4307V9.37561C3.28726 9.03471 3.42272 8.70789 3.6635 8.46685C3.90429 8.22581 4.23075 8.09022 4.57127 8.08984H42.5393C42.8798 8.09022 43.2063 8.22581 43.4471 8.46685C43.6879 8.70789 43.8233 9.03471 43.8237 9.37561V38.4307C43.8233 38.7716 43.6879 39.0985 43.4471 39.3395C43.2063 39.5806 42.8798 39.7162 42.5393 39.7166ZM4.57127 8.3735C4.30587 8.37379 4.05143 8.47946 3.86376 8.66733C3.67608 8.8552 3.57051 9.10992 3.5702 9.37561V38.4307C3.5705 38.6964 3.67606 38.9512 3.86373 39.1391C4.05141 39.3269 4.30586 39.4326 4.57127 39.4329H42.5393C42.8047 39.4326 43.0592 39.3269 43.2469 39.1391C43.4345 38.9512 43.5401 38.6964 43.5404 38.4307V9.37561C43.5401 9.10991 43.4345 8.85519 43.2468 8.66732C43.0592 8.47946 42.8047 8.37379 42.5393 8.37349L4.57127 8.3735Z" fill="#F0F0F0"/>
<path d="M3.51636 34.0436V38.4307C3.51677 38.7107 3.62806 38.9791 3.82583 39.1771C4.02359 39.3751 4.29169 39.4865 4.57137 39.4869H42.5395C42.8192 39.4865 43.0873 39.3751 43.2851 39.1771C43.4828 38.9791 43.5941 38.7107 43.5945 38.4307V34.0436H3.51636Z" fill="#F0F0F0"/>
<path d="M3.87393 8.4168L3.72119 8.65564L43.5179 34.1631L43.6707 33.9242L3.87393 8.4168Z" fill="#F0F0F0"/>
<path d="M43.6305 8.41666L3.83374 33.9241L3.98648 34.1629L43.7832 8.6555L43.6305 8.41666Z" fill="#F0F0F0"/>
<path d="M77.2598 71.0242L75.5046 71.0241L74.6694 64.2465L77.2601 64.2466L77.2598 71.0242Z" fill="#A0616A"/>
<path d="M77.213 70.4501L75.3402 69.6885L75.2849 69.6658L74.2508 70.4501C73.6832 70.45 73.1376 70.6693 72.7277 71.0622C72.3178 71.4552 72.0752 71.9914 72.0507 72.559C72.0478 72.5902 72.0479 72.6228 72.0479 72.6554V72.7278H77.7074V70.4501H77.213Z" fill="#506DB8"/>
<path d="M73.1493 69.3893L71.4935 69.9725L68.4587 63.8563L70.9025 62.9957L73.1493 69.3893Z" fill="#A0616A"/>
<path d="M72.9148 68.8629L70.8956 68.7668L70.836 68.7637L70.1205 69.8472C69.5851 70.0357 69.1431 70.4239 68.8867 70.9307C68.6303 71.4376 68.5793 72.024 68.7443 72.5676C68.752 72.598 68.7628 72.6287 68.7736 72.6595L68.7976 72.7277L74.1363 70.8472L73.3812 68.6986L72.9148 68.8629Z" fill="#506DB8"/>
<path d="M77.8801 41.8004C79.4859 41.7381 77.4967 54.549 77.4967 54.549C77.4967 54.549 78.0786 65.7964 77.9552 66.3866C77.8319 66.9769 77.9397 68.5688 77.9397 68.5688C77.6251 67.9955 74.3793 68.4282 74.3793 68.4282L73.9377 57.0289L71.6833 47.8955L68.5579 54.0178L71.5535 63.4151C71.5535 63.4151 72.7666 64.539 72.6376 64.9831C72.5086 65.4272 69.331 66.4287 68.7471 66.4514C68.1631 66.474 68.4268 65.732 68.3985 65.0012C68.3702 64.2705 65.6224 57.4981 64.656 55.1938C63.6895 52.8895 64.4409 49.6403 64.9342 47.2794C65.4276 44.9184 68.023 40.4876 68.023 40.4876C71.2447 36.8498 76.2743 41.8628 77.8801 41.8004Z" fill="#506DB8"/>
<path d="M58.3106 31.4475C58.3986 31.6157 58.5223 31.7626 58.6731 31.8778C58.8239 31.993 58.9981 32.0736 59.1834 32.1142C59.3687 32.1547 59.5607 32.154 59.7457 32.1122C59.9307 32.0704 60.1044 31.9885 60.2544 31.8723L64.1159 34.3945L64.1042 31.9958L60.439 29.9685C60.2272 29.7291 59.9351 29.5759 59.618 29.5378C59.301 29.4996 58.9809 29.5793 58.7186 29.7616C58.4563 29.9439 58.2698 30.2162 58.1946 30.5269C58.1194 30.8376 58.1607 31.1652 58.3106 31.4475Z" fill="#A0616A"/>
<path d="M77.0461 43.8541C73.0639 43.8543 70.8694 43.0562 69.704 42.3436C68.2791 41.4723 68.0352 40.5535 68.0255 40.5148L68.0227 40.5037L68.1614 38.7564L68.2221 38.6204C68.5016 37.994 68.5387 37.286 68.3261 36.6338L68.3217 36.6204L68.3228 36.6064L69.254 24.5167L72.5491 23.4361L73.5077 22.4719L77.7758 22.4099L78.3705 23.6169L81.7352 24.885L80.0821 34.7356L79.2897 36.103L79.6086 37.5925L79.6064 37.606L78.5668 43.8178L78.5096 43.8203C77.9968 43.8433 77.509 43.8546 77.0461 43.8541Z" fill="#082777"/>
<path d="M66.7438 36.3115L65.1815 35.3843L65.0836 35.2427C64.8848 34.9562 64.6216 34.7204 64.3151 34.5542C64.0087 34.388 63.6677 34.296 63.3193 34.2857L63.3011 34.2851L61.1494 33.0187L62.0413 30.403L65.4144 31.4006L67.766 25.5511C67.8952 25.2299 68.1108 24.9508 68.3889 24.7449C68.6671 24.539 68.9968 24.4143 69.3415 24.3849C69.6861 24.3554 70.0322 24.4222 70.3412 24.5778C70.6502 24.7335 70.91 24.9719 71.0917 25.2666C71.2779 25.5745 71.3744 25.9285 71.3704 26.2884V30.1159L71.3563 30.1348L66.7438 36.3115Z" fill="#082777"/>
<path d="M77.1885 41.6044C77.2219 41.4175 77.2959 41.2402 77.4051 41.0849C77.5144 40.9297 77.6563 40.8004 77.8209 40.706C77.9855 40.6116 78.1688 40.5545 78.3578 40.5388C78.5468 40.523 78.737 40.5489 78.915 40.6146L81.8412 37.0475L82.5499 39.3388L79.6624 42.3749C79.5322 42.6669 79.2996 42.9009 79.0086 43.0326C78.7177 43.1644 78.3885 43.1847 78.0836 43.0897C77.7787 42.9947 77.5191 42.7911 77.3542 42.5173C77.1892 42.2436 77.1303 41.9188 77.1885 41.6044Z" fill="#A0616A"/>
<path d="M81.5637 41.1537L79.6206 39.2082L80.8575 36.191L82.6501 33.7405C80.7399 32.8095 79.306 30.604 78.2671 28.7783L78.2554 28.7578L78.5141 26.7292C78.5746 26.2547 78.7645 25.8061 79.0628 25.4325C79.3223 25.1076 79.6557 24.8496 80.0351 24.6801C80.4146 24.5107 80.8291 24.4346 81.2439 24.4583C81.6587 24.4821 82.0618 24.6049 82.4195 24.8165C82.7772 25.0282 83.0791 25.3225 83.2999 25.6749L86.7837 33.4282L86.7445 33.4867L83.9423 38.2689L83.1775 38.7654L81.5637 41.1537Z" fill="#082777"/>
<path d="M78.7062 18.343C78.5781 19.2779 78.0845 20.1236 77.3339 20.6944C76.5833 21.2651 75.6371 21.5142 74.7031 21.387C73.7692 21.2597 72.9239 20.7665 72.3529 20.0157C71.782 19.2649 71.5321 18.3179 71.6582 17.3827L71.6651 17.3322C71.8124 16.4096 72.3162 15.5819 73.0676 15.0277C73.819 14.4735 74.7579 14.2373 75.6818 14.3699C76.6057 14.5026 77.4405 14.9935 78.006 15.7367C78.5716 16.4799 78.8227 17.416 78.7051 18.3429L78.7062 18.343Z" fill="#A0616A"/>
<path d="M77.8009 20.177C77.9835 19.8056 78.1711 19.4069 78.1198 18.9961C78.0685 18.5853 77.6661 18.1927 77.2709 18.3148C77.0347 18.3878 76.8561 18.6213 76.6091 18.6333C76.2692 18.6498 76.0744 18.2604 75.9686 17.9366L75.5378 16.6182C75.1241 16.9409 74.6444 17.1683 74.1328 17.284C73.6212 17.3998 73.0904 17.401 72.5782 17.2877C72.1783 17.1961 71.7742 17.0176 71.5395 16.6807C71.3049 16.3437 71.3063 15.821 71.6281 15.5661C71.7859 15.4412 71.9959 15.3937 72.1467 15.2604C72.2403 15.1777 72.3048 15.067 72.3306 14.9448C72.3564 14.8226 72.3423 14.6952 72.2902 14.5817C72.2382 14.4681 72.151 14.3744 72.0416 14.3143C71.9322 14.2542 71.8063 14.2309 71.6827 14.248L72.7674 14.1123L72.4442 13.5271C72.5671 13.6108 72.706 13.6679 72.8522 13.6947C72.9984 13.7216 73.1485 13.7176 73.2931 13.683C73.5849 13.6304 73.8598 13.5101 74.1452 13.4299C74.8373 13.2529 75.5681 13.307 76.2266 13.5838C76.8851 13.8607 77.4354 14.3451 77.7938 14.9636C78.0607 14.8744 78.3484 14.8685 78.6188 14.9466C78.8892 15.0248 79.1294 15.1833 79.3078 15.4013C79.5982 15.7702 79.6771 16.2626 79.6884 16.7322C79.7095 17.6581 79.5078 18.5755 79.1004 19.407C78.9836 19.6711 78.8157 19.9095 78.6065 20.1085C78.5012 20.2071 78.3755 20.2814 78.2385 20.3263C78.1014 20.3712 77.9561 20.3855 77.8129 20.3683" fill="#506DB8"/>
<path d="M20.1695 16.5137C20.2275 17.343 20.4715 18.1484 20.8834 18.8703C21.7515 20.3964 23.24 21.5014 24.8433 22.1582C26.8463 22.9787 29.0791 23.004 31.2048 22.821C33.1792 22.6511 35.1335 22.2572 37.1151 22.176C38.6476 22.1269 40.1816 22.1635 41.7101 22.2857C44.6754 22.4964 47.6284 22.8874 50.5623 23.3613C51.3569 23.4881 52.1499 23.6243 52.9411 23.77C53.0159 23.7766 53.0899 23.7903 53.162 23.811C53.1764 23.8169 53.1995 23.8123 53.2127 23.8206C53.2365 23.8357 53.116 23.7824 53.1891 23.8429C53.2909 23.9498 53.3816 24.0667 53.46 24.1919L54.5436 25.5879C54.8543 25.9882 55.1427 26.4746 55.5443 26.7902C55.8275 27.0092 56.1691 27.1394 56.5261 27.1643C56.883 27.1892 57.2394 27.1077 57.5502 26.9301C57.8749 26.7248 58.1338 26.4303 58.2961 26.0819C58.5453 25.6242 58.8427 25.1946 59.1831 24.8001C60.4723 23.2946 62.2639 22.3685 63.7625 21.1017C64.4883 20.5133 65.1078 19.8043 65.594 19.0059C66.0087 18.2833 66.2665 17.4814 66.3507 16.6523C66.5301 14.9687 66.0141 13.2517 65.1461 11.8194C64.202 10.2807 62.8457 9.03785 61.2313 8.23219C59.4177 7.30719 57.4108 6.85662 55.3991 6.6321C53.2633 6.39371 51.1026 6.39445 48.9564 6.41852C46.5477 6.44536 44.1434 6.5514 41.7434 6.73664C39.3402 6.92286 36.9464 7.18756 34.5622 7.53073C32.2743 7.86003 29.9586 8.20325 27.7191 8.78591C25.7408 9.30064 23.768 10.1052 22.2907 11.5629C20.9771 12.8591 20.0635 14.6328 20.1695 16.5137Z" fill="#4B93E7"/>
<path d="M31.228 17.0493C31.1302 17.0449 31.0344 17.0203 30.9466 16.977C30.8587 16.9336 30.7808 16.8726 30.7177 16.7977C30.6546 16.7228 30.6077 16.6356 30.5799 16.5416C30.5521 16.4476 30.544 16.3489 30.5562 16.2516L30.607 15.851C30.6167 15.7742 30.6076 15.6961 30.5805 15.6235C30.5534 15.551 30.5092 15.4861 30.4515 15.4345L30.1509 15.1656C30.0525 15.0775 29.9806 14.9637 29.9434 14.8369C29.9062 14.7101 29.9053 14.5754 29.9406 14.4481C29.9759 14.3208 30.046 14.2059 30.1432 14.1164C30.2403 14.027 30.3605 13.9665 30.4902 13.9419L30.8865 13.8665C30.9624 13.8521 31.0338 13.8194 31.0943 13.7712C31.1548 13.7231 31.2028 13.6609 31.234 13.5901L31.3966 13.2203C31.4499 13.0994 31.5359 12.9958 31.6448 12.9213C31.7538 12.8468 31.8814 12.8042 32.0133 12.7985C32.1451 12.7928 32.276 12.8241 32.391 12.8889C32.506 12.9537 32.6006 13.0494 32.6641 13.1653L32.858 13.5193C32.8952 13.5872 32.9483 13.6451 33.0128 13.6879C33.0774 13.7307 33.1513 13.7572 33.2284 13.765L33.6295 13.8056C33.7609 13.8189 33.8858 13.8687 33.9904 13.9494C34.0949 14.0301 34.1747 14.1385 34.2209 14.2622C34.2671 14.386 34.2778 14.5203 34.2517 14.6498C34.2257 14.7794 34.164 14.899 34.0735 14.9953L33.7972 15.2893C33.7442 15.3457 33.7056 15.4141 33.6849 15.4887C33.6642 15.5633 33.662 15.6418 33.6784 15.7175L33.7637 16.1124C33.7916 16.2415 33.7828 16.3758 33.7384 16.5002C33.6941 16.6247 33.6158 16.7341 33.5125 16.8164C33.4092 16.8986 33.285 16.9502 33.1539 16.9654C33.0229 16.9807 32.8901 16.9589 32.7708 16.9026L32.4059 16.7305C32.336 16.6973 32.259 16.6817 32.1817 16.685C32.1044 16.6884 32.0291 16.7105 31.9622 16.7496L31.6136 16.9528C31.4969 17.0211 31.3631 17.0546 31.228 17.0493Z" fill="white"/>
<path d="M36.9082 16.884C36.7282 16.8757 36.558 16.7997 36.4317 16.6711C36.3554 16.5901 36.2984 16.4929 36.2652 16.3867C36.232 16.2804 36.2233 16.168 36.2399 16.058L36.2865 15.6904C36.2965 15.6121 36.2872 15.5326 36.2596 15.4587C36.2321 15.3848 36.1869 15.3187 36.1282 15.2661L35.8493 15.0167C35.7671 14.9464 35.7015 14.8587 35.6575 14.7598C35.6134 14.661 35.5918 14.5535 35.5945 14.4453C35.6005 14.285 35.6608 14.1316 35.7655 14.0101C35.8701 13.8886 36.0128 13.8062 36.1703 13.7766L36.562 13.7021C36.6394 13.6874 36.7121 13.654 36.7738 13.6049C36.8355 13.5558 36.8844 13.4924 36.9162 13.4201L37.0621 13.0883C37.1143 12.9623 37.2002 12.8533 37.3103 12.773C37.4204 12.6928 37.5506 12.6445 37.6863 12.6336C37.8194 12.626 37.9518 12.6564 38.0683 12.7213C38.1848 12.7862 38.2804 12.8828 38.3442 13L38.5358 13.3499C38.5738 13.4191 38.628 13.4781 38.6937 13.5217C38.7595 13.5653 38.8349 13.5923 38.9134 13.6002L39.2852 13.6378C39.3931 13.6463 39.4977 13.6787 39.5914 13.7328C39.6852 13.7868 39.7657 13.8612 39.8271 13.9503C39.9161 14.0836 39.9574 14.2432 39.944 14.403C39.9307 14.5628 39.8636 14.7134 39.7536 14.83L39.4805 15.1206C39.4266 15.1781 39.3874 15.2478 39.3663 15.3237C39.3452 15.3997 39.3429 15.4797 39.3595 15.5567L39.4382 15.9213C39.4634 16.0266 39.465 16.1361 39.4428 16.242C39.4206 16.3479 39.3752 16.4476 39.3099 16.5338C39.2112 16.6605 39.0723 16.7497 38.9161 16.7867C38.7599 16.8237 38.5958 16.8062 38.4509 16.7373L38.0898 16.567C38.0186 16.5334 37.9403 16.5176 37.8616 16.521C37.783 16.5245 37.7063 16.547 37.6383 16.5866L37.2937 16.7875C37.1771 16.8559 37.0433 16.8894 36.9082 16.884Z" fill="white"/>
<path d="M42.603 16.8601C42.5052 16.8557 42.4094 16.831 42.3216 16.7877C42.2338 16.7444 42.1558 16.6834 42.0927 16.6085C42.0296 16.5335 41.9827 16.4463 41.9549 16.3524C41.9271 16.2584 41.919 16.1597 41.9312 16.0624L41.982 15.6618C41.9917 15.5849 41.9826 15.5069 41.9555 15.4343C41.9284 15.3618 41.8842 15.2969 41.8265 15.2453L41.5259 14.9764C41.4275 14.8883 41.3556 14.7745 41.3184 14.6477C41.2813 14.5209 41.2803 14.3862 41.3156 14.2589C41.3509 14.1316 41.4211 14.0167 41.5182 13.9272C41.6153 13.8378 41.7355 13.7773 41.8652 13.7526L42.2615 13.6773C42.3374 13.6629 42.4088 13.6302 42.4693 13.582C42.5298 13.5338 42.5778 13.4717 42.609 13.4009L42.7716 13.0311C42.8249 12.9102 42.9109 12.8066 43.0198 12.7321C43.1288 12.6576 43.2564 12.615 43.3883 12.6093C43.5201 12.6036 43.651 12.6349 43.766 12.6997C43.881 12.7645 43.9756 12.8602 44.0391 12.9761L44.233 13.33C44.2702 13.398 44.3233 13.4559 44.3878 13.4987C44.4524 13.5415 44.5263 13.568 44.6034 13.5758L45.0045 13.6163C45.1359 13.6296 45.2608 13.6795 45.3654 13.7602C45.4699 13.8409 45.5497 13.9493 45.5959 14.073C45.6421 14.1968 45.6528 14.3311 45.6267 14.4606C45.6007 14.5901 45.539 14.7098 45.4485 14.806L45.1722 15.1001C45.1192 15.1565 45.0806 15.2249 45.0599 15.2995C45.0392 15.3741 45.037 15.4526 45.0534 15.5283L45.1387 15.9232C45.1666 16.0523 45.1578 16.1866 45.1134 16.311C45.0691 16.4354 44.9908 16.5449 44.8875 16.6271C44.7842 16.7093 44.66 16.761 44.5289 16.7762C44.3979 16.7915 44.2651 16.7697 44.1458 16.7134L43.781 16.5413C43.711 16.5081 43.634 16.4925 43.5567 16.4958C43.4794 16.4991 43.4041 16.5213 43.3372 16.5603L42.9886 16.7636C42.8719 16.8319 42.7381 16.8654 42.603 16.8601Z" fill="white"/>
<path opacity="0.2" d="M48.1423 16.7095C48.0445 16.705 47.9487 16.6804 47.8609 16.6371C47.7731 16.5938 47.6951 16.5328 47.632 16.4578C47.5689 16.3829 47.522 16.2957 47.4942 16.2017C47.4664 16.1078 47.4583 16.009 47.4705 15.9118L47.5213 15.5112C47.531 15.4343 47.5219 15.3563 47.4948 15.2837C47.4678 15.2111 47.4235 15.1463 47.3658 15.0946L47.0652 14.8257C46.9668 14.7377 46.8949 14.6239 46.8577 14.4971C46.8206 14.3703 46.8196 14.2356 46.8549 14.1083C46.8902 13.981 46.9604 13.8661 47.0575 13.7766C47.1546 13.6871 47.2748 13.6266 47.4045 13.602L47.8008 13.5267C47.8767 13.5122 47.9481 13.4795 48.0086 13.4314C48.0691 13.3832 48.1171 13.321 48.1483 13.2502L48.3109 12.8804C48.3642 12.7595 48.4502 12.656 48.5591 12.5815C48.6681 12.5069 48.7957 12.4644 48.9276 12.4587C49.0594 12.4529 49.1903 12.4843 49.3053 12.5491C49.4203 12.6139 49.5149 12.7096 49.5784 12.8254L49.7723 13.1794C49.8095 13.2474 49.8626 13.3053 49.9271 13.3481C49.9917 13.3909 50.0656 13.4173 50.1427 13.4251L50.5438 13.4657C50.6752 13.479 50.8001 13.5288 50.9047 13.6095C51.0092 13.6902 51.089 13.7986 51.1352 13.9224C51.1814 14.0462 51.1921 14.1804 51.166 14.31C51.14 14.4395 51.0783 14.5592 50.9878 14.6554L50.7115 14.9495C50.6585 15.0058 50.6199 15.0743 50.5992 15.1489C50.5785 15.2235 50.5763 15.302 50.5927 15.3776L50.678 15.7725C50.7059 15.9016 50.6971 16.036 50.6527 16.1604C50.6084 16.2848 50.5301 16.3943 50.4268 16.4765C50.3235 16.5587 50.1993 16.6104 50.0682 16.6256C49.9372 16.6408 49.8044 16.6191 49.6851 16.5627L49.3203 16.3906C49.2503 16.3575 49.1733 16.3419 49.096 16.3452C49.0187 16.3485 48.9434 16.3707 48.8765 16.4097L48.5279 16.6129C48.4112 16.6813 48.2774 16.7148 48.1423 16.7095Z" fill="black"/>
<path opacity="0.2" d="M53.6817 16.5591C53.5839 16.5547 53.488 16.53 53.4002 16.4867C53.3124 16.4434 53.2344 16.3824 53.1713 16.3075C53.1082 16.2325 53.0613 16.1453 53.0335 16.0513C53.0057 15.9574 52.9976 15.8586 53.0098 15.7614L53.0606 15.3608C53.0703 15.2839 53.0612 15.2059 53.0341 15.1333C53.0071 15.0608 52.9628 14.9959 52.9051 14.9442L52.6045 14.6753C52.5061 14.5873 52.4342 14.4735 52.397 14.3467C52.3599 14.2199 52.3589 14.0852 52.3942 13.9579C52.4295 13.8306 52.4997 13.7157 52.5968 13.6262C52.6939 13.5367 52.8141 13.4763 52.9438 13.4516L53.3401 13.3763C53.416 13.3618 53.4874 13.3291 53.5479 13.281C53.6085 13.2328 53.6564 13.1707 53.6876 13.0998L53.8503 12.73C53.9035 12.6092 53.9895 12.5056 54.0984 12.4311C54.2074 12.3565 54.335 12.314 54.4669 12.3083C54.5987 12.3026 54.7296 12.3339 54.8446 12.3987C54.9596 12.4635 55.0542 12.5592 55.1177 12.675L55.3116 13.029C55.3488 13.097 55.4019 13.1549 55.4665 13.1977C55.531 13.2405 55.6049 13.2669 55.682 13.2748L56.0831 13.3153C56.2145 13.3286 56.3394 13.3784 56.444 13.4592C56.5485 13.5399 56.6283 13.6482 56.6745 13.772C56.7207 13.8958 56.7314 14.0301 56.7053 14.1596C56.6793 14.2891 56.6176 14.4088 56.5271 14.505L56.2508 14.7991C56.1978 14.8554 56.1592 14.9239 56.1386 14.9985C56.1179 15.0731 56.1156 15.1516 56.132 15.2273L56.2173 15.6221C56.2452 15.7513 56.2364 15.8856 56.192 16.01C56.1477 16.1344 56.0694 16.2439 55.9661 16.3261C55.8628 16.4083 55.7386 16.46 55.6075 16.4752C55.4765 16.4904 55.3437 16.4687 55.2244 16.4123L54.8596 16.2402C54.7896 16.2071 54.7127 16.1915 54.6353 16.1948C54.558 16.1981 54.4827 16.2203 54.4158 16.2593L54.0672 16.4625C53.9505 16.5309 53.8168 16.5644 53.6817 16.5591Z" fill="black"/>
<path d="M88.9725 63.8739L89.1346 60.2263C90.8238 59.3223 92.708 58.8449 94.6234 58.8353C91.9872 60.993 92.3167 65.1523 90.5294 68.0538C89.965 68.9545 89.2054 69.7165 88.3069 70.2834C87.4084 70.8502 86.394 71.2074 85.3388 71.3284L83.1327 72.6806C82.83 70.9912 82.8968 69.2562 83.3284 67.595C83.76 65.9339 84.5461 64.3862 85.6327 63.0586C86.2497 62.3198 86.9571 61.6618 87.7383 61.1C88.2667 62.4947 88.9725 63.8739 88.9725 63.8739Z" fill="#F2F2F2"/>
<path d="M101.62 73.0001H42.4909C42.4462 73.0001 42.4033 72.9823 42.3717 72.9506C42.34 72.919 42.3223 72.876 42.3223 72.8312C42.3223 72.7864 42.34 72.7435 42.3717 72.7118C42.4033 72.6801 42.4462 72.6624 42.4909 72.6624H101.62C101.665 72.6624 101.708 72.6801 101.739 72.7118C101.771 72.7435 101.789 72.7864 101.789 72.8312C101.789 72.876 101.771 72.919 101.739 72.9506C101.708 72.9823 101.665 73.0001 101.62 73.0001Z" fill="#CACACA"/>
</g>
<defs>
<clipPath id="clip0_4_929">
<rect width="101.789" height="73" fill="white"/>
</clipPath>
</defs>
</svg>
