<svg width="83" height="73" viewBox="0 0 83 73" fill="none" xmlns="http://www.w3.org/2000/svg">
<g clip-path="url(#clip0_4_928)">
<path d="M42.1277 42.5421L24.1747 42.8534C23.8913 42.8589 23.6096 42.8093 23.3457 42.7073C23.0818 42.6053 22.8409 42.453 22.6368 42.2592C22.4327 42.0653 22.2693 41.8336 22.1561 41.5774C22.043 41.3212 21.9821 41.0455 21.9771 40.7661C21.9722 40.4866 22.0231 40.209 22.1271 39.949C22.2311 39.6891 22.3861 39.4519 22.5831 39.251C22.7802 39.0502 23.0156 38.8896 23.2757 38.7786C23.5357 38.6675 23.8155 38.6082 24.0989 38.6039L42.052 38.2926C42.3196 38.288 42.5782 38.3884 42.7707 38.5717C42.9633 38.7551 43.0742 39.0063 43.0789 39.2702L43.1191 41.5296C43.1236 41.782 43.0307 42.0266 42.8591 42.214C42.6876 42.4013 42.4502 42.5174 42.1951 42.5387C42.1728 42.5406 42.1503 42.5417 42.1277 42.5421Z" fill="#4B93E7"/>
<path d="M38.6605 43.1196L23.9316 43.7825C23.7992 43.7885 23.6669 43.7687 23.5422 43.7242C23.4176 43.6798 23.303 43.6116 23.2051 43.5235C23.1072 43.4354 23.0279 43.3291 22.9716 43.2108C22.9154 43.0925 22.8833 42.9644 22.8773 42.8338L22.7214 39.467C22.7092 39.2033 22.8037 38.9457 22.9842 38.7507C23.1646 38.5558 23.4162 38.4395 23.6836 38.4274L38.4126 37.7645C38.545 37.7585 38.6773 37.7783 38.8019 37.8227C38.9266 37.8672 39.0411 37.9354 39.139 38.0235C39.2369 38.1116 39.3163 38.2178 39.3726 38.3362C39.4288 38.4545 39.4609 38.5826 39.4669 38.7132L39.6228 42.08C39.6344 42.3371 39.5447 42.5886 39.3724 42.782C39.2001 42.9753 38.9587 43.0954 38.6986 43.1172C38.686 43.1182 38.6733 43.119 38.6605 43.1196Z" fill="#2F2E41"/>
<path d="M13.7528 72.0048V53.1708C13.7531 52.907 13.8595 52.654 14.0488 52.4675C14.238 52.2809 14.4945 52.176 14.7621 52.1757H17.054C17.3216 52.176 17.5782 52.2809 17.7674 52.4675C17.9566 52.654 18.0631 52.907 18.0634 53.1708V72.0048C18.0631 72.2687 17.9566 72.5216 17.7674 72.7082C17.5782 72.8948 17.3216 72.9997 17.054 73H14.7621C14.4945 72.9997 14.238 72.8948 14.0488 72.7082C13.8595 72.5216 13.7531 72.2687 13.7528 72.0048Z" fill="#4B93E7"/>
<path d="M19.7672 72.0048V53.1708C19.7675 52.907 19.8739 52.654 20.0632 52.4675C20.2524 52.2809 20.5089 52.176 20.7765 52.1757H23.0684C23.336 52.176 23.5926 52.2809 23.7818 52.4675C23.971 52.654 24.0775 52.907 24.0778 53.1708V72.0048C24.0775 72.2687 23.971 72.5216 23.7818 72.7082C23.5926 72.8948 23.336 72.9997 23.0684 73H20.7765C20.5089 72.9997 20.2524 72.8948 20.0632 72.7082C19.874 72.5216 19.7675 72.2687 19.7672 72.0048Z" fill="#4B93E7"/>
<path d="M20.3657 32.5203C24.7394 32.5203 28.285 29.0244 28.285 24.712C28.285 20.3996 24.7394 16.9037 20.3657 16.9037C15.992 16.9037 12.4464 20.3996 12.4464 24.712C12.4464 29.0244 15.992 32.5203 20.3657 32.5203Z" fill="#4B93E7"/>
<path d="M24.6524 27.378C24.9071 27.2955 25.141 27.1601 25.3382 26.9811C25.4689 26.8532 25.5697 26.6987 25.6335 26.5284C25.6972 26.3581 25.7225 26.1761 25.7074 25.9952C25.6991 25.8663 25.6607 25.741 25.5952 25.6292C25.5297 25.5174 25.4388 25.422 25.3297 25.3505C25.0465 25.1714 24.6677 25.1708 24.2821 25.3384L24.2967 22.2902L23.9861 22.2887L23.9689 25.8722L24.2082 25.7238C24.4857 25.552 24.882 25.4311 25.162 25.6082C25.2312 25.655 25.2885 25.7169 25.3295 25.7891C25.3704 25.8613 25.394 25.9419 25.3982 26.0245C25.4087 26.1593 25.3896 26.2947 25.3422 26.4215C25.2949 26.5484 25.2204 26.6637 25.1237 26.7596C24.7808 27.0825 24.2805 27.1835 23.71 27.2738L23.7592 27.5761C24.0623 27.5365 24.3612 27.4702 24.6524 27.378Z" fill="#2F2E41"/>
<path d="M27.4981 22.1361L25.8398 22.3521L25.8805 22.6556L27.5387 22.4397L27.4981 22.1361Z" fill="#2F2E41"/>
<path d="M22.264 22.8175L20.6057 23.0334L20.6464 23.337L22.3046 23.1211L22.264 22.8175Z" fill="#2F2E41"/>
<path d="M3.56445 24.0955L14.9347 37.7977C15.1141 38.0137 15.2486 38.2624 15.3304 38.5296C15.4123 38.7968 15.44 39.0773 15.4118 39.355C15.3837 39.6328 15.3004 39.9024 15.1666 40.1484C15.0328 40.3944 14.8512 40.612 14.6321 40.7887C14.4129 40.9655 14.1607 41.0979 13.8896 41.1785C13.6186 41.2591 13.3341 41.2863 13.0524 41.2585C12.7707 41.2306 12.4973 41.1483 12.2479 41.0163C11.9984 40.8843 11.7778 40.7051 11.5987 40.489L0.228317 26.7868C0.144374 26.6856 0.0814565 26.5692 0.0431619 26.4441C0.00486737 26.319 -0.00805733 26.1876 0.00512778 26.0576C0.0183129 25.9276 0.0573473 25.8013 0.120004 25.6862C0.182662 25.571 0.267713 25.4692 0.370301 25.3864L2.1441 23.9554C2.3513 23.7883 2.61733 23.7091 2.8837 23.7354C3.15006 23.7617 3.39493 23.8912 3.56445 24.0955Z" fill="#4B93E7"/>
<path d="M7.35652 27.1537L16.6932 38.4052C16.7771 38.5063 16.84 38.6228 16.8783 38.7479C16.9166 38.873 16.9295 39.0043 16.9164 39.1344C16.9032 39.2644 16.8641 39.3906 16.8015 39.5058C16.7388 39.621 16.6538 39.7228 16.5512 39.8056L13.5214 42.2497C13.4189 42.3325 13.3008 42.3945 13.1739 42.4323C13.047 42.47 12.9138 42.4828 12.7819 42.4698C12.65 42.4568 12.522 42.4183 12.4052 42.3565C12.2884 42.2947 12.1851 42.2108 12.1011 42.1097L2.76444 30.8582C2.59522 30.6538 2.51514 30.3916 2.54176 30.1291C2.56838 29.8666 2.69952 29.6252 2.90643 29.4578L5.9362 27.0136C6.14339 26.8465 6.40942 26.7674 6.67577 26.7936C6.94213 26.8199 7.187 26.9494 7.35652 27.1537Z" fill="#2F2E41"/>
<path d="M72.0883 13.4753C71.9741 13.208 71.783 12.9796 71.5385 12.8183C71.294 12.657 71.007 12.5699 70.7128 12.5679H43.2573C42.8627 12.5681 42.4843 12.7228 42.2052 12.9979C41.9261 13.2731 41.7693 13.6462 41.769 14.0353V48.2822C41.7693 48.6713 41.9261 49.0445 42.2052 49.3196C42.4843 49.5948 42.8627 49.7494 43.2573 49.7496H70.7138C71.1084 49.7491 71.4866 49.5944 71.7656 49.3193C72.0446 49.0442 72.2016 48.6712 72.2021 48.2822V14.0353C72.2028 13.8431 72.1644 13.6527 72.0893 13.4753H72.0883ZM71.8706 48.2822C71.8702 48.5849 71.7481 48.875 71.5311 49.089C71.314 49.303 71.0198 49.4234 70.7128 49.4238H43.2573C42.9503 49.4237 42.6559 49.3035 42.4388 49.0894C42.2217 48.8754 42.0997 48.5851 42.0996 48.2824V14.0355C42.1 13.7329 42.2221 13.4428 42.4391 13.2288C42.6562 13.0148 42.9504 12.8944 43.2573 12.8939H70.7138C70.945 12.8948 71.1707 12.9636 71.3622 13.0915C71.5536 13.2194 71.702 13.4006 71.7885 13.6121C71.8053 13.6542 71.8198 13.6972 71.832 13.7408C71.8583 13.8369 71.8716 13.936 71.8716 14.0355L71.8706 48.2822Z" fill="#3F3D56"/>
<path d="M66.3588 20.6535H58.0888C58.0018 20.6536 57.9157 20.6368 57.8353 20.6041C57.7549 20.5714 57.6818 20.5233 57.6203 20.4627C57.5588 20.4022 57.5099 20.3302 57.4766 20.251C57.4433 20.1718 57.4261 20.0869 57.4261 20.0011C57.4261 19.9154 57.4433 19.8304 57.4766 19.7512C57.5099 19.672 57.5588 19.6001 57.6203 19.5395C57.6818 19.4789 57.7549 19.4308 57.8353 19.3981C57.9157 19.3654 58.0018 19.3486 58.0888 19.3488H66.3588C66.4458 19.3486 66.5319 19.3654 66.6123 19.3981C66.6927 19.4308 66.7657 19.4789 66.8273 19.5395C66.8888 19.6001 66.9377 19.672 66.971 19.7512C67.0043 19.8304 67.0214 19.9154 67.0214 20.0011C67.0214 20.0869 67.0043 20.1718 66.971 20.251C66.9377 20.3302 66.8888 20.4022 66.8273 20.4627C66.7657 20.5233 66.6927 20.5714 66.6123 20.6041C66.5319 20.6368 66.4458 20.6536 66.3588 20.6535Z" fill="#3F3D56"/>
<path d="M66.3588 24.0781H58.0888C58.0018 24.0783 57.9157 24.0615 57.8353 24.0288C57.7549 23.996 57.6818 23.948 57.6203 23.8874C57.5588 23.8268 57.5099 23.7549 57.4766 23.6757C57.4433 23.5965 57.4261 23.5115 57.4261 23.4258C57.4261 23.34 57.4433 23.2551 57.4766 23.1759C57.5099 23.0967 57.5588 23.0247 57.6203 22.9642C57.6818 22.9036 57.7549 22.8555 57.8353 22.8228C57.9157 22.7901 58.0018 22.7733 58.0888 22.7734H66.3588C66.4458 22.7733 66.5319 22.7901 66.6123 22.8228C66.6927 22.8555 66.7657 22.9036 66.8273 22.9642C66.8888 23.0247 66.9377 23.0967 66.971 23.1759C67.0043 23.2551 67.0214 23.34 67.0214 23.4258C67.0214 23.5115 67.0043 23.5965 66.971 23.6757C66.9377 23.7549 66.8888 23.8268 66.8273 23.8874C66.7657 23.948 66.6927 23.996 66.6123 24.0288C66.5319 24.0615 66.4458 24.0783 66.3588 24.0781Z" fill="#3F3D56"/>
<path d="M53.8455 26.0282H47.8018C47.6045 26.028 47.4153 25.9506 47.2757 25.813C47.1362 25.6754 47.0577 25.4888 47.0575 25.2943V18.2622C47.0577 18.0677 47.1362 17.8811 47.2757 17.7435C47.4153 17.6059 47.6045 17.5285 47.8018 17.5283H53.8455C54.0429 17.5285 54.2321 17.6059 54.3716 17.7435C54.5112 17.8811 54.5896 18.0677 54.5899 18.2622V25.2943C54.5896 25.4888 54.5112 25.6754 54.3716 25.813C54.2321 25.9506 54.0429 26.028 53.8455 26.0282Z" fill="#4B93E7"/>
<path d="M66.3014 31.0906H47.6113C47.4359 31.0906 47.2676 31.0219 47.1435 30.8995C47.0194 30.7772 46.9497 30.6113 46.9497 30.4382C46.9497 30.2652 47.0194 30.0993 47.1435 29.977C47.2676 29.8546 47.4359 29.7859 47.6113 29.7859H66.3014C66.4769 29.7859 66.6452 29.8546 66.7693 29.977C66.8934 30.0993 66.9631 30.2652 66.9631 30.4382C66.9631 30.6113 66.8934 30.7772 66.7693 30.8995C66.6452 31.0219 66.4769 31.0906 66.3014 31.0906Z" fill="#CCCCCC"/>
<path d="M66.3014 34.5153H47.6113C47.436 34.515 47.268 34.4462 47.1441 34.3238C47.0203 34.2015 46.9507 34.0358 46.9507 33.8629C46.9507 33.6901 47.0203 33.5243 47.1441 33.402C47.268 33.2797 47.436 33.2108 47.6113 33.2106H66.3014C66.3884 33.2104 66.4745 33.2272 66.5549 33.2599C66.6353 33.2927 66.7083 33.3407 66.7699 33.4013C66.8314 33.4619 66.8803 33.5338 66.9136 33.613C66.9469 33.6923 66.964 33.7772 66.964 33.8629C66.964 33.9487 66.9469 34.0336 66.9136 34.1128C66.8803 34.192 66.8314 34.264 66.7699 34.3246C66.7083 34.3852 66.6353 34.4332 66.5549 34.4659C66.4745 34.4986 66.3884 34.5154 66.3014 34.5153Z" fill="#CCCCCC"/>
<path d="M66.3014 37.94H47.6113C47.436 37.9397 47.268 37.8708 47.1441 37.7485C47.0203 37.6262 46.9507 37.4604 46.9507 37.2876C46.9507 37.1148 47.0203 36.949 47.1441 36.8267C47.268 36.7044 47.436 36.6355 47.6113 36.6353H66.3014C66.3884 36.6351 66.4745 36.6519 66.5549 36.6846C66.6353 36.7173 66.7083 36.7654 66.7699 36.826C66.8314 36.8866 66.8803 36.9585 66.9136 37.0377C66.9469 37.1169 66.964 37.2018 66.964 37.2876C66.964 37.3734 66.9469 37.4583 66.9136 37.5375C66.8803 37.6167 66.8314 37.6887 66.7699 37.7492C66.7083 37.8098 66.6353 37.8579 66.5549 37.8906C66.4745 37.9233 66.3884 37.9401 66.3014 37.94Z" fill="#CCCCCC"/>
<path d="M66.3014 41.3648H47.6113C47.436 41.3645 47.268 41.2956 47.1441 41.1733C47.0203 41.051 46.9507 40.8853 46.9507 40.7124C46.9507 40.5396 47.0203 40.3738 47.1441 40.2515C47.268 40.1292 47.436 40.0603 47.6113 40.0601H66.3014C66.3884 40.0599 66.4745 40.0767 66.5549 40.1094C66.6353 40.1422 66.7083 40.1902 66.7699 40.2508C66.8314 40.3114 66.8803 40.3833 66.9136 40.4625C66.9469 40.5417 66.964 40.6267 66.964 40.7124C66.964 40.7982 66.9469 40.8831 66.9136 40.9623C66.8803 41.0415 66.8314 41.1135 66.7699 41.174C66.7083 41.2346 66.6353 41.2827 66.5549 41.3154C66.4745 41.3481 66.3884 41.3649 66.3014 41.3648Z" fill="#CCCCCC"/>
<path d="M66.3014 44.7894H47.6113C47.436 44.7892 47.268 44.7203 47.1441 44.598C47.0203 44.4757 46.9507 44.3099 46.9507 44.1371C46.9507 43.9643 47.0203 43.7985 47.1441 43.6762C47.268 43.5539 47.436 43.485 47.6113 43.4847H66.3014C66.3884 43.4846 66.4745 43.5014 66.5549 43.5341C66.6353 43.5668 66.7083 43.6149 66.7699 43.6754C66.8314 43.736 66.8803 43.808 66.9136 43.8872C66.9469 43.9664 66.964 44.0513 66.964 44.1371C66.964 44.2228 66.9469 44.3078 66.9136 44.387C66.8803 44.4662 66.8314 44.5381 66.7699 44.5987C66.7083 44.6593 66.6353 44.7074 66.5549 44.7401C66.4745 44.7728 66.3884 44.7896 66.3014 44.7894Z" fill="#CCCCCC"/>
<path d="M72.8873 18.6778C78.1183 18.6778 82.3589 14.4966 82.3589 9.33888C82.3589 4.18116 78.1183 0 72.8873 0C67.6562 0 63.4156 4.18116 63.4156 9.33888C63.4156 14.4966 67.6562 18.6778 72.8873 18.6778Z" fill="#4B93E7"/>
<path d="M72.704 15.7671C73.3195 15.7671 73.8184 15.2751 73.8184 14.6682C73.8184 14.0613 73.3195 13.5693 72.704 13.5693C72.0885 13.5693 71.5895 14.0613 71.5895 14.6682C71.5895 15.2751 72.0885 15.7671 72.704 15.7671Z" fill="white"/>
<path d="M72.5846 3.20187C71.7445 3.21009 70.9407 3.54125 70.3444 4.12489C69.7481 4.70852 69.4064 5.49855 69.3919 6.32686C69.3917 6.34271 69.3916 6.45419 69.3916 6.6C69.3916 6.81379 69.4778 7.01882 69.6311 7.16999C69.7844 7.32117 69.9923 7.40611 70.2091 7.40614C70.4261 7.40609 70.6342 7.32106 70.7876 7.16974C70.941 7.01843 71.0272 6.81323 71.0271 6.59929V6.59876C71.027 6.49958 71.027 6.43093 71.027 6.42671C71.0269 6.16131 71.0969 5.90047 71.2301 5.66985C71.3633 5.43922 71.5551 5.24675 71.7866 5.11138C72.0182 4.976 72.2814 4.90238 72.5506 4.89776C72.8197 4.89314 73.0854 4.95767 73.3216 5.08502C73.5577 5.21236 73.7562 5.39813 73.8975 5.62404C74.0387 5.84996 74.1179 6.10824 74.1272 6.37348C74.1366 6.63872 74.0757 6.90178 73.9506 7.13679C73.8255 7.3718 73.6406 7.57066 73.4139 7.7138L73.4142 7.71414C73.4142 7.71414 72.2506 8.45277 71.8958 9.46601L71.8961 9.46608C71.8337 9.67365 71.8021 9.88903 71.8023 10.1055C71.8023 10.1945 71.8076 10.9732 71.8178 11.6052C71.8214 11.8232 71.9118 12.0312 72.0695 12.1841C72.2272 12.3371 72.4395 12.4227 72.6607 12.4227C72.7714 12.4227 72.8811 12.4012 72.9833 12.3594C73.0856 12.3176 73.1786 12.2564 73.2568 12.1792C73.3351 12.102 73.3972 12.0104 73.4396 11.9095C73.4819 11.8087 73.5037 11.7006 73.5037 11.5914L73.5037 11.5863C73.5001 11.0076 73.4982 10.3336 73.4982 10.2847C73.4982 9.66252 74.107 9.04262 74.607 8.63836C75.1858 8.17618 75.5926 7.53761 75.7636 6.82287C75.8004 6.67554 75.8207 6.52466 75.8241 6.37296C75.8241 5.95652 75.7409 5.54415 75.5793 5.15941C75.4177 4.77466 75.1807 4.42507 74.8821 4.1306C74.5834 3.83613 74.2289 3.60254 73.8387 3.44317C73.4484 3.28381 73.0302 3.20178 72.6078 3.20178C72.6001 3.20178 72.5924 3.20181 72.5846 3.20187Z" fill="white"/>
<path d="M18.3805 21.2572C19.7984 20.3382 21.5804 20.7516 23.1563 20.8717C24.5802 20.9802 26.268 20.8733 27.2695 19.7262C28.3115 18.5328 28.2244 16.7609 27.3617 15.4987C26.5126 14.2562 25.1031 13.4717 23.612 13.2649C22.7858 13.1455 21.9435 13.1971 21.1386 13.4162C20.3338 13.6354 19.584 14.0173 18.937 14.5378L19.4438 14.7448C19.1485 11.961 17.0726 9.44441 14.2874 8.76179C11.4695 8.07112 8.31808 9.24987 6.81464 11.7272C5.33249 14.1695 5.50807 17.5775 7.64147 19.6071C8.66601 20.5818 10.0597 21.0784 11.474 20.8134C12.7784 20.569 13.9374 19.6315 14.1815 18.3075C14.4078 17.0802 13.9135 15.6861 12.7027 15.1501C12.3714 14.9977 12.0093 14.9216 11.6438 14.9273C11.2783 14.9331 10.9188 15.0206 10.5926 15.1833C10.2972 15.3472 10.0476 15.5807 9.86605 15.863C9.68455 16.1454 9.57685 16.4676 9.55258 16.801C9.53 17.1238 9.59669 17.4465 9.74552 17.7348C9.9136 18.0731 10.4258 17.7768 10.2582 17.4394C10.1499 17.1913 10.1191 16.917 10.1698 16.6516C10.2205 16.3862 10.3503 16.1417 10.5426 15.9495C10.9827 15.4961 11.6775 15.4208 12.2623 15.6062C13.3325 15.9453 13.805 17.1558 13.6033 18.1826C13.3774 19.3328 12.3816 20.0719 11.2477 20.2611C10.0146 20.4669 8.81203 19.9535 7.95604 19.09C6.16336 17.2817 6.00823 14.3692 7.21752 12.2109C8.4443 10.0215 11.0612 8.84582 13.5538 9.21308C16.0186 9.57624 18.0485 11.4877 18.681 13.8447C18.7608 14.14 18.8173 14.4409 18.8501 14.7448C18.8521 14.8017 18.8707 14.8569 18.9036 14.9038C18.9366 14.9506 18.9825 14.9871 19.0359 15.0089C19.0894 15.0308 19.148 15.037 19.2049 15.0268C19.2618 15.0167 19.3146 14.9906 19.3568 14.9517C21.463 13.2271 24.966 13.4121 26.693 15.5817C27.5399 16.6458 27.7895 18.2981 26.8005 19.3669C25.8588 20.3847 24.2949 20.3857 23.0087 20.2742C21.3634 20.1316 19.5546 19.7964 18.0808 20.7517C17.7628 20.9578 18.0599 21.465 18.3805 21.2572Z" fill="#2F2E41"/>
<path d="M24.7664 59.7386H12.8916C12.6555 59.7384 12.4291 59.6458 12.2621 59.4811C12.0951 59.3165 12.0012 59.0933 12.001 58.8605V54.9577C12.0012 54.7249 12.0951 54.5017 12.2621 54.3371C12.4291 54.1724 12.6555 54.0798 12.8916 54.0796H24.7664C25.0025 54.0798 25.2289 54.1724 25.3958 54.3371C25.5628 54.5017 25.6567 54.7249 25.657 54.9577V58.8605C25.6567 59.0933 25.5628 59.3165 25.3958 59.4811C25.2289 59.6458 25.0025 59.7384 24.7664 59.7386Z" fill="#2F2E41"/>
<path d="M25.1721 40.497C24.8003 38.6223 23.3563 37.1377 21.4822 36.5272C22.159 36.3125 22.5893 35.9946 22.5893 35.639C22.5893 34.9923 21.1715 34.4681 19.4227 34.4681C17.6738 34.4681 16.2561 34.9923 16.2561 35.639C16.2561 35.9998 16.6981 36.3221 17.392 36.5369C14.5188 37.3815 12.4332 39.8471 12.4332 42.7504C12.4332 42.7504 11.5488 48.3409 10.8543 52.8097C10.4101 55.6686 12.8376 58.224 15.9967 58.224H27.1073C27.8351 58.224 28.4272 57.6828 28.4272 57.0175C28.4272 57.0175 26.3798 46.5868 25.1721 40.497Z" fill="#2F2E41"/>
</g>
<defs>
<clipPath id="clip0_4_928">
<rect width="82.359" height="73" fill="white"/>
</clipPath>
</defs>
</svg>
