<svg width="100" height="73" viewBox="0 0 100 73" fill="none" xmlns="http://www.w3.org/2000/svg">
<g clip-path="url(#clip0_4_927)">
<path d="M97.3504 31.8149C97.3782 31.3904 96.3781 31.1832 96.4235 30.8117C96.4688 30.4416 97.4776 30.5185 98.544 29.85C98.7363 29.7294 99.9483 28.9696 99.8301 28.3996C99.6061 27.3191 94.8006 27.8706 94.3328 26.2988C94.2302 25.9538 94.3256 25.47 94.0425 24.3858C93.9299 23.9545 93.8364 23.7306 93.6455 23.66C93.3746 23.5597 93.1442 23.8555 92.4791 24.2925C91.4818 24.9478 91.2995 24.7429 90.5839 25.3203C90.0526 25.749 89.874 26.0871 89.6427 26.0189C89.3154 25.9225 89.4616 25.1833 89.0869 25.0028C88.7044 24.8187 88.0376 25.3408 87.6289 25.7935C86.8621 26.643 86.7826 27.4945 86.5277 28.2729C86.2507 29.1189 85.6369 30.2742 84.1144 31.4639L70.2157 41.5372C73.1415 39.5206 81.3236 34.1026 84.5114 32.1897C85.4317 31.6375 86.3982 31.1 87.4533 31.3472C88.4692 31.5852 89.4448 32.522 91.0826 33.1435C91.2739 33.2161 91.8089 33.4114 92.0498 33.1836C92.2489 32.9954 92.0656 32.6895 92.2489 32.511C92.4948 32.2715 93.0241 32.6275 93.8917 32.7494C94.5035 32.8354 94.9724 32.7613 95.3757 32.6975C95.4973 32.6783 97.3133 32.3799 97.3504 31.8149Z" fill="#F2F2F2"/>
<path d="M73.8666 26.0931C73.6654 25.957 73.2747 26.386 73.1047 26.2566C72.9353 26.1277 73.2643 25.6569 73.2424 24.9429C73.2385 24.8141 73.2137 24.0026 72.8985 23.8959C72.3013 23.6936 71.1866 26.2011 70.2768 25.9761C70.0772 25.9268 69.8662 25.7406 69.25 25.566C69.0049 25.4966 68.8676 25.4777 68.7777 25.5507C68.6501 25.6541 68.7295 25.8521 68.753 26.3031C68.7883 26.9796 68.6346 27.0095 68.7128 27.5259C68.7708 27.9092 68.8859 28.094 68.7856 28.1873C68.6436 28.3195 68.3214 28.0347 68.1243 28.1658C67.9232 28.2996 67.9882 28.7761 68.0934 29.1064C68.291 29.7262 68.6877 30.0107 68.9979 30.3599C69.335 30.7394 69.7274 31.3727 69.8746 32.46L70.8299 42.1584C70.68 40.1468 70.3701 34.5851 70.3469 32.4754C70.3403 31.8663 70.3541 31.2389 70.7805 30.7946C71.1909 30.3669 71.9342 30.1604 72.7131 29.5394C72.8041 29.4668 73.0547 29.2617 73.0119 29.0783C72.9766 28.9267 72.7729 28.928 72.7378 28.7869C72.6907 28.5977 73.0189 28.4417 73.3293 28.0529C73.5482 27.7788 73.647 27.5282 73.732 27.3128C73.7576 27.2478 74.1344 26.2742 73.8666 26.0931Z" fill="#F2F2F2"/>
<path d="M77.2545 29.718L77.8728 28.5609L77.9841 28.5171C78.4989 28.3147 78.8822 28.0357 79.124 27.6875C79.1624 27.6322 79.198 27.5749 79.2343 27.5165C79.3781 27.2853 79.5567 26.9977 79.9261 26.7724C80.1325 26.6471 80.6507 26.3846 80.9605 26.6721C81.0446 26.7485 81.0857 26.839 81.1049 26.9253C81.1213 26.9182 81.1379 26.9112 81.1558 26.9036C81.3758 26.8135 81.5092 26.8016 81.6377 26.7901C81.7365 26.7812 81.8384 26.7722 82.0276 26.7152C82.1106 26.6903 82.1791 26.6653 82.2367 26.6444C82.4114 26.5814 82.6299 26.5131 82.834 26.656C83.0467 26.8164 83.0373 27.076 83.0312 27.2479C83.0205 27.5547 82.9762 27.7509 82.9468 27.881C82.936 27.9285 82.924 27.9821 82.9237 28.0009C82.9231 28.153 83.566 28.4489 83.8073 28.5616C84.3506 28.8131 84.8206 29.0307 84.7838 29.4554C84.7578 29.7593 84.4661 29.9858 83.8927 30.1459C83.7142 30.1957 83.5487 30.2132 83.4081 30.2194C83.4535 30.3175 83.4741 30.4345 83.4263 30.5635C83.3128 30.8688 82.9084 30.9764 82.2239 30.8847C82.0536 30.8623 81.8249 30.8314 81.5583 30.7098C81.4328 30.6524 81.3285 30.5881 81.2402 30.5317C81.2041 30.5803 81.1552 30.6263 81.0866 30.661C80.8847 30.7635 80.6452 30.7144 80.3776 30.5046C80.0802 30.2781 79.8665 30.0462 79.6777 29.842C79.5127 29.6639 79.3702 29.5111 79.2317 29.4296C78.9727 29.282 78.649 29.3486 78.2524 29.4509L77.2545 29.718Z" fill="#F2F2F2"/>
<path d="M82.2166 23.7021L80.9357 23.4001L80.8649 23.304C80.5377 22.8596 80.1694 22.5612 79.7699 22.4166C79.7063 22.3937 79.6417 22.3739 79.5758 22.3537C79.3146 22.2739 78.99 22.1748 78.6774 21.8762C78.5033 21.7092 78.1168 21.2767 78.3176 20.9054C78.3705 20.805 78.448 20.7425 78.5269 20.7022C78.5158 20.6882 78.5049 20.6739 78.4929 20.6587C78.3496 20.4696 78.3042 20.3441 78.2604 20.2233C78.2267 20.1304 78.1921 20.0346 78.0888 19.8668C78.0435 19.7932 78.0019 19.7336 77.9669 19.6833C77.8614 19.5311 77.7396 19.338 77.8268 19.1052C77.9286 18.8596 78.1832 18.8028 78.3518 18.7651C78.6525 18.6977 78.8543 18.6905 78.9882 18.6858C79.0371 18.6842 79.0922 18.6822 79.1106 18.6777C79.2585 18.6396 79.3828 17.9454 79.4311 17.6844C79.5377 17.0974 79.6299 16.5895 80.0518 16.5172C80.3537 16.4653 80.6476 16.6887 80.9487 17.2003C81.0423 17.3596 81.1012 17.5146 81.143 17.6485C81.2268 17.5798 81.3352 17.5303 81.4726 17.5436C81.798 17.5755 82.0051 17.9377 82.0896 18.6202C82.1111 18.7899 82.1391 19.018 82.0886 19.3056C82.0646 19.441 82.0287 19.5578 81.9963 19.6571C82.0526 19.6796 82.1097 19.715 82.1608 19.7723C82.3116 19.9407 82.3247 20.1838 82.1887 20.4947C82.0441 20.8387 81.873 21.1033 81.7225 21.3369C81.5914 21.541 81.4791 21.717 81.4351 21.871C81.3573 22.1579 81.5041 22.4528 81.7041 22.8088L82.2166 23.7021Z" fill="#F2F2F2"/>
<path d="M83.8335 20.1539L84.4518 18.9968L84.5631 18.953C85.0778 18.7506 85.4612 18.4716 85.703 18.1234C85.7414 18.0681 85.777 18.0108 85.8133 17.9524C85.9571 17.7212 86.1357 17.4337 86.5051 17.2083C86.7115 17.0831 87.2297 16.8205 87.5395 17.108C87.6236 17.1844 87.6647 17.275 87.6839 17.3612C87.7003 17.3541 87.7169 17.3471 87.7348 17.3395C87.9548 17.2494 88.0882 17.2375 88.2167 17.226C88.3155 17.2171 88.4174 17.2081 88.6066 17.1512C88.6896 17.1262 88.7581 17.1012 88.8157 17.0803C88.9904 17.0173 89.2089 16.949 89.4129 17.092C89.6257 17.2523 89.6163 17.5119 89.6102 17.6839C89.5994 17.9906 89.5552 18.1868 89.5258 18.3169C89.5149 18.3644 89.503 18.418 89.5026 18.4368C89.5021 18.5889 90.145 18.8848 90.3863 18.9975C90.9295 19.249 91.3996 19.4667 91.3628 19.8913C91.3367 20.1952 91.0451 20.4217 90.4717 20.5818C90.2932 20.6316 90.1276 20.6491 89.987 20.6553C90.0325 20.7534 90.0531 20.8704 90.0053 20.9994C89.8918 21.3047 89.4874 21.4123 88.8029 21.3206C88.6326 21.2982 88.4039 21.2673 88.1373 21.1457C88.0118 21.0883 87.9074 21.024 87.8192 20.9676C87.7831 21.0162 87.7342 21.0622 87.6655 21.0969C87.4637 21.1994 87.2241 21.1504 86.9566 20.9405C86.6592 20.714 86.4454 20.4821 86.2567 20.2779C86.0917 20.0999 85.9492 19.947 85.8107 19.8656C85.5517 19.7179 85.228 19.7845 84.8314 19.8869L83.8335 20.1539Z" fill="#F2F2F2"/>
<path d="M70.5892 41.7661L70.4601 41.4707L70.1757 41.321C70.1883 41.2937 70.2125 41.2279 70.2512 41.1255C70.4637 40.5645 71.1097 38.8569 72.3935 36.3494C73.2898 34.599 74.3081 32.8655 75.4204 31.1962C76.5346 29.5242 77.4753 28.3248 78.2311 27.3606C78.8013 26.6335 79.3568 25.9496 79.8983 25.2837C81.3444 23.5042 82.7101 21.8232 83.9583 19.7822C84.2371 19.3268 84.8172 18.3784 84.95 17.0389C85.027 16.262 84.9429 15.4683 84.6994 14.6803L85.3182 14.4908C85.5864 15.3613 85.679 16.2401 85.5936 17.1028C85.4463 18.5879 84.8143 19.6213 84.5107 20.1178C83.2404 22.1948 81.8613 23.8919 80.4012 25.6884C79.862 26.3521 79.3087 27.0328 78.7409 27.757C77.992 28.7122 77.0596 29.9013 75.9598 31.5518C74.8605 33.2011 73.8548 34.9134 72.9696 36.6416C71.7021 39.1176 71.0659 40.7999 70.8568 41.3525C70.745 41.6475 70.7216 41.7093 70.5892 41.7661Z" fill="#F2F2F2"/>
<path d="M83.14 14.8571C83.1181 14.8422 83.0963 14.8265 83.075 14.8097C82.6373 14.4754 82.4028 13.9176 82.3776 13.1518C82.3663 12.792 82.4643 12.457 82.6596 11.7891C82.6896 11.686 82.8475 11.1671 83.1688 10.5241C83.3787 10.1038 83.4957 9.94811 83.6695 9.85852C83.8627 9.75853 84.0754 9.74199 84.2807 9.77298C84.3089 9.71751 84.3505 9.66883 84.4094 9.63049C84.6527 9.47095 84.8746 9.6649 84.9957 9.76812C85.0562 9.82155 85.1313 9.88878 85.2236 9.94488C85.3685 10.0337 85.4723 10.0436 85.6293 10.0591C85.7795 10.0739 85.9663 10.0923 86.1959 10.1887C86.6498 10.377 86.9054 10.716 86.9898 10.8276C87.4353 11.4127 87.4125 12.0535 87.386 12.7954C87.3803 12.9439 87.3458 13.4754 87.1384 14.0947C86.9887 14.5415 86.8594 14.6973 86.7422 14.7987C86.502 15.0077 86.247 15.0472 85.6327 15.0994C84.9905 15.1547 84.6685 15.1821 84.421 15.1635C83.8454 15.1193 83.4839 15.0916 83.14 14.8571Z" fill="#F2F2F2"/>
<path d="M80.59 0H44.33C42.9998 0 41.9182 1.07692 41.9182 2.4013V39.6404C41.9182 40.9648 42.9998 42.0417 44.33 42.0417H80.59C81.9202 42.0417 83.0018 40.9648 83.0018 39.6404V2.4013C83.0018 1.07692 81.9202 0 80.59 0ZM82.7482 39.6404C82.7482 40.8272 81.7819 41.7892 80.59 41.7892H44.33C43.1381 41.7892 42.1718 40.8272 42.1718 39.6404V2.4013C42.1718 1.21455 43.1381 0.252503 44.33 0.252503H63.5368C74.147 0.252503 82.7482 8.81644 82.7482 19.3806V39.6404Z" fill="#506DB8"/>
<path d="M41.1507 27.988C39.8798 28.33 39.0269 29.2602 39.2456 30.0654C39.4644 30.8707 40.6718 31.246 41.9431 30.9037C42.4528 30.7739 42.9239 30.5244 43.317 30.1762L48.6834 28.6593L47.9148 26.1671L42.706 27.9271C42.1901 27.8234 41.6568 27.8443 41.1507 27.988Z" fill="#FFB6B6"/>
<path d="M63.6393 20.511C63.6393 20.511 65.1544 22.7239 61.7398 24.3933C58.3252 26.0626 52.0132 28.4452 52.0132 28.4452L43.2981 30.4555L41.9821 27.5827L52.3234 24.7773L60.7501 20.095L63.6393 20.511Z" fill="#506DB8"/>
<path d="M62.6256 14.6208C62.5868 15.6698 63.3453 16.915 64.1472 16.9406C65.1118 16.9713 69.6723 17.2947 69.8189 16.9181C70.8368 14.3033 66.043 8.87918 64.9624 8.7227C64.3817 8.63862 63.6864 9.46875 63.419 10.154C63.0444 11.1144 63.5973 11.5673 63.2852 12.8611C63.0473 13.8476 62.6527 13.8875 62.6256 14.6208Z" fill="#082777"/>
<path d="M54.6873 55.9723L51.4866 56.7026L54.7027 66.2043L56.8717 65.7096L54.6873 55.9723Z" fill="#FFB6B6"/>
<path d="M53.5436 63.2411L54.7816 63.4219L54.9724 64.0822C54.9724 64.0822 55.0137 63.2423 56.3809 62.6667L56.7363 63.2577C56.7363 63.2577 57.4682 63.7266 57.7048 64.8889L58.23 68.0327L57.1552 68.3166L56.3664 66.2512C56.3664 66.2512 55.9325 65.8562 55.2421 68.5282C55.2421 68.5282 54.9626 69.4262 52.4267 69.3222C52.0781 69.3079 51.7714 69.0764 51.6784 68.7416C51.6271 68.5569 51.6498 68.3659 51.8638 68.2379C52.4087 67.9121 53.0423 67.9427 53.2867 67.3636C53.5312 66.7846 53.5436 63.2411 53.5436 63.2411Z" fill="#082777"/>
<path d="M61.6409 60.2923L58.7827 60.2219L59.1828 70.2273L61.4076 70.2668L61.6409 60.2923Z" fill="#FFB6B6"/>
<path d="M58.7739 67.0735L59.9318 67.5456L59.9574 68.2321C59.9574 68.2321 60.2005 67.4269 61.6666 67.1958L61.8688 67.8546C61.8688 67.8546 62.4659 68.4851 62.4145 69.6699L62.1645 72.8471L61.0526 72.8651L60.7862 70.6715C60.7862 70.6715 60.4605 70.1841 59.1446 72.6122C59.1446 72.6122 58.6563 73.4168 56.22 72.7082C55.8852 72.6108 55.6434 72.3126 55.6341 71.9654C55.6289 71.7738 55.6971 71.5938 55.9358 71.5209C56.5433 71.3353 57.151 71.5167 57.5282 71.0133C57.9054 70.5098 58.7739 67.0735 58.7739 67.0735Z" fill="#082777"/>
<path d="M67.5389 49.3638L52.4225 48.1992L56.6764 30.8357L66.8542 29.3756L67.5389 49.3638Z" fill="#082777"/>
<path d="M65.4541 17.447L68.6392 15.7576L71.2111 18.7812L66.0428 35.2746L56.5886 31.1065L63.7694 18.8836L65.4541 17.447Z" fill="#4B93E7"/>
<path d="M65.8579 32.2967C65.8579 32.2967 66.8721 37.5038 63.7314 40.2102L62.7701 43.2534L61.732 48.8705L61.826 63.3782L58.0219 62.9995L56.5003 49.1123L56.4822 42.2007L50.8663 46.9891L56.7437 58.4829L51.9546 60.5709L46.1054 46.72C45.699 45.8762 45.8074 44.8761 46.3852 44.1381L56.5887 31.1066L65.8579 32.2967Z" fill="#082777"/>
<path d="M69.8012 17.1235L63.5564 22.9242C62.0785 34.865 62.8853 45.8295 67.1376 55.3217L77.6314 50.4792C68.9784 47.8661 69.827 33.5181 71.5059 18.1446L69.8012 17.1235Z" fill="#506DB8"/>
<path d="M64.4157 18.9027L65.3763 17.4227L60.0631 20.5329L55.8617 32.1255L63.6121 22.4955L64.4157 18.9027Z" fill="#506DB8"/>
<path d="M77.7064 40.708C78.0726 41.967 79.0219 42.7995 79.8266 42.5673C80.6314 42.3351 80.9867 41.1264 80.6202 39.867C80.4807 39.3619 80.2218 38.8974 79.865 38.5123L78.2458 33.1971L75.7568 34.0069L77.6174 39.1607C77.5225 39.6762 77.5531 40.2067 77.7064 40.708Z" fill="#FFB6B6"/>
<path d="M69.5586 18.2684C69.5586 18.2684 71.7367 16.6969 73.5108 20.0474C75.2848 23.3978 77.8582 29.6113 77.8582 29.6113L80.1269 38.2273L77.2805 39.6197L74.167 29.4081L69.224 21.1558L69.5586 18.2684Z" fill="#506DB8"/>
<path d="M66.9686 15.6216C68.9221 15.6216 70.5058 14.0448 70.5058 12.0997C70.5058 10.1547 68.9221 8.57788 66.9686 8.57788C65.0151 8.57788 63.4314 10.1547 63.4314 12.0997C63.4314 14.0448 65.0151 15.6216 66.9686 15.6216Z" fill="#FFB6B6"/>
<path d="M66.9803 10.7257C66.7811 10.7062 66.6788 10.9158 65.9184 11.2083C65.649 11.3119 65.5111 11.3639 65.3529 11.374C64.8719 11.4048 64.498 11.1403 64.2482 10.9635C63.8421 10.6762 63.5805 10.4911 63.5294 10.1952C63.4628 9.80901 63.9018 9.37764 64.7827 8.53068C65.214 8.11589 65.4769 7.86535 65.899 7.56715C66.6069 7.06699 66.9609 6.81691 67.4571 6.76783C68.1143 6.70285 68.614 7.01511 69.335 7.4657C69.5298 7.58743 69.8106 7.64597 70.1083 7.66827C71.0829 7.7413 71.9184 8.38808 72.1835 9.32473C72.2037 9.3963 72.2208 9.46107 72.2335 9.51653C72.7567 11.7908 72.6107 14.1563 71.8947 16.3778C71.8755 16.4376 71.8593 16.4933 71.8469 16.5441C71.5142 17.897 66.9452 18.4244 66.4108 17.2806C66.0743 16.5604 67.647 15.8398 67.8818 13.6922C68.0453 12.1972 67.4769 10.7745 66.9803 10.7257Z" fill="#082777"/>
<path d="M53.2035 11.5209H14.8776V11.7165H53.2035V11.5209Z" fill="#E6E6E6"/>
<path d="M47.7928 8.66082H20.2882C19.8549 8.66082 19.5023 8.30982 19.5023 7.87839C19.5023 7.44696 19.8549 7.09595 20.2882 7.09595H47.7928C48.2261 7.09595 48.5786 7.44696 48.5786 7.87839C48.5786 8.30982 48.2261 8.66082 47.7928 8.66082Z" fill="#E6E6E6"/>
<path d="M14.9625 13.0775C15.8729 13.0775 16.6109 12.3426 16.6109 11.4362C16.6109 10.5297 15.8729 9.79492 14.9625 9.79492C14.0521 9.79492 13.3141 10.5297 13.3141 11.4362C13.3141 12.3426 14.0521 13.0775 14.9625 13.0775Z" fill="#E6E6E6"/>
<path d="M20.0345 9.54242C20.9449 9.54242 21.6829 8.8076 21.6829 7.90116C21.6829 6.99471 20.9449 6.25989 20.0345 6.25989C19.1241 6.25989 18.3861 6.99471 18.3861 7.90116C18.3861 8.8076 19.1241 9.54242 20.0345 9.54242Z" fill="#E6E6E6"/>
<path d="M40.2697 29.8273H1.94385V30.0229H40.2697V29.8273Z" fill="#506DB8"/>
<path d="M34.8592 26.9673H7.35457C6.92126 26.9673 6.56873 26.6163 6.56873 26.1849C6.56873 25.7535 6.92126 25.4025 7.35457 25.4025H34.8592C35.2925 25.4025 35.645 25.7535 35.645 26.1849C35.645 26.6163 35.2925 26.9673 34.8592 26.9673Z" fill="#4B93E7"/>
<path d="M1.64841 31.384C2.55881 31.384 3.29683 30.6492 3.29683 29.7427C3.29683 28.8363 2.55881 28.1014 1.64841 28.1014C0.73802 28.1014 0 28.8363 0 29.7427C0 30.6492 0.73802 31.384 1.64841 31.384Z" fill="#4B93E7"/>
<path d="M6.72044 27.8489C7.63083 27.8489 8.36885 27.1141 8.36885 26.2077C8.36885 25.3012 7.63083 24.5664 6.72044 24.5664C5.81004 24.5664 5.07202 25.3012 5.07202 26.2077C5.07202 27.1141 5.81004 27.8489 6.72044 27.8489Z" fill="#4B93E7"/>
<path d="M44.8346 50.0275H6.50867V50.2231H44.8346V50.0275Z" fill="#E6E6E6"/>
<path d="M39.424 47.1677H11.9194C11.4861 47.1677 11.1335 46.8166 11.1335 46.3852C11.1335 45.9538 11.4861 45.6028 11.9194 45.6028H39.424C39.8573 45.6028 40.2098 45.9538 40.2098 46.3852C40.2098 46.8166 39.8573 47.1677 39.424 47.1677Z" fill="#E6E6E6"/>
<path d="M11.1584 47.9229C12.0688 47.9229 12.8068 47.1881 12.8068 46.2816C12.8068 45.3752 12.0688 44.6404 11.1584 44.6404C10.248 44.6404 9.51001 45.3752 9.51001 46.2816C9.51001 47.1881 10.248 47.9229 11.1584 47.9229Z" fill="#E6E6E6"/>
<path d="M6.21323 51.7105C7.12363 51.7105 7.86165 50.9757 7.86165 50.0692C7.86165 49.1628 7.12363 48.428 6.21323 48.428C5.30284 48.428 4.56482 49.1628 4.56482 50.0692C4.56482 50.9757 5.30284 51.7105 6.21323 51.7105Z" fill="#E6E6E6"/>
</g>
<defs>
<clipPath id="clip0_4_927">
<rect width="99.8382" height="73" fill="white"/>
</clipPath>
</defs>
</svg>
