<svg width="82" height="73" viewBox="0 0 82 73" fill="none" xmlns="http://www.w3.org/2000/svg">
<g clip-path="url(#clip0_4_1897)">
<path d="M77.997 28.937C77.997 41.601 69.8365 52.3642 58.4708 56.2873C53.8959 57.8575 49.0014 58.2706 44.2267 57.4896C43.7736 57.4159 43.3237 57.3312 42.877 57.2355C42.2718 57.1073 41.6737 56.96 41.0827 56.7934C28.8804 53.3701 19.9368 42.1946 19.9368 28.937C19.9368 12.9555 32.9339 0 48.9669 0C64.9999 0 77.997 12.9554 77.997 28.937Z" fill="#E6E6E6"/>
<path d="M30.7843 37.8682C30.7332 37.8954 30.695 37.9418 30.6782 37.9971C30.6613 38.0524 30.6671 38.1121 30.6944 38.1631L41.6089 58.5406C41.6363 58.5916 41.6828 58.6296 41.7383 58.6464C41.7937 58.6632 41.8536 58.6574 41.9048 58.6302L57.3336 50.4193C57.3847 50.392 57.4229 50.3456 57.4397 50.2904C57.4566 50.2351 57.4507 50.1754 57.4235 50.1244L46.5089 29.7468C46.4816 29.6959 46.435 29.6578 46.3796 29.641C46.3241 29.6242 46.2642 29.63 46.2131 29.6572L30.7843 37.8682Z" fill="#3F3D56"/>
<path d="M32.2185 38.4638L42.2064 57.111L55.8995 49.824L45.9115 31.1765L32.2185 38.4638ZM31.3508 38.9255L31.3527 38.9245L31.3506 38.9256L31.3508 38.9255Z" fill="white"/>
<path d="M35.6711 40.5139C35.4584 40.6271 35.4131 40.9576 35.57 41.2505C35.7269 41.5434 36.0276 41.6897 36.2403 41.5765L46.269 36.2394C46.4818 36.1262 46.5271 35.7957 46.3702 35.5028C46.2133 35.2099 45.9126 35.0635 45.6998 35.1767L35.6711 40.5139Z" fill="#4B93E7"/>
<path d="M36.9067 42.8207C36.694 42.934 36.6487 43.2644 36.8056 43.5574C36.9625 43.8503 37.2632 43.9966 37.4759 43.8834L47.5046 38.5463C47.7174 38.4331 47.7627 38.1026 47.6058 37.8097C47.4489 37.5168 47.1482 37.3704 46.9354 37.4836L36.9067 42.8207Z" fill="#4B93E7"/>
<path d="M38.1423 45.1276C37.9296 45.2408 37.8843 45.5713 38.0412 45.8642C38.1981 46.1571 38.4988 46.3035 38.7115 46.1903L48.7402 40.8532C48.953 40.74 48.9982 40.4095 48.8414 40.1166C48.6845 39.8236 48.3838 39.6773 48.171 39.7905L38.1423 45.1276Z" fill="#4B93E7"/>
<path d="M39.3779 47.4345C39.1652 47.5477 39.1199 47.8782 39.2768 48.1711C39.4337 48.464 39.7344 48.6104 39.9471 48.4972L49.9758 43.16C50.1885 43.0468 50.2338 42.7163 50.0769 42.4234C49.92 42.1305 49.6194 41.9842 49.4066 42.0974L39.3779 47.4345Z" fill="#4B93E7"/>
<path d="M40.6135 49.7414C40.4008 49.8546 40.3555 50.1851 40.5124 50.478C40.6693 50.7709 40.97 50.9173 41.1827 50.8041L51.2114 45.4669C51.4242 45.3537 51.4694 45.0232 51.3125 44.7303C51.1556 44.4374 50.855 44.2911 50.6422 44.4043L40.6135 49.7414Z" fill="#4B93E7"/>
<path d="M42.561 29.0644L51.6482 29.6175L54.1931 22.0524L46.2227 20.3738L42.561 29.0644Z" fill="#082777"/>
<path d="M49.1146 27.1514C51.1218 27.1514 52.749 25.5295 52.749 23.5287C52.749 21.5279 51.1218 19.906 49.1146 19.906C47.1074 19.906 45.4802 21.5279 45.4802 23.5287C45.4802 25.5295 47.1074 27.1514 49.1146 27.1514Z" fill="#FFB8B8"/>
<path d="M58.4474 56.0053L58.471 56.2872C53.8961 57.8574 49.0016 58.2705 44.2269 57.4895L42.8772 57.2354L44.1616 54.3962L45.0036 52.535L44.7004 46.0963L44.6683 45.43L44.6286 44.58L45.1771 44.5768L49.0764 44.5533L52.7924 44.5298L53.3591 44.5266C56.9124 48.8832 59.8443 52.424 58.4474 56.0053Z" fill="#082777"/>
<path d="M53.3054 44.4732L44.6285 45.4342L44.3072 39.4546C43.2889 36.8659 43.9611 34.5552 46.0744 32.4816L46.5041 30.7864C46.6169 30.3415 46.8499 29.9359 47.1778 29.6137C47.5057 29.2916 47.9159 29.0652 48.3639 28.9592C49.7842 28.1473 51.3931 27.7603 53.1983 27.8158C53.9192 28.0964 54.5305 28.6007 54.9419 29.2542C55.3532 29.9077 55.5428 30.6757 55.4826 31.4448C55.1093 36.1441 54.439 40.5431 53.3054 44.4732Z" fill="#4B93E7"/>
<path d="M46.3653 19.2486C46.3653 19.2486 44.4861 19.9322 44.4378 22.4175C44.4352 22.8357 44.4912 23.2522 44.6042 23.6549C44.7261 24.1117 44.8238 25.1027 44.0044 26.4238C43.469 27.2813 42.9849 28.1696 42.5547 29.0841L44.6707 29.2876L45.0206 25.7912C45.1902 24.096 45.6093 22.435 46.2644 20.8615L46.2781 20.8287C46.2781 20.8287 47.2488 22.5105 49.0938 22.4587L48.4163 21.8204C48.4163 21.8204 50.7272 22.6878 51.9837 22.862C52.1271 22.8819 52.2624 22.9404 52.3749 23.0312C52.4874 23.1221 52.5729 23.2418 52.6222 23.3775C52.6715 23.5132 52.6827 23.6597 52.6547 23.8013C52.6266 23.9429 52.5603 24.0742 52.463 24.181C52.4556 24.1891 52.4481 24.1971 52.4404 24.2052C51.672 25.0156 50.1425 26.8991 51.1058 28.3181C52.0692 29.7372 51.2896 30.1535 51.2896 30.1535L52.717 29.3246L53.3647 28.912L53.3796 29.4375L56.7948 28.9472C56.7948 28.9472 57.7136 28.7899 55.6737 26.6123C55.6737 26.6123 55.1272 25.7597 55.3345 25.0054C55.5061 24.4317 55.5383 23.8255 55.4285 23.2369C54.9161 20.7868 53.0402 15.9396 46.3653 19.2486Z" fill="#082777"/>
<path d="M48.9669 72.7332C56.1846 72.7332 62.0358 72.3985 62.0358 71.9857C62.0358 71.5729 56.1846 71.2383 48.9669 71.2383C41.7491 71.2383 35.8979 71.5729 35.8979 71.9857C35.8979 72.3985 41.7491 72.7332 48.9669 72.7332Z" fill="#E6E6E6"/>
<path d="M0.0795209 34.4396C0.0520832 34.447 0.0286784 34.4648 0.0144426 34.4893C0.000206838 34.5138 -0.00369771 34.5429 0.00358756 34.5703L2.92697 45.5073C2.93431 45.5346 2.95223 45.558 2.97681 45.5722C3.00139 45.5864 3.03061 45.5902 3.05806 45.583L11.339 43.3837C11.3664 43.3764 11.3898 43.3586 11.404 43.3341C11.4183 43.3096 11.4222 43.2804 11.4149 43.2531L8.49151 32.3161C8.48417 32.2887 8.46625 32.2654 8.44167 32.2512C8.41709 32.237 8.38787 32.2331 8.36042 32.2404L0.0795209 34.4396Z" fill="#F2F2F2"/>
<path d="M2.11437 36.2458C2.00019 36.2762 1.94155 36.4288 1.98357 36.586C2.02559 36.7432 2.15264 36.8465 2.26682 36.8162L7.6494 35.3867C7.76358 35.3563 7.82222 35.2037 7.78019 35.0465C7.73817 34.8893 7.61112 34.786 7.49695 34.8163L2.11437 36.2458Z" fill="white"/>
<path d="M2.44542 37.4841C2.33125 37.5144 2.2726 37.6671 2.31462 37.8243C2.35664 37.9815 2.4837 38.0848 2.59787 38.0545L7.98046 36.625C8.09463 36.5946 8.15327 36.442 8.11125 36.2848C8.06923 36.1276 7.94218 36.0243 7.828 36.0546L2.44542 37.4841Z" fill="white"/>
<path d="M2.77623 38.7221C2.66206 38.7525 2.60341 38.9051 2.64543 39.0623C2.68745 39.2195 2.81451 39.3228 2.92868 39.2925L8.31127 37.863C8.42544 37.8327 8.48408 37.68 8.44206 37.5228C8.40004 37.3656 8.27299 37.2623 8.15882 37.2926L2.77623 38.7221Z" fill="white"/>
<path d="M3.10729 39.9604C2.99311 39.9908 2.93447 40.1434 2.97649 40.3006C3.01851 40.4578 3.14556 40.5611 3.25974 40.5308L8.64232 39.1013C8.75649 39.0709 8.81514 38.9183 8.77312 38.7611C8.73109 38.6039 8.60404 38.5006 8.48987 38.5309L3.10729 39.9604Z" fill="white"/>
<path d="M3.43809 41.1985C3.32392 41.2288 3.26528 41.3814 3.3073 41.5386C3.34932 41.6958 3.47637 41.7991 3.59055 41.7688L8.97313 40.3393C9.08731 40.309 9.14595 40.1564 9.10393 39.9992C9.06191 39.8419 8.93485 39.7386 8.82068 39.769L3.43809 41.1985Z" fill="white"/>
<path d="M3.76915 42.4365C3.65498 42.4668 3.59633 42.6195 3.63835 42.7767C3.68037 42.9339 3.80743 43.0372 3.9216 43.0069L9.30419 41.5773C9.41836 41.547 9.477 41.3944 9.43498 41.2372C9.39296 41.08 9.26591 40.9767 9.15173 41.007L3.76915 42.4365Z" fill="white"/>
<path d="M21.2419 72.9752C21.2419 72.9889 21.29 73 21.3491 73H32.704C32.7631 73 32.8112 72.9889 32.8112 72.9752V70.9959C32.8112 70.9823 32.7631 70.9712 32.704 70.9712H21.3491C21.29 70.9712 21.2419 70.9823 21.2419 70.9959V72.9752Z" fill="#F2F2F2"/>
<path d="M23.5168 72.6288C23.5168 72.6561 23.6497 72.6783 23.8129 72.6783C23.9761 72.6783 24.109 72.6561 24.109 72.6288V71.3422C24.109 71.3149 23.9761 71.2927 23.8129 71.2927C23.6497 71.2927 23.5168 71.3149 23.5168 71.3422V72.6288Z" fill="white"/>
<path d="M24.8022 72.6288C24.8022 72.6561 24.9351 72.6783 25.0983 72.6783C25.2615 72.6783 25.3944 72.6561 25.3944 72.6288V71.3422C25.3944 71.3149 25.2615 71.2927 25.0983 71.2927C24.9351 71.2927 24.8022 71.3149 24.8022 71.3422V72.6288Z" fill="white"/>
<path d="M26.0879 72.6288C26.0879 72.6561 26.2207 72.6783 26.384 72.6783C26.5472 72.6783 26.68 72.6561 26.68 72.6288V71.3422C26.68 71.3149 26.5472 71.2927 26.384 71.2927C26.2207 71.2927 26.0879 71.3149 26.0879 71.3422V72.6288Z" fill="white"/>
<path d="M27.3733 72.6288C27.3733 72.6561 27.5061 72.6783 27.6694 72.6783C27.8326 72.6783 27.9654 72.6561 27.9654 72.6288V71.3422C27.9654 71.3149 27.8326 71.2927 27.6694 71.2927C27.5061 71.2927 27.3733 71.3149 27.3733 71.3422V72.6288Z" fill="white"/>
<path d="M28.6587 72.6288C28.6587 72.6561 28.7915 72.6783 28.9548 72.6783C29.118 72.6783 29.2508 72.6561 29.2508 72.6288V71.3422C29.2508 71.3149 29.118 71.2927 28.9548 71.2927C28.7915 71.2927 28.6587 71.3149 28.6587 71.3422V72.6288Z" fill="white"/>
<path d="M29.9441 72.6288C29.9441 72.6561 30.0769 72.6783 30.2402 72.6783C30.4034 72.6783 30.5362 72.6561 30.5362 72.6288V71.3422C30.5362 71.3149 30.4034 71.2927 30.2402 71.2927C30.0769 71.2927 29.9441 71.3149 29.9441 71.3422V72.6288Z" fill="white"/>
<path d="M0.383292 26.547C0.358251 26.5603 0.33955 26.5831 0.331292 26.6102C0.323035 26.6372 0.325896 26.6665 0.339248 26.6915L5.68716 36.6761C5.70056 36.701 5.72335 36.7197 5.75052 36.7279C5.7777 36.7361 5.80704 36.7333 5.83211 36.72L13.3919 32.6968C13.4169 32.6834 13.4356 32.6607 13.4439 32.6336C13.4522 32.6065 13.4493 32.5773 13.436 32.5523L8.08804 22.5677C8.07464 22.5427 8.05185 22.5241 8.02467 22.5158C7.9975 22.5076 7.96816 22.5105 7.94309 22.5238L0.383292 26.547Z" fill="#E6E6E6"/>
<path d="M1.08589 26.8387L5.97978 35.9754L12.6891 32.4049L7.79522 23.2681L1.08589 26.8387ZM0.660749 27.0649L0.661691 27.0644L0.660645 27.065L0.660749 27.0649Z" fill="white"/>
<path d="M2.77771 27.8433C2.67348 27.8988 2.65129 28.0607 2.72816 28.2042C2.80503 28.3478 2.95237 28.4195 3.0566 28.364L7.97047 25.7489C8.0747 25.6934 8.09689 25.5315 8.02002 25.388C7.94314 25.2445 7.79581 25.1728 7.69158 25.2282L2.77771 27.8433Z" fill="#4B93E7"/>
<path d="M3.38318 28.9737C3.27895 29.0292 3.25676 29.1911 3.33363 29.3346C3.4105 29.4781 3.55783 29.5499 3.66206 29.4944L8.57593 26.8793C8.68016 26.8238 8.70236 26.6619 8.62548 26.5184C8.54861 26.3748 8.40127 26.3031 8.29704 26.3586L3.38318 28.9737Z" fill="#4B93E7"/>
<path d="M3.9884 30.1041C3.88417 30.1595 3.86198 30.3215 3.93885 30.465C4.01573 30.6085 4.16306 30.6802 4.26729 30.6248L9.18116 28.0097C9.28539 27.9542 9.30759 27.7923 9.23072 27.6487C9.15384 27.5052 9.00651 27.4335 8.90228 27.489L3.9884 30.1041Z" fill="#4B93E7"/>
<path d="M4.59387 31.2342C4.48964 31.2897 4.46745 31.4516 4.54432 31.5951C4.6212 31.7386 4.76853 31.8103 4.87276 31.7549L9.78663 29.1398C9.89086 29.0843 9.91305 28.9224 9.83618 28.7789C9.7593 28.6353 9.61197 28.5636 9.50774 28.6191L4.59387 31.2342Z" fill="#4B93E7"/>
<path d="M5.19934 32.3646C5.09511 32.42 5.07292 32.582 5.14979 32.7255C5.22666 32.869 5.374 32.9407 5.47823 32.8852L10.3921 30.2702C10.4963 30.2147 10.5185 30.0528 10.4416 29.9092C10.3648 29.7657 10.2174 29.694 10.1132 29.7495L5.19934 32.3646Z" fill="#4B93E7"/>
<path d="M5.80481 33.4949C5.70058 33.5504 5.67839 33.7123 5.75526 33.8559C5.83213 33.9994 5.97947 34.0711 6.0837 34.0156L10.9976 31.4005C11.1018 31.3451 11.124 31.1831 11.0471 31.0396C10.9702 30.8961 10.8229 30.8244 10.7187 30.8798L5.80481 33.4949Z" fill="#4B93E7"/>
<path d="M73.843 52.0627C73.8185 52.0483 73.7893 52.0442 73.7618 52.0512C73.7343 52.0583 73.7107 52.0759 73.6962 52.1003L67.9194 61.8445C67.905 61.8689 67.9008 61.898 67.9079 61.9255C67.915 61.9529 67.9327 61.9764 67.9571 61.9908L75.335 66.3367C75.3594 66.3511 75.3886 66.3552 75.4161 66.3481C75.4436 66.3411 75.4672 66.3235 75.4817 66.2991L81.2585 56.5548C81.273 56.5304 81.2771 56.5013 81.27 56.4739C81.2629 56.4465 81.2452 56.423 81.2208 56.4086L73.843 52.0627Z" fill="#E6E6E6"/>
<path d="M73.9581 52.8126L68.6719 61.7295L75.2196 65.5865L80.506 56.6696L73.9581 52.8126ZM73.5433 52.5682L73.5441 52.5687L73.5432 52.5681L73.5433 52.5682Z" fill="white"/>
<path d="M73.9765 54.7752C73.8748 54.7153 73.7245 54.7805 73.6415 54.9206C73.5584 55.0607 73.5736 55.2234 73.6753 55.2833L78.4709 58.1082C78.5726 58.1681 78.7229 58.1028 78.806 57.9628C78.889 57.8227 78.8739 57.6599 78.7722 57.6L73.9765 54.7752Z" fill="#4B93E7"/>
<path d="M73.3228 55.8785C73.221 55.8185 73.0707 55.8838 72.9877 56.0239C72.9046 56.164 72.9198 56.3267 73.0215 56.3866L77.8171 59.2114C77.9188 59.2714 78.0691 59.2061 78.1522 59.066C78.2352 58.9259 78.2201 58.7632 78.1184 58.7033L73.3228 55.8785Z" fill="#4B93E7"/>
<path d="M72.6687 56.9815C72.567 56.9216 72.4167 56.9868 72.3336 57.1269C72.2506 57.267 72.2657 57.4297 72.3674 57.4896L77.163 60.3145C77.2648 60.3744 77.4151 60.3091 77.4981 60.169C77.5812 60.029 77.566 59.8662 77.4643 59.8063L72.6687 56.9815Z" fill="#4B93E7"/>
<path d="M72.0146 58.0848C71.9129 58.0248 71.7626 58.0901 71.6796 58.2302C71.5965 58.3703 71.6117 58.533 71.7134 58.5929L76.509 61.4177C76.6107 61.4777 76.761 61.4124 76.8441 61.2723C76.9271 61.1322 76.912 60.9695 76.8102 60.9096L72.0146 58.0848Z" fill="#4B93E7"/>
<path d="M71.3608 59.1878C71.2591 59.1279 71.1088 59.1931 71.0258 59.3332C70.9427 59.4733 70.9579 59.636 71.0596 59.6959L75.8552 62.5208C75.9569 62.5807 76.1072 62.5154 76.1903 62.3753C76.2733 62.2353 76.2582 62.0725 76.1564 62.0126L71.3608 59.1878Z" fill="#4B93E7"/>
<path d="M70.7068 60.2908C70.6051 60.2309 70.4547 60.2962 70.3717 60.4362C70.2887 60.5763 70.3038 60.739 70.4055 60.799L75.2011 63.6238C75.3028 63.6837 75.4532 63.6184 75.5362 63.4784C75.6192 63.3383 75.6041 63.1756 75.5024 63.1156L70.7068 60.2908Z" fill="#4B93E7"/>
<path d="M47.1995 34.3293L47.0881 35.017L45.914 42.231L45.177 44.5769L44.9178 45.4023L44.7004 46.0963L42.0576 54.5105L41.3326 56.2086C40.9347 56.3552 40.5928 56.6222 40.3547 56.9721C40.1165 57.322 39.994 57.7373 40.0043 58.16C40.0145 58.5827 40.1571 58.9916 40.412 59.3296C40.6668 59.6676 41.0213 59.9177 41.4258 60.045C41.8303 60.1723 42.2646 60.1704 42.668 60.0396C43.0714 59.9087 43.4236 59.6555 43.6755 59.3153C43.9274 58.9751 44.0664 58.565 44.0729 58.1422C44.0795 57.7195 43.9533 57.3052 43.7121 56.9574L48.8846 44.9634L49.0763 44.5534L49.6633 43.2988L50.772 34.9604L50.8417 34.4361L47.1995 34.3293Z" fill="#FFB8B8"/>
<path d="M51.4843 35.1835C49.8008 34.5805 48.1858 34.5164 46.6638 35.1835L47.1606 30.8915C47.1424 30.3556 47.3359 29.8339 47.6995 29.4386C48.0631 29.0434 48.5678 28.8062 49.1051 28.778C49.649 28.7494 50.182 28.9374 50.5868 29.3006C50.9917 29.6638 51.2352 30.1724 51.2638 30.7146L51.2642 30.7216L51.4843 35.1835Z" fill="#4B93E7"/>
</g>
<defs>
<clipPath id="clip0_4_1897">
<rect width="81.2733" height="73" fill="white"/>
</clipPath>
</defs>
</svg>
