<svg width="106" height="73" viewBox="0 0 106 73" fill="none" xmlns="http://www.w3.org/2000/svg">
<g clip-path="url(#clip0_4_1984)">
<path d="M9.54026 31.8824C7.586 33.4814 10.7839 47.5165 10.7839 47.5165C10.7839 47.5165 11.4945 68.9245 13.0046 69.9017C14.5147 70.8788 17.8903 69.8128 19.2227 69.6352C20.5552 69.4575 19.4004 56.2218 17.4461 51.3362C15.4919 46.4506 17.002 39.3441 17.002 39.3441L27.5728 41.3872C27.5728 41.3872 21.177 46.8059 21.4435 47.9607C21.71 49.1155 28.5499 53.024 29.7935 53.2016C31.0371 53.3793 33.4355 46.0952 35.5675 41.1207C37.6994 36.1463 20.9993 32.9484 20.9993 32.9484L18.6898 28.5957C18.6898 28.5957 11.4945 30.2835 9.54026 31.8824Z" fill="#082777"/>
<path d="M14.8456 70.2704C14.8456 70.2704 14.201 72.5265 14.8456 72.5265C15.4902 72.5265 16.6719 73.1711 18.4983 72.9562C20.3247 72.7413 19.7875 70.4852 18.4983 70.1629C17.2091 69.8406 17.5314 67.2622 17.5314 67.2622C17.1017 66.4027 15.0604 67.4771 15.0604 67.4771L14.8456 70.2704Z" fill="#082777"/>
<path d="M23.9972 52.3297C23.9972 52.3297 22.8914 54.3991 23.5215 54.535C24.1516 54.671 25.1708 55.5503 27.0014 55.7254C28.832 55.9005 28.7827 53.5819 27.5905 52.9949C26.3983 52.408 27.2571 49.9556 27.2571 49.9556C27.0182 49.0248 24.7963 49.6445 24.7963 49.6445L23.9972 52.3297Z" fill="#082777"/>
<path d="M10.7395 12.6508C10.9171 13.0061 10.1177 17.4476 10.1177 17.4476L10.8283 18.6912C10.8283 18.6912 14.9145 17.0923 14.2927 16.8258C13.6709 16.5593 13.7597 13.2726 13.7597 13.2726C13.7597 13.2726 10.5618 12.2955 10.7395 12.6508Z" fill="#FFB9B9"/>
<path d="M12.2776 14.0197C15.2856 14.0197 17.7241 11.5812 17.7241 8.57321C17.7241 5.56519 15.2856 3.12671 12.2776 3.12671C9.26954 3.12671 6.83105 5.56519 6.83105 8.57321C6.83105 11.5812 9.26954 14.0197 12.2776 14.0197Z" fill="#082777"/>
<path d="M11.9019 5.72815C13.1466 5.72815 14.1556 4.71913 14.1556 3.47443C14.1556 2.22973 13.1466 1.2207 11.9019 1.2207C10.6572 1.2207 9.64819 2.22973 9.64819 3.47443C9.64819 4.71913 10.6572 5.72815 11.9019 5.72815Z" fill="#082777"/>
<path d="M12.8879 4.49527C12.9659 4.50337 13.0443 4.50744 13.1227 4.50746C13.4187 4.50746 13.7117 4.44916 13.9852 4.3359C14.2586 4.22264 14.5071 4.05663 14.7163 3.84736C14.9256 3.63808 15.0916 3.38963 15.2049 3.11619C15.3181 2.84276 15.3764 2.54969 15.3764 2.25373C15.3764 1.95776 15.3181 1.6647 15.2049 1.39126C15.0916 1.11783 14.9256 0.86938 14.7163 0.660102C14.5071 0.450824 14.2586 0.284815 13.9852 0.171555C13.7117 0.0582944 13.4187 -8.82041e-09 13.1227 0C13.0443 2.01661e-05 12.9659 0.00408712 12.8879 0.012185C13.442 0.0702351 13.9549 0.331425 14.3277 0.74536C14.7006 1.15929 14.9069 1.69664 14.9069 2.25373C14.9069 2.81082 14.7006 3.34816 14.3277 3.7621C13.9549 4.17603 13.442 4.43722 12.8879 4.49527Z" fill="#082777"/>
<path d="M12.4274 14.9603C14.4879 14.9603 16.1583 13.2899 16.1583 11.2294C16.1583 9.1689 14.4879 7.49854 12.4274 7.49854C10.3669 7.49854 8.69653 9.1689 8.69653 11.2294C8.69653 13.2899 10.3669 14.9603 12.4274 14.9603Z" fill="#FFB9B9"/>
<path d="M7.05315 16.9589C5.89835 17.2254 3.94409 20.0679 3.94409 20.0679L7.05315 23.177C7.05315 23.177 9.27389 31.527 9.54039 31.8823C11.2863 34.2101 19.134 29.0398 19.134 29.0398C19.134 29.0398 18.8231 26.5081 19.0008 25.2645C19.1717 24.0684 18.3346 21.6669 18.3346 21.6669C18.3346 21.6669 21.266 20.4233 20.6441 19.1796C20.0223 17.936 16.2026 15.0935 14.6037 16.0706C13.0048 17.0477 9.80689 16.0706 9.80689 16.0706C9.80689 16.0706 8.20794 16.6924 7.05315 16.9589Z" fill="#E6E6E6"/>
<path d="M29.749 34.8582C29.749 34.8582 34.8123 39.2109 36.056 38.3225C37.2996 37.4342 31.2591 34.3252 31.2591 34.3252L29.749 34.8582Z" fill="#FFB9B9"/>
<path d="M7.00864 33.3481C7.71928 34.1476 11.0948 32.1045 10.6621 31.1972C10.2293 30.2898 7.54162 32.1045 7.54162 32.1045C7.54162 32.1045 6.298 32.5486 7.00864 33.3481Z" fill="#FFB9B9"/>
<path d="M7.05306 21.3116L3.3222 28.2403C3.3222 28.2403 7.58603 31.7935 8.11901 31.8823C8.65199 31.9712 7.05305 34.2808 7.05305 34.2808C7.05305 34.2808 2.25623 30.9052 0.390801 29.2174C-1.47463 27.5297 3.944 20.068 3.944 20.068L5.54295 19.0908L7.05306 21.3116Z" fill="#E6E6E6"/>
<path d="M17.8904 21.0452L22.2431 27.7963C22.2431 27.7963 28.9053 35.258 29.7936 35.6133C30.6819 35.9686 31.7479 34.2808 31.7479 34.2808L23.7532 24.5984L20.7329 19.1797L19.5782 18.7356L17.8904 21.0452Z" fill="#E6E6E6"/>
<path d="M12.2775 9.05042C14.3519 9.05042 16.0337 8.04139 16.0337 6.7967C16.0337 5.552 14.3519 4.54297 12.2775 4.54297C10.203 4.54297 8.52124 5.552 8.52124 6.7967C8.52124 8.04139 10.203 9.05042 12.2775 9.05042Z" fill="#082777"/>
<path d="M22.8149 55.4233C22.6918 55.4235 22.5738 55.4725 22.4867 55.5595C22.3997 55.6466 22.3507 55.7646 22.3506 55.8877V71.725C22.3507 71.8481 22.3997 71.9661 22.4867 72.0532C22.5738 72.1402 22.6918 72.1892 22.8149 72.1894H76.8175C76.9406 72.1892 77.0586 72.1402 77.1456 72.0532C77.2327 71.9661 77.2817 71.8481 77.2818 71.725V55.8877C77.2817 55.7646 77.2327 55.6466 77.1456 55.5595C77.0586 55.4724 76.9406 55.4235 76.8175 55.4233L22.8149 55.4233Z" fill="#E6E6E6"/>
<path d="M23.5142 71.0257H76.1181V56.5869H23.5142V71.0257Z" fill="white"/>
<path d="M69.4783 68.0303C69.3772 68.0302 69.2771 68.05 69.1837 68.0886C69.0903 68.1272 69.0054 68.1838 68.9339 68.2552C68.8623 68.3267 68.8056 68.4115 68.7669 68.5049C68.7282 68.5983 68.7083 68.6984 68.7083 68.7994C68.7083 68.9005 68.7282 69.0006 68.7669 69.094C68.8056 69.1874 68.8623 69.2722 68.9339 69.3437C69.0054 69.4151 69.0903 69.4717 69.1837 69.5103C69.2771 69.5489 69.3772 69.5687 69.4783 69.5686H72.555C72.759 69.5686 72.9546 69.4876 73.0989 69.3433C73.2431 69.1991 73.3242 69.0034 73.3242 68.7994C73.3242 68.5954 73.2431 68.3998 73.0989 68.2556C72.9546 68.1113 72.759 68.0303 72.555 68.0303H69.4783Z" fill="#4B93E7"/>
<path d="M73.3241 66.5383H37.8076V66.7407H73.3241V66.5383Z" fill="#E6E6E6"/>
<path d="M30.3836 68.2864C32.8578 68.2864 34.8636 66.2807 34.8636 63.8064C34.8636 61.3322 32.8578 59.3264 30.3836 59.3264C27.9093 59.3264 25.9036 61.3322 25.9036 63.8064C25.9036 66.2807 27.9093 68.2864 30.3836 68.2864Z" fill="#4B93E7"/>
<path d="M37.8637 65.4085L37.7515 65.2401L41.4421 62.7796L43.9729 63.9944L47.6132 61.6687L54.8546 64.7577L60.6212 61.9249L66.2208 64.1951L73.257 57.9631L73.3911 58.1146L66.2611 64.4299L60.6291 62.1465L54.8604 64.9802L47.632 61.8968L43.987 64.2257L41.4585 63.0121L37.8637 65.4085Z" fill="#3F3D56"/>
<path d="M38.4652 68.1362C38.3788 68.1361 38.2931 68.1531 38.2132 68.1861C38.1333 68.2191 38.0607 68.2675 37.9996 68.3286C37.9384 68.3897 37.8899 68.4622 37.8568 68.5421C37.8237 68.6219 37.8066 68.7075 37.8066 68.7939C37.8066 68.8804 37.8237 68.966 37.8568 69.0458C37.8899 69.1257 37.9384 69.1982 37.9996 69.2593C38.0607 69.3204 38.1333 69.3688 38.2132 69.4018C38.2931 69.4348 38.3788 69.4518 38.4652 69.4517H45.3459C45.5202 69.4514 45.6872 69.382 45.8104 69.2587C45.9336 69.1354 46.0028 68.9682 46.0028 68.7939C46.0028 68.6197 45.9336 68.4525 45.8104 68.3292C45.6872 68.2058 45.5202 68.1365 45.3459 68.1362H38.4652Z" fill="#E6E6E6"/>
<path d="M32.0946 61.8022H32.7946L31.338 63.2437C31.0836 63.4945 30.7406 63.6351 30.3833 63.6351C30.0261 63.6351 29.6831 63.4945 29.4287 63.2437L27.9723 61.8022H28.6723L29.7788 62.8973C29.9399 63.0562 30.1572 63.1452 30.3834 63.1452C30.6097 63.1452 30.8269 63.0562 30.9881 62.8973L32.0946 61.8022ZM28.6634 65.8107H27.9634L29.4289 64.3603C29.6833 64.1095 30.0263 63.9689 30.3835 63.9689C30.7408 63.9689 31.0838 64.1095 31.3382 64.3603L32.8037 65.8107H32.1037L30.9881 64.7067C30.8269 64.5479 30.6097 64.4588 30.3835 64.4588C30.1572 64.4588 29.94 64.5479 29.7788 64.7067L28.6634 65.8107Z" fill="white"/>
<path d="M29.8469 4.69507C29.7238 4.69522 29.6058 4.74418 29.5187 4.83123C29.4317 4.91829 29.3827 5.03631 29.3826 5.15942V20.9967C29.3827 21.1198 29.4317 21.2379 29.5187 21.3249C29.6058 21.412 29.7238 21.4609 29.8469 21.4611H83.8494C83.9725 21.4609 84.0906 21.412 84.1776 21.3249C84.2647 21.2379 84.3136 21.1198 84.3138 20.9967V5.15941C84.3136 5.03631 84.2647 4.91828 84.1776 4.83123C84.0906 4.74418 83.9725 4.69521 83.8494 4.69507L29.8469 4.69507Z" fill="#E6E6E6"/>
<path d="M30.5461 20.2974H83.1501V5.85864H30.5461V20.2974Z" fill="white"/>
<path d="M76.5104 17.302C76.3064 17.302 76.1107 17.383 75.9665 17.5273C75.8222 17.6715 75.7412 17.8672 75.7412 18.0712C75.7412 18.2752 75.8222 18.4708 75.9665 18.6151C76.1107 18.7593 76.3064 18.8403 76.5104 18.8403H79.5871C79.791 18.8403 79.9867 18.7593 80.1309 18.6151C80.2752 18.4708 80.3562 18.2752 80.3562 18.0712C80.3562 17.8672 80.2752 17.6715 80.1309 17.5273C79.9867 17.383 79.791 17.302 79.5871 17.302H76.5104Z" fill="#4B93E7"/>
<path d="M80.3561 15.8101H44.8396V16.0124H80.3561V15.8101Z" fill="#E6E6E6"/>
<path d="M37.4156 17.5579C39.8898 17.5579 41.8956 15.5521 41.8956 13.0779C41.8956 10.6037 39.8898 8.5979 37.4156 8.5979C34.9413 8.5979 32.9355 10.6037 32.9355 13.0779C32.9355 15.5521 34.9413 17.5579 37.4156 17.5579Z" fill="#4B93E7"/>
<path d="M44.8956 14.68L44.7834 14.5116L48.4741 12.0512L51.0049 13.266L54.6452 10.9403L54.6943 10.9612L61.8865 14.0293L67.6532 11.1965L73.2528 13.4667L80.2889 7.23462L80.4231 7.38612L73.2931 13.7014L67.6611 11.4181L61.8925 14.2518L54.6641 11.1684L51.019 13.4972L48.4904 12.2835L44.8956 14.68Z" fill="#3F3D56"/>
<path d="M45.4974 17.4077C45.3232 17.4079 45.1561 17.4773 45.0329 17.6007C44.9098 17.724 44.8406 17.8911 44.8406 18.0654C44.8406 18.2397 44.9098 18.4069 45.0329 18.5302C45.1561 18.6535 45.3232 18.7229 45.4974 18.7231H52.3781C52.5526 18.7231 52.7199 18.6538 52.8432 18.5305C52.9666 18.4072 53.0358 18.2399 53.0358 18.0654C53.0358 17.891 52.9666 17.7237 52.8432 17.6004C52.7199 17.477 52.5526 17.4077 52.3781 17.4077H45.4974Z" fill="#E6E6E6"/>
<path d="M39.2181 12.5551C39.3018 11.9945 38.875 11.6931 38.2913 11.492L38.4807 10.7326L38.0182 10.6174L37.8339 11.3568C37.7125 11.3265 37.5877 11.298 37.4637 11.2697L37.6493 10.5254L37.1873 10.4102L36.9979 11.1693C36.8973 11.1464 36.7985 11.1238 36.7027 11.0999L36.7032 11.0976L36.0657 10.9384L35.9427 11.4321C35.9427 11.4321 36.2857 11.5107 36.2785 11.5156C36.3424 11.5233 36.4008 11.5557 36.4411 11.606C36.4814 11.6563 36.5003 11.7204 36.4939 11.7845L36.2782 12.6496C36.2945 12.6537 36.3106 12.6588 36.3262 12.665L36.2775 12.6529L35.9751 13.8649C35.9684 13.886 35.9577 13.9057 35.9434 13.9226C35.9292 13.9396 35.9117 13.9536 35.892 13.9638C35.8723 13.974 35.8508 13.9802 35.8287 13.9821C35.8066 13.984 35.7844 13.9814 35.7632 13.9747C35.7679 13.9814 35.4272 13.8908 35.4272 13.8908L35.1978 14.4201L35.7995 14.5701C35.9114 14.5981 36.021 14.6275 36.1289 14.6551L35.9376 15.4234L36.3993 15.5386L36.5889 14.7786C36.7149 14.8128 36.8374 14.8444 36.9572 14.8742L36.7684 15.6306L37.2306 15.7458L37.4219 14.9791C38.2102 15.1283 38.8031 15.0681 39.0523 14.3553C39.2534 13.7813 39.0425 13.4501 38.6277 13.2341C38.9297 13.1642 39.1573 12.9655 39.218 12.5551L39.2181 12.5551ZM38.1618 14.0362C38.0188 14.6102 37.0524 14.3 36.7389 14.2221L36.9927 13.2045C37.3061 13.2827 38.3108 13.4375 38.1619 14.0362H38.1618ZM38.3046 12.5468C38.1743 13.069 37.3698 12.8037 37.1087 12.7386L37.3389 11.8157C37.6 11.8807 38.4405 12.0021 38.3046 12.5468Z" fill="white"/>
<path d="M51.0928 30.0591C50.9697 30.0592 50.8516 30.1082 50.7646 30.1952C50.6775 30.2823 50.6286 30.4003 50.6284 30.5234V46.3608C50.6286 46.4839 50.6775 46.6019 50.7646 46.6889C50.8516 46.776 50.9697 46.8249 51.0928 46.8251H105.095C105.218 46.8249 105.336 46.776 105.423 46.6889C105.511 46.6019 105.559 46.4839 105.56 46.3608V30.5234C105.559 30.4003 105.511 30.2823 105.423 30.1952C105.336 30.1082 105.218 30.0592 105.095 30.0591L51.0928 30.0591Z" fill="#E6E6E6"/>
<path d="M51.792 45.6616H104.396V31.2229H51.792V45.6616Z" fill="white"/>
<path d="M97.756 42.6663C97.552 42.6663 97.3563 42.7473 97.2121 42.8915C97.0679 43.0358 96.9868 43.2314 96.9868 43.4354C96.9868 43.6394 97.0679 43.8351 97.2121 43.9793C97.3563 44.1236 97.552 44.2046 97.756 44.2046H100.833C101.037 44.2046 101.232 44.1236 101.377 43.9793C101.521 43.8351 101.602 43.6394 101.602 43.4354C101.602 43.2314 101.521 43.0358 101.377 42.8915C101.232 42.7473 101.037 42.6663 100.833 42.6663H97.756Z" fill="#4B93E7"/>
<path d="M101.602 41.1743H66.0854V41.3767H101.602V41.1743Z" fill="#E6E6E6"/>
<path d="M58.6612 42.9222C61.1354 42.9222 63.1412 40.9164 63.1412 38.4422C63.1412 35.9679 61.1354 33.9622 58.6612 33.9622C56.1869 33.9622 54.1812 35.9679 54.1812 38.4422C54.1812 40.9164 56.1869 42.9222 58.6612 42.9222Z" fill="#4B93E7"/>
<path d="M66.1414 40.0443L66.0291 39.8759L69.7197 37.4154L72.2506 38.6303L75.8908 36.3046L75.9401 36.3255L83.1322 39.3935L88.8989 36.5608L94.4985 38.8308L101.535 32.5989L101.669 32.7505L94.5388 39.0656L88.9068 36.7824L83.1381 39.6161L75.9099 36.5326L72.2646 38.8615L69.7362 37.6478L66.1414 40.0443Z" fill="#3F3D56"/>
<path d="M66.7432 42.772C66.5687 42.772 66.4014 42.8413 66.2781 42.9646C66.1547 43.088 66.0854 43.2552 66.0854 43.4297C66.0854 43.6041 66.1547 43.7714 66.2781 43.8948C66.4014 44.0181 66.5687 44.0874 66.7432 44.0874H73.6238C73.7983 44.0874 73.9656 44.0181 74.0889 43.8948C74.2123 43.7714 74.2816 43.6041 74.2816 43.4297C74.2816 43.2552 74.2123 43.088 74.0889 42.9646C73.9656 42.8413 73.7983 42.772 73.6238 42.772H66.7432Z" fill="#E6E6E6"/>
<path d="M58.6609 41.3949L60.4745 38.8408L58.6609 39.9116L56.8484 38.8408L58.6608 41.3949H58.6609Z" fill="white"/>
<path d="M58.6608 39.5683H58.6609L60.4734 38.4969L58.6609 35.4895H58.6608L56.8484 38.4969L58.6608 39.5683Z" fill="white"/>
</g>
<defs>
<clipPath id="clip0_4_1984">
<rect width="105.56" height="73" fill="white"/>
</clipPath>
</defs>
</svg>
