<svg width="87" height="73" viewBox="0 0 87 73" fill="none" xmlns="http://www.w3.org/2000/svg">
<g clip-path="url(#clip0_4_2170)">
<path d="M85.2635 24.9773C85.365 25.3736 85.46 25.7719 85.5487 26.1723H55.3745V24.9773H85.2635Z" fill="#E6E6E6"/>
<path d="M84.3017 21.8273C83.8159 20.4555 83.2495 19.1136 82.6053 17.8086C82.4072 17.4063 82.2013 17.0079 81.9879 16.6136C81.9528 16.546 81.9154 16.4783 81.8779 16.4106V25.3035H84.4854V22.3565L84.3017 21.8273Z" fill="#E6E6E6"/>
<path d="M82.6053 17.8087H81.8779V16.6138H81.9879C82.2018 17.0077 82.4076 17.406 82.6053 17.8087Z" fill="#CCCCCC"/>
<path d="M84.3017 21.8274H81.8779V23.0224H84.4854V22.3566L84.3017 21.8274Z" fill="#CCCCCC"/>
<path d="M80.4659 14.9846H77.859V25.3037H80.4659V14.9846Z" fill="#E6E6E6"/>
<path d="M80.4659 16.614H77.859V17.8089H80.4659V16.614Z" fill="#CCCCCC"/>
<path d="M80.4659 21.8279H77.859V23.0227H80.4659V21.8279Z" fill="#CCCCCC"/>
<path d="M68.5772 14.9246H59.2252C59.0811 14.9248 58.9429 14.9821 58.841 15.0841C58.7391 15.186 58.6817 15.3241 58.6815 15.4683V24.8203C58.6817 24.8735 58.6894 24.9264 58.7045 24.9774C58.7384 25.0891 58.8073 25.187 58.9011 25.2566C58.9948 25.3262 59.1085 25.3639 59.2252 25.364H68.5772C68.694 25.3639 68.8077 25.3262 68.9014 25.2566C68.9952 25.187 69.0641 25.0891 69.098 24.9774C69.1131 24.9264 69.1208 24.8735 69.121 24.8203V15.4683C69.1207 15.3241 69.0634 15.186 68.9615 15.0841C68.8595 14.9821 68.7214 14.9248 68.5772 14.9246Z" fill="#E6E6E6"/>
<path d="M67.9127 15.5891H59.8898C59.7457 15.5893 59.6075 15.6467 59.5056 15.7486C59.4036 15.8505 59.3463 15.9887 59.3461 16.1328V24.1557C59.3463 24.2999 59.4036 24.438 59.5056 24.54C59.6075 24.6419 59.7457 24.6992 59.8898 24.6995H67.9127C68.0568 24.6992 68.195 24.6419 68.2969 24.54C68.3988 24.438 68.4562 24.2999 68.4564 24.1557V16.1328C68.4562 15.9887 68.3988 15.8505 68.2969 15.7486C68.195 15.6467 68.0568 15.5893 67.9127 15.5891Z" fill="white"/>
<path d="M66.5135 16.9883H61.289C61.1448 16.9885 61.0067 17.0459 60.9047 17.1478C60.8028 17.2497 60.7455 17.3879 60.7452 17.532V22.7566C60.7455 22.9007 60.8028 23.0389 60.9047 23.1408C61.0067 23.2427 61.1448 23.3001 61.289 23.3003H66.5135C66.6575 23.2995 66.7954 23.242 66.8972 23.1402C66.999 23.0384 67.0565 22.9005 67.0573 22.7566V17.532C67.057 17.3879 66.9997 17.2497 66.8978 17.1478C66.7959 17.0459 66.6577 16.9885 66.5135 16.9883Z" fill="#CCCCCC"/>
<path d="M66.1914 21.8351L65.0879 19.9237C65.0667 19.887 65.0362 19.8565 64.9994 19.8353C64.9627 19.8141 64.921 19.8029 64.8786 19.8029C64.8362 19.8029 64.7945 19.8141 64.7578 19.8353C64.721 19.8565 64.6905 19.887 64.6693 19.9237L63.8635 21.3194L62.8068 19.4892C62.7855 19.4525 62.755 19.422 62.7183 19.4008C62.6816 19.3796 62.6399 19.3684 62.5975 19.3684C62.5551 19.3684 62.5134 19.3796 62.4767 19.4008C62.4399 19.422 62.4094 19.4525 62.3882 19.4892L61.2847 21.4006L59.9719 23.6744H62.5039L62.253 24.1089H67.5043L66.1914 21.8351Z" fill="white"/>
<path d="M65.802 18.895C66.2219 18.895 66.5623 18.5546 66.5623 18.1346C66.5623 17.7147 66.2219 17.3743 65.802 17.3743C65.382 17.3743 65.0416 17.7147 65.0416 18.1346C65.0416 18.5546 65.382 18.895 65.802 18.895Z" fill="white"/>
<path d="M86.4174 33.4207C86.4089 32.9519 86.3903 32.4855 86.3617 32.0215C86.3497 31.7992 86.3352 31.578 86.3171 31.3569H81.2157C81.0716 31.3572 80.9334 31.4145 80.8315 31.5164C80.7296 31.6183 80.6722 31.7565 80.672 31.9007V41.2527C80.6717 41.2954 80.677 41.3381 80.6877 41.3795C80.7163 41.4981 80.7838 41.6037 80.8796 41.6793C80.9753 41.7549 81.0937 41.7961 81.2157 41.7964H85.9183C85.9425 41.6586 85.9654 41.5185 85.986 41.3795C85.9992 41.2974 86.0126 41.214 86.0247 41.1318C86.0536 40.9349 86.0814 40.7379 86.1068 40.541C86.1431 40.2728 86.1757 40.0033 86.2047 39.7327C86.311 38.7624 86.3795 37.7817 86.4101 36.7905V36.7893C86.421 36.416 86.4266 36.041 86.427 35.6644V34.2145C86.427 33.9487 86.4246 33.6841 86.4174 33.4207Z" fill="#E6E6E6"/>
<path d="M86.4174 33.4207C86.4089 32.9519 86.3903 32.4855 86.3617 32.0215H81.8803C81.7361 32.0217 81.598 32.0791 81.496 32.181C81.3941 32.2829 81.3368 32.4211 81.3365 32.5652V40.5881C81.3368 40.7323 81.3941 40.8704 81.496 40.9723C81.598 41.0743 81.7361 41.1316 81.8803 41.1318H86.0247C86.0536 40.9349 86.0814 40.7379 86.1068 40.541C86.1431 40.2728 86.1757 40.0033 86.2047 39.7327C86.311 38.7624 86.3795 37.7817 86.4101 36.7905V36.7893C86.421 36.416 86.4266 36.041 86.427 35.6644V34.2145C86.427 33.9487 86.4246 33.6841 86.4174 33.4207Z" fill="white"/>
<path d="M86.4173 33.4207H83.2794C83.1353 33.4209 82.9971 33.4782 82.8952 33.5801C82.7933 33.6821 82.7359 33.8202 82.7357 33.9644V39.1889C82.7359 39.3331 82.7933 39.4712 82.8952 39.5732C82.9971 39.6751 83.1353 39.7324 83.2794 39.7327H86.2047C86.311 38.7624 86.3794 37.7817 86.4101 36.7905V36.7893C86.4209 36.416 86.4266 36.041 86.427 35.6644V34.2145C86.427 33.9487 86.4246 33.6841 86.4173 33.4207Z" fill="#CCCCCC"/>
<path d="M86.4102 36.7905C86.38 37.7813 86.3115 38.762 86.2047 39.7326C86.1758 40.0033 86.1432 40.2727 86.1069 40.5409H84.2437L84.4951 40.1072H81.9625L82.7358 38.7672L83.2747 37.8332L84.3791 35.9217C84.4001 35.8848 84.4305 35.8542 84.4672 35.8329C84.5039 35.8115 84.5456 35.8003 84.5881 35.8003C84.6306 35.8003 84.6723 35.8115 84.709 35.8329C84.7457 35.8542 84.7761 35.8848 84.7971 35.9217L85.8544 37.7523L86.4102 36.7905Z" fill="white"/>
<path d="M77.2551 9.77139H55.3745V8.57642H76.1701C76.5398 8.96669 76.9015 9.36501 77.2551 9.77139Z" fill="#E6E6E6"/>
<path d="M66.9968 1.48364C67.8885 1.9742 68.7576 2.4998 69.6042 3.06043V8.90121H66.9968V1.48364Z" fill="#E6E6E6"/>
<path d="M69.6038 5.42578H66.9968V6.62063H69.6038V5.42578Z" fill="#CCCCCC"/>
<path d="M73.623 6.12965V8.90142H71.0155V4.04297C71.6233 4.48641 72.2174 4.94756 72.7977 5.42644C73.0756 5.65601 73.3507 5.89041 73.623 6.12965Z" fill="#E6E6E6"/>
<path d="M73.623 6.12948V6.62004H71.0155V5.42627H72.7977C73.0756 5.65584 73.3507 5.89025 73.623 6.12948Z" fill="#CCCCCC"/>
<path d="M64.335 0.152243C65.0249 0.462761 65.7031 0.793827 66.3697 1.14544L65.8332 2.22805L64.051 5.8299L63.5207 6.90043L62.6906 8.5763L62.5081 8.94482L61.765 8.5763L60.1725 7.7873L61.1838 5.74291H61.1851L61.7143 4.67238L63.4977 1.07053L64.0221 0.0120834L64.0281 0L64.335 0.152243Z" fill="#E6E6E6"/>
<path d="M66.3637 1.15631L65.8333 2.22805L63.4977 1.07053L64.0221 0.0120827L64.0281 0L64.335 0.152242L66.3637 1.15631Z" fill="#CCCCCC"/>
<path d="M61.7143 4.67261L61.1842 5.74341L63.5205 6.90008L64.0506 5.82928L61.7143 4.67261Z" fill="#CCCCCC"/>
<path d="M85.986 41.3796C85.9655 41.5186 85.9425 41.6587 85.9183 41.7965C85.8761 42.0575 85.8301 42.316 85.7806 42.5746H55.3745V41.3796H85.986Z" fill="#E6E6E6"/>
<path d="M69.6038 31.3865H66.9968V41.7056H69.6038V31.3865Z" fill="#E6E6E6"/>
<path d="M69.6038 33.0159H66.9968V34.2107H69.6038V33.0159Z" fill="#CCCCCC"/>
<path d="M69.6038 38.2297H66.9968V39.4246H69.6038V38.2297Z" fill="#CCCCCC"/>
<path d="M73.6228 31.3865H71.0159V41.7056H73.6228V31.3865Z" fill="#E6E6E6"/>
<path d="M73.6228 33.0159H71.0159V34.2107H73.6228V33.0159Z" fill="#CCCCCC"/>
<path d="M73.6228 38.2297H71.0159V39.4246H73.6228V38.2297Z" fill="#CCCCCC"/>
<path d="M64.7506 31.3438L60.1721 40.5916L62.5084 41.7482L67.0869 32.5004L64.7506 31.3438Z" fill="#E6E6E6"/>
<path d="M64.0277 32.804L63.4976 33.8748L65.8338 35.0314L66.364 33.9606L64.0277 32.804Z" fill="#CCCCCC"/>
<path d="M61.7143 37.4766L61.1842 38.5474L63.5205 39.704L64.0506 38.6332L61.7143 37.4766Z" fill="#CCCCCC"/>
<path d="M35.3779 45.9845C35.4868 46.0472 35.5907 46.1183 35.6884 46.1974L46.4455 42.8497L47.0521 40.1809L51.1995 40.5699L50.5848 45.3989C50.5352 45.7891 50.3603 46.1525 50.0865 46.4348C49.8126 46.7171 49.4546 46.9029 49.0662 46.9644L36.4068 48.9687C36.2221 49.4163 35.9055 49.7971 35.4991 50.0605C35.0927 50.3238 34.6158 50.4571 34.1318 50.4428C33.6477 50.4284 33.1796 50.267 32.7895 49.9801C32.3994 49.6932 32.1059 49.2943 31.9481 48.8365C31.7903 48.3787 31.7755 47.8837 31.9059 47.4173C32.0362 46.951 32.3055 46.5353 32.6778 46.2257C33.0502 45.9161 33.5079 45.7272 33.9902 45.6841C34.4726 45.641 34.9566 45.7458 35.3779 45.9845Z" fill="#FFB8B8"/>
<path d="M53.1163 42.1709L53.045 40.953V40.9518L53.0257 40.6183L52.8155 37.0321C52.8784 36.2845 52.6425 35.5425 52.1594 34.9684C51.6764 34.3943 50.9856 34.035 50.2382 33.9692C50.0232 33.9499 49.8067 33.9556 49.593 33.9861C48.9582 34.0759 48.3723 34.3775 47.9303 34.842C47.4884 35.3065 47.2163 35.9067 47.1583 36.5452L46.7221 38.36L45.9597 41.5342C45.9057 41.7562 45.9281 41.99 46.0232 42.1978C46.1184 42.4057 46.2807 42.5754 46.4841 42.6796C46.6016 42.7414 46.7301 42.7792 46.8623 42.7908L48.1334 42.9043L49.3574 43.0131L50.7698 43.1387L50.8714 43.1472L51.1323 43.1714L52.0059 43.2487H52.0083C52.1542 43.2605 52.301 43.2411 52.4389 43.192C52.5767 43.1428 52.7026 43.0649 52.8082 42.9635C52.8851 42.8886 52.9499 42.8022 53.0003 42.7074C53.0884 42.5429 53.1286 42.3571 53.1163 42.1709Z" fill="#4B93E7"/>
<path d="M64.9205 27.4025C64.9205 31.5379 61.0968 30.9124 56.3799 30.9124C51.663 30.9124 47.8392 31.5379 47.8392 27.4025C47.8392 23.2672 49.7071 15.937 56.3799 15.937C63.2826 15.937 64.9205 23.2672 64.9205 27.4025Z" fill="#082777"/>
<path d="M60.4151 29.2222C62.6594 26.9779 62.6594 23.339 60.4151 21.0947C58.1707 18.8503 54.5319 18.8503 52.2875 21.0947C50.0432 23.339 50.0432 26.9779 52.2875 29.2222C54.5319 31.4666 58.1707 31.4666 60.4151 29.2222Z" fill="#FFB8B8"/>
<path d="M64.4413 33.3216C64.3307 33.215 64.2133 33.1157 64.0898 33.0243C63.3084 32.434 62.3265 32.1741 61.3554 32.3006L50.7649 33.6405C49.7949 33.761 48.9098 34.2545 48.2974 35.0164C47.6851 35.7783 47.3935 36.7488 47.4845 37.7221C47.5147 38.0604 47.5486 38.4168 47.586 38.7878C47.6343 39.253 47.6887 39.7411 47.7515 40.2462C47.8554 41.0956 47.9823 41.9921 48.1333 42.9043C48.265 43.6897 48.4149 44.486 48.5864 45.2725C48.636 45.4997 48.6875 45.7261 48.7411 45.9516C48.741 45.9523 48.7411 45.9529 48.7413 45.9536C48.7415 45.9542 48.7418 45.9548 48.7423 45.9552C48.7483 45.983 48.7543 46.0108 48.7616 46.0374C48.7613 46.0395 48.7617 46.0416 48.7628 46.0434C48.8378 46.3576 48.9163 46.6681 48.9985 46.975C49.0299 47.0886 49.0601 47.2009 49.0915 47.3121C49.1761 47.6142 49.2655 47.9102 49.3573 48.2014C50.0472 50.3678 50.9594 52.2128 52.1641 53.194C52.1798 53.2085 52.1956 53.2205 52.2124 53.2338L52.2608 53.2713L52.3308 53.2495L52.6281 53.1613L52.8818 53.084L56.1877 52.0896L57.0105 51.8419L59.6542 51.0457H59.6554L62.0732 50.3183L62.368 50.2289L64.445 49.6042L64.5114 48.8285L64.6009 47.799L64.654 47.1804L65.0745 42.3014L65.3197 39.4547L65.5856 36.364C65.635 35.8035 65.5578 35.2391 65.3597 34.7125C65.1617 34.1859 64.8478 33.7106 64.4413 33.3216Z" fill="#082777"/>
<path d="M70.3631 56.93C70.3353 56.8491 70.3087 56.7681 70.2809 56.6884C69.0388 53.0636 67.2071 50.322 64.5114 48.8286C64.5102 48.8286 64.5102 48.8274 64.509 48.8274L64.4631 48.802L62.1142 49.6152L61.8242 49.7155L61.5222 49.8206L61.5185 49.8218L59.3195 50.583L59.3158 50.5842L57.5905 51.1811H57.5892L55.9931 51.7333H55.9919L55.6209 51.8626L52.8311 52.828L52.5072 52.9403L52.2173 53.0406L52.1725 53.0563L52.1641 53.1941L51.9647 56.6884L51.9515 56.93L51.7026 61.2907L43.4368 73H49.0914C50.9862 73.0004 52.8782 72.8562 54.751 72.5687L60.0565 66.8511C60.101 66.8051 60.1571 66.7721 60.219 66.7556C60.2809 66.7392 60.346 66.74 60.4075 66.7579C60.4689 66.7758 60.5243 66.8102 60.5677 66.8573C60.611 66.9044 60.6407 66.9624 60.6534 67.0251L61.4327 70.8916C65.2721 69.5339 68.8638 67.5577 72.0655 65.0411C71.6933 62.0386 71.1496 59.3019 70.3631 56.93Z" fill="#082777"/>
<path d="M49.7112 24.5947H51.9843L52.987 21.7868L53.1876 24.5947H54.274L54.859 22.9568L54.976 24.5947H63.0486C63.0486 23.7958 62.8913 23.0047 62.5855 22.2666C62.2798 21.5285 61.8317 20.8578 61.2668 20.2929C60.7018 19.7279 60.0312 19.2798 59.293 18.9741C58.5549 18.6683 57.7638 18.511 56.9649 18.511H55.7949C54.1814 18.511 52.634 19.152 51.4931 20.2929C50.3521 21.4338 49.7112 22.9812 49.7112 24.5947Z" fill="#082777"/>
<path d="M35.7296 55.0436C35.3585 55.1995 34.9577 55.2722 34.5555 55.2564C34.1533 55.2407 33.7594 55.137 33.4016 54.9526C33.0438 54.7682 32.7308 54.5075 32.4847 54.1891C32.2385 53.8706 32.0651 53.502 31.9768 53.1093L22.2544 52.0082L25.5135 48.1055L34.2464 49.7494C34.9159 49.6448 35.6006 49.7894 36.1707 50.1558C36.7408 50.5223 37.1567 51.0851 37.3395 51.7377C37.5223 52.3903 37.4594 53.0873 37.1627 53.6965C36.866 54.3058 36.3561 54.7851 35.7296 55.0436Z" fill="#A0616A"/>
<path d="M30.4878 47.8197L26.3784 47.085L26.08 47.0319C25.8415 46.9893 25.6148 46.8967 25.4146 46.7602C25.2144 46.6238 25.0454 46.4465 24.9186 46.24C24.7919 46.0336 24.7102 45.8027 24.679 45.5624C24.6478 45.3222 24.6678 45.0781 24.7377 44.8461L26.7554 38.1414L26.8158 37.9421C27.0678 37.0899 27.0229 36.1774 26.6886 35.354C26.3543 34.5307 25.7504 33.8452 24.9757 33.4098C24.4513 33.1186 23.8668 32.9523 23.2676 32.9238C22.6685 32.8953 22.0708 33.0054 21.5212 33.2455C20.9715 33.4857 20.4846 33.8493 20.0984 34.3083C19.7122 34.7672 19.4371 35.309 19.2944 35.8916L16.7208 46.3951L16.6253 46.7842C16.4456 47.5171 16.426 48.2801 16.5679 49.0213C16.7097 49.7624 17.0098 50.4643 17.4475 51.079C17.8852 51.6937 18.4504 52.2067 19.1044 52.5832C19.7584 52.9597 20.4859 53.1907 21.2373 53.2605C21.2457 53.2617 21.253 53.2617 21.2615 53.2629L22.802 53.3995L24.8004 53.5771L27.3137 53.8006L29.6589 54.0096C29.9661 54.0375 30.2725 53.9488 30.5174 53.7613C30.7623 53.5737 30.9277 53.3009 30.9808 52.9971C30.9844 52.9802 30.9868 52.9633 30.9892 52.9464L31.487 49.2297L31.4919 49.1959C31.5348 48.8812 31.4542 48.5621 31.267 48.3055C31.0798 48.049 30.8006 47.8748 30.4878 47.8197Z" fill="#CCCCCC"/>
<path d="M24.1567 19.6588C22.5162 22.884 21.2234 26.2105 17.605 26.2105C15.8673 26.2105 14.2009 25.5202 12.9722 24.2915C11.7435 23.0629 11.0532 21.3964 11.0532 19.6588C11.0532 16.0403 13.9868 13.1523 17.605 13.107C21.2823 13.061 27.21 13.6557 24.1567 19.6588Z" fill="#082777"/>
<path d="M28.2718 61.8512L28.1231 60.3674L28.012 60.3735L8.47546 61.3147L8.5262 62.8166L8.61204 65.389C11.635 67.6918 14.992 69.5192 18.5669 70.8081L18.6938 69.8246C18.7049 69.7444 18.7434 69.6706 18.8027 69.6155C18.862 69.5605 18.9384 69.5276 19.0192 69.5225C19.0999 69.5173 19.18 69.5403 19.2457 69.5874C19.3115 69.6345 19.359 69.703 19.3801 69.7811L19.7655 71.2177C22.8797 72.222 26.1136 72.8075 29.3822 72.9588L28.2718 61.8512Z" fill="#082777"/>
<path d="M21.9911 24.6548C24.2355 22.4105 24.2355 18.7716 21.9911 16.5273C19.7468 14.2829 16.1079 14.2829 13.8636 16.5273C11.6192 18.7716 11.6192 22.4105 13.8636 24.6548C16.1079 26.8992 19.7468 26.8992 21.9911 24.6548Z" fill="#A0616A"/>
<path d="M29.3943 60.468L28.2549 56.9301L28.2356 56.8697L28.1776 56.6885L27.8526 55.6808C27.7474 55.3533 27.6471 55.0247 27.5541 54.6948C27.4683 54.3976 27.3882 54.0996 27.3137 53.8007C27.2074 53.3851 27.1107 52.9678 27.0237 52.549C26.7288 51.1414 26.5322 49.715 26.4353 48.2801C26.4087 47.8826 26.3897 47.4843 26.3784 47.0852C26.3077 44.6387 26.5279 42.1925 27.0346 39.7981C27.4756 37.7275 27.24 35.57 26.3625 33.6434C25.485 31.7167 24.012 30.1228 22.1604 29.0965C20.9454 28.4249 19.6006 28.0216 18.2166 27.9136C18.1212 27.9063 18.0257 27.9003 17.9291 27.8942C16.4671 27.8018 15.003 28.039 13.6449 28.5882C12.2868 29.1373 11.0694 29.9845 10.0826 31.0671C9.55399 31.6429 9.09491 32.2788 8.71476 32.9617C7.66 34.8621 7.26404 37.0582 7.58868 39.2073L8.94674 48.3261L8.63748 52.1647L8.27258 56.6885L8.25323 56.9301L7.86414 61.7536C7.84571 61.9784 7.90015 62.2032 8.0194 62.3947C8.13864 62.5862 8.31636 62.7342 8.52627 62.8168C8.64921 62.8661 8.78051 62.8911 8.91294 62.8905C8.93229 62.8905 8.9504 62.8905 8.96975 62.8893L28.2719 61.8514L28.4483 61.8418C28.6093 61.8334 28.7662 61.7881 28.9069 61.7094C29.0476 61.6308 29.1684 61.5208 29.2598 61.388C29.3513 61.2552 29.4109 61.1032 29.4343 60.9436C29.4576 60.7841 29.4439 60.6214 29.3943 60.468Z" fill="#CCCCCC"/>
<path d="M24.0259 17.3431C22.7126 18.2483 21.1539 18.73 19.5589 18.7237C20.1278 19.1182 20.7755 19.3846 21.4574 19.5047C19.3367 19.9596 17.145 19.9719 15.0194 19.5409C14.5469 19.4651 14.091 19.3085 13.6716 19.078C13.2635 18.8302 12.9221 18.4357 12.8398 17.9654C12.6985 17.1585 13.3273 16.4254 13.9807 15.9313C14.9811 15.1864 16.1346 14.6732 17.3578 14.4288C18.5809 14.1844 19.843 14.2149 21.0529 14.5181C21.8429 14.7223 22.6344 15.0674 23.1475 15.7018C23.6606 16.3362 23.8126 17.3143 23.3237 17.9676L24.0259 17.3431Z" fill="#082777"/>
<path d="M24.3198 53.8481C23.9521 54.012 23.553 54.0933 23.1506 54.0863C22.7481 54.0793 22.3521 53.9842 21.9904 53.8075C21.6287 53.6309 21.3101 53.3771 21.0571 53.0641C20.804 52.751 20.6228 52.3863 20.526 51.9955L10.782 51.1052L13.9558 47.1328L22.7223 48.5873C23.3894 48.4682 24.0771 48.5979 24.655 48.9519C25.2328 49.306 25.6608 49.8597 25.8577 50.5081C26.0546 51.1566 26.0068 51.8548 25.7234 52.4704C25.4399 53.0859 24.9405 53.5761 24.3198 53.8481Z" fill="#A0616A"/>
<path d="M18.9235 46.7395L16.7208 46.3951L14.4988 46.0472C14.2595 46.0098 14.0308 45.9222 13.8277 45.7901C13.6247 45.6581 13.4519 45.4846 13.3206 45.281C13.1894 45.0774 13.1027 44.8484 13.0663 44.6089C13.0299 44.3695 13.0445 44.125 13.1093 43.8916L15.0377 36.9441C15.271 36.0866 15.2064 35.1754 14.8543 34.3595C14.5022 33.5436 13.8835 32.8714 13.0996 32.4529C12.57 32.1704 11.9819 32.0151 11.3819 31.9994C10.7819 31.9836 10.1864 32.1079 9.64276 32.3623C9.09743 32.6127 8.61769 32.9863 8.24133 33.4536C7.86496 33.921 7.60225 34.4694 7.47389 35.0555L5.04166 46.0037C4.87781 46.7422 4.87544 47.5074 5.03471 48.2469C5.19399 48.9864 5.51114 49.6827 5.96446 50.2883C6.41779 50.8939 6.9966 51.3944 7.66128 51.7556C8.32595 52.1167 9.06081 52.33 9.81556 52.3809L18.2287 52.9452C18.5364 52.9662 18.8407 52.8709 19.0814 52.6783C19.3222 52.4856 19.4818 52.2096 19.5288 51.9049C19.5324 51.8879 19.5336 51.871 19.536 51.8541L19.9529 48.1278L19.9565 48.094C19.9924 47.7785 19.905 47.4614 19.7125 47.2089C19.5199 46.9565 19.2372 46.7883 18.9235 46.7395Z" fill="#CCCCCC"/>
<path d="M56.1957 40.964L55.6915 41.2391L49.4796 44.6285L48.9754 44.9036C48.7307 45.0374 48.5491 45.2629 48.4705 45.5304C48.3918 45.798 48.4225 46.0858 48.5558 46.3308L53.1817 54.8089C53.3155 55.0536 53.541 55.2351 53.8085 55.3138C54.0761 55.3925 54.3639 55.3618 54.6089 55.2285L54.6102 55.2278L61.8279 51.2896L61.8292 51.2889C62.0738 51.1551 62.2554 50.9296 62.3341 50.6621C62.4127 50.3945 62.382 50.1067 62.2487 49.8617L57.6229 41.3836C57.489 41.1389 57.2636 40.9573 56.996 40.8787C56.7285 40.8 56.4407 40.8307 56.1957 40.964Z" fill="#E6E6E6"/>
<path d="M56.3408 41.2296L55.7436 41.5555L49.7176 44.8434L49.1205 45.1692C48.9462 45.2645 48.8169 45.425 48.7609 45.6156C48.7049 45.8061 48.7268 46.0111 48.8217 46.1855L53.4475 54.6637C53.5429 54.8379 53.7034 54.9672 53.8939 55.0232C54.0845 55.0792 54.2894 55.0574 54.4639 54.9625L54.4652 54.9617L61.6829 51.0236L61.6842 51.0229C61.8584 50.9276 61.9877 50.767 62.0437 50.5765C62.0997 50.386 62.0779 50.181 61.983 50.0066L57.3571 41.5284C57.2618 41.3542 57.1012 41.2249 56.9107 41.1689C56.7202 41.1129 56.5152 41.1347 56.3408 41.2296Z" fill="white"/>
<path d="M56.5103 43.6234C56.4878 43.5827 56.4502 43.5525 56.4057 43.5394C56.3611 43.5263 56.3131 43.5313 56.2722 43.5533L56.0318 43.685L53.5802 45.0226C53.5396 45.045 53.5096 45.0826 53.4966 45.1271C53.4837 45.1716 53.4888 45.2194 53.511 45.2601C53.5332 45.3008 53.5706 45.3311 53.615 45.3443C53.6594 45.3575 53.7073 45.3526 53.7481 45.3307L56.4402 43.8614C56.4809 43.839 56.511 43.8014 56.5242 43.7568C56.5373 43.7123 56.5323 43.6643 56.5103 43.6234Z" fill="#E6E6E6"/>
<path d="M57.4274 43.7961C57.4164 43.7759 57.4016 43.7581 57.3837 43.7437C57.3659 43.7293 57.3454 43.7186 57.3233 43.7122C57.3013 43.7058 57.2782 43.7038 57.2554 43.7064C57.2326 43.709 57.2106 43.7161 57.1905 43.7272L53.8641 45.542C53.844 45.5531 53.8262 45.568 53.8118 45.5859C53.7974 45.6038 53.7867 45.6243 53.7802 45.6464C53.7738 45.6684 53.7717 45.6915 53.7742 45.7144C53.7767 45.7372 53.7836 45.7593 53.7947 45.7795C53.8057 45.7996 53.8206 45.8174 53.8385 45.8318C53.8564 45.8462 53.877 45.8569 53.899 45.8634C53.921 45.8698 53.9442 45.8719 53.967 45.8694C53.9898 45.8669 54.012 45.86 54.0321 45.8489L54.1868 45.7644L55.1546 45.2363H55.1558L57.3573 44.0341C57.3776 44.0232 57.3957 44.0084 57.4102 43.9905C57.4248 43.9726 57.4357 43.952 57.4422 43.9298C57.4488 43.9076 57.4508 43.8844 57.4482 43.8614C57.4457 43.8385 57.4386 43.8163 57.4274 43.7961Z" fill="#E6E6E6"/>
<path d="M53.8122 46.6887L52.7561 44.7519C52.7451 44.7324 52.7269 44.7181 52.7055 44.712C52.684 44.7059 52.6609 44.7085 52.6414 44.7193L52.129 44.9984L51.8633 45.1433L50.4363 45.9215L50.1596 46.0725C50.1401 46.0835 50.1258 46.1017 50.1197 46.1232C50.1136 46.1447 50.1162 46.1677 50.127 46.1873L50.1946 46.3117L51.183 48.1242C51.1937 48.1435 51.2117 48.1578 51.233 48.1639C51.2543 48.17 51.2771 48.1675 51.2965 48.1568L53.0002 47.2276L53.266 47.0826L53.7783 46.8035C53.7881 46.7982 53.7968 46.7911 53.8038 46.7824C53.8108 46.7738 53.816 46.7639 53.8192 46.7532C53.8223 46.7425 53.8233 46.7313 53.8221 46.7203C53.8209 46.7092 53.8176 46.6985 53.8122 46.6887Z" fill="#E6E6E6"/>
<path d="M57.8455 46.0809C57.8233 46.0403 57.7859 46.0101 57.7415 45.9969C57.6971 45.9838 57.6493 45.9888 57.6086 46.0108L53.9572 48.0033C53.925 48.0209 53.8991 48.0483 53.8833 48.0815C53.8675 48.1147 53.8625 48.152 53.869 48.1881C53.8716 48.2069 53.8778 48.2249 53.8872 48.2413C53.8964 48.258 53.9082 48.2731 53.9222 48.286L53.9234 48.2872C53.9505 48.3115 53.9844 48.3269 54.0205 48.3312C54.0566 48.3355 54.0932 48.3286 54.1252 48.3114L57.7766 46.319C57.7968 46.3079 57.8146 46.2929 57.829 46.275C57.8434 46.257 57.8541 46.2364 57.8605 46.2142C57.8669 46.1921 57.8688 46.169 57.8662 46.1461C57.8637 46.1232 57.8566 46.1011 57.8455 46.0809Z" fill="#E6E6E6"/>
<path d="M58.7638 46.2537C58.7527 46.2336 58.7377 46.2158 58.7197 46.2014C58.7017 46.1871 58.6811 46.1764 58.659 46.17C58.6369 46.1636 58.6138 46.1616 58.5909 46.1642C58.568 46.1667 58.5459 46.1738 58.5257 46.1849L54.24 48.5229C54.2078 48.5399 54.1818 48.5668 54.166 48.5996C54.1501 48.6324 54.1451 48.6695 54.1518 48.7053V48.7065C54.1544 48.7253 54.1605 48.7433 54.1699 48.7597C54.1792 48.777 54.1915 48.7925 54.2062 48.8056C54.2329 48.8304 54.2669 48.8462 54.3031 48.8505C54.3394 48.8548 54.3761 48.8476 54.4079 48.8298L58.6937 46.4918C58.7344 46.4694 58.7647 46.4318 58.7778 46.3872C58.7909 46.3426 58.7859 46.2946 58.7638 46.2537Z" fill="#E6E6E6"/>
<path d="M52.7342 49.9428C53.1446 49.9428 53.4774 49.6101 53.4774 49.1997C53.4774 48.7893 53.1446 48.4565 52.7342 48.4565C52.3238 48.4565 51.9911 48.7893 51.9911 49.1997C51.9911 49.6101 52.3238 49.9428 52.7342 49.9428Z" fill="#E6E6E6"/>
<path d="M58.3706 37.7016L57.8664 37.9767L51.6545 41.366L51.1503 41.6411C50.9056 41.775 50.7241 42.0004 50.6454 42.268C50.5668 42.5355 50.5974 42.8233 50.7307 43.0683L55.3566 51.5465C55.4905 51.7911 55.7159 51.9727 55.9834 52.0513C56.251 52.13 56.5388 52.0993 56.7838 51.966L56.7851 51.9653L64.0028 48.0272L64.0041 48.0265C64.2488 47.8926 64.4303 47.6672 64.509 47.3996C64.5876 47.1321 64.557 46.8442 64.4237 46.5993L59.7978 38.1211C59.6639 37.8765 59.4385 37.6949 59.171 37.6162C58.9034 37.5376 58.6156 37.5683 58.3706 37.7016Z" fill="#CCCCCC"/>
<path d="M58.5157 37.9674L57.9185 38.2933L51.8926 41.5812L51.2954 41.907C51.1212 42.0023 50.9919 42.1628 50.9358 42.3534C50.8798 42.5439 50.9017 42.7489 50.9966 42.9233L55.6225 51.4015C55.7178 51.5757 55.8783 51.705 56.0689 51.761C56.2594 51.817 56.4644 51.7952 56.6388 51.7002L56.6401 51.6995L63.8578 47.7614L63.8591 47.7607C64.0333 47.6654 64.1626 47.5048 64.2187 47.3143C64.2747 47.1238 64.2528 46.9188 64.1579 46.7444L59.532 38.2662C59.4367 38.092 59.2762 37.9627 59.0856 37.9067C58.8951 37.8507 58.6902 37.8725 58.5157 37.9674Z" fill="white"/>
<path d="M58.6852 40.361C58.6628 40.3203 58.6252 40.2901 58.5806 40.277C58.536 40.2638 58.4881 40.2688 58.4471 40.2909L57.2075 40.9675L56.8619 41.156L55.7551 41.7601C55.7146 41.7825 55.6845 41.8201 55.6716 41.8646C55.6586 41.9091 55.6638 41.9569 55.6859 41.9976C55.7081 42.0384 55.7455 42.0686 55.7899 42.0818C55.8344 42.0951 55.8822 42.0902 55.9231 42.0682L57.228 41.3566L57.5011 41.2067L58.6151 40.599C58.6558 40.5765 58.686 40.5389 58.6991 40.4944C58.7122 40.4498 58.7072 40.4019 58.6852 40.361Z" fill="#CCCCCC"/>
<path d="M59.6023 40.5339C59.5913 40.5137 59.5765 40.4959 59.5587 40.4815C59.5408 40.4671 59.5203 40.4564 59.4982 40.45C59.4762 40.4436 59.4531 40.4416 59.4303 40.4442C59.4076 40.4468 59.3855 40.4539 59.3655 40.465L57.6364 41.4087L57.3706 41.5537L56.0391 42.2798C56.0189 42.2909 56.0011 42.3057 55.9867 42.3236C55.9723 42.3415 55.9616 42.3621 55.9552 42.3842C55.9487 42.4062 55.9467 42.4293 55.9491 42.4521C55.9516 42.475 55.9586 42.4971 55.9696 42.5173C55.9806 42.5374 55.9955 42.5552 56.0134 42.5696C56.0313 42.584 56.0519 42.5947 56.0739 42.6012C56.096 42.6076 56.1191 42.6097 56.1419 42.6072C56.1648 42.6047 56.1869 42.5978 56.207 42.5867L57.5385 41.8606L57.8044 41.7156L59.5322 40.7719C59.5526 40.761 59.5706 40.7462 59.5852 40.7283C59.5998 40.7104 59.6106 40.6898 59.6171 40.6676C59.6237 40.6454 59.6257 40.6222 59.6232 40.5992C59.6206 40.5763 59.6135 40.5541 59.6023 40.5339Z" fill="#CCCCCC"/>
<path d="M55.9871 43.4265L55.1449 41.8824L55 41.6165L54.9311 41.4897C54.9201 41.4702 54.9019 41.4559 54.8804 41.4498C54.8589 41.4437 54.8359 41.4463 54.8163 41.457L53.1066 42.3898L52.3345 42.8103C52.3151 42.8213 52.3007 42.8395 52.2946 42.861C52.2885 42.8825 52.2911 42.9055 52.3019 42.9251L52.3707 43.0508L52.4457 43.1897L52.5158 43.3166V43.3178L53.3579 44.862C53.3687 44.8813 53.3867 44.8956 53.4079 44.9017C53.4292 44.9078 53.4521 44.9053 53.4715 44.8946L55.9532 43.5413C55.963 43.536 55.9717 43.5289 55.9787 43.5202C55.9857 43.5116 55.991 43.5017 55.9941 43.491C55.9973 43.4803 55.9983 43.4691 55.9971 43.458C55.9959 43.447 55.9925 43.4363 55.9871 43.4265Z" fill="#4B93E7"/>
<path d="M60.0202 42.8187C59.9981 42.7781 59.9607 42.7479 59.9163 42.7347C59.8719 42.7216 59.8241 42.7266 59.7834 42.7486L58.6923 43.3443L58.4265 43.4893L57.3729 44.0632L56.132 44.7411C56.1118 44.7521 56.0939 44.767 56.0794 44.7849C56.065 44.8029 56.0542 44.8235 56.0477 44.8456C56.0412 44.8677 56.0391 44.8908 56.0415 44.9138C56.044 44.9367 56.0509 44.9589 56.0619 44.9791C56.073 44.9993 56.0879 45.0172 56.1058 45.0317C56.1237 45.0461 56.1443 45.0569 56.1664 45.0634C56.1885 45.0699 56.2117 45.072 56.2346 45.0696C56.2575 45.0671 56.2797 45.0602 56.3 45.0492L58.5945 43.7974L58.8603 43.6524L59.9514 43.0567C59.9716 43.0457 59.9894 43.0307 60.0038 43.0128C60.0181 42.9948 60.0289 42.9741 60.0353 42.952C60.0417 42.9299 60.0436 42.9068 60.041 42.8839C60.0385 42.861 60.0314 42.8389 60.0202 42.8187Z" fill="#CCCCCC"/>
<path d="M60.9385 42.9915C60.9274 42.9714 60.9125 42.9536 60.8945 42.9392C60.8765 42.9249 60.8559 42.9142 60.8338 42.9078C60.8117 42.9014 60.7885 42.8994 60.7656 42.902C60.7428 42.9045 60.7206 42.9116 60.7005 42.9227L58.9763 43.8639L58.7105 44.0089L56.4148 45.2607C56.3945 45.2716 56.3766 45.2865 56.3621 45.3044C56.3476 45.3223 56.3368 45.3429 56.3303 45.365C56.3238 45.3871 56.3217 45.4102 56.3241 45.4332C56.3266 45.4561 56.3335 45.4782 56.3446 45.4985C56.3556 45.5187 56.3706 45.5365 56.3885 45.5509C56.4065 45.5653 56.4272 45.5761 56.4493 45.5825C56.4714 45.5889 56.4946 45.5909 56.5175 45.5883C56.5404 45.5858 56.5625 45.5787 56.5827 45.5676L58.8772 44.3158L59.1431 44.1708L60.8685 43.2296C60.9092 43.2072 60.9395 43.1696 60.9526 43.125C60.9657 43.0804 60.9607 43.0324 60.9385 42.9915Z" fill="#CCCCCC"/>
<path d="M54.909 46.6804C55.3194 46.6804 55.6522 46.3476 55.6522 45.9372C55.6522 45.5268 55.3194 45.1941 54.909 45.1941C54.4986 45.1941 54.1659 45.5268 54.1659 45.9372C54.1659 46.3476 54.4986 46.6804 54.909 46.6804Z" fill="#CCCCCC"/>
<path d="M55.4083 50.1152C55.5334 50.1276 55.6573 50.1497 55.7789 50.1815L64.2066 42.7052L63.6616 40.0231L67.6019 38.6716L69.0281 43.326C69.1433 43.702 69.1334 44.1053 69 44.4752C68.8665 44.8451 68.6167 45.1618 68.2879 45.3776L57.5737 52.412C57.5895 52.896 57.4576 53.3733 57.1955 53.7805C56.9334 54.1877 56.5535 54.5054 56.1064 54.6915C55.6594 54.8775 55.1662 54.923 54.6927 54.8219C54.2191 54.7209 53.7875 54.478 53.4553 54.1257C53.1231 53.7733 52.9061 53.3282 52.8331 52.8495C52.76 52.3708 52.8345 51.8812 53.0465 51.4458C53.2585 51.0105 53.598 50.65 54.0199 50.4123C54.4418 50.1746 54.9261 50.071 55.4083 50.1152Z" fill="#FFB8B8"/>
<path d="M70.0079 39.3412L67.6203 34.7812C67.3746 34.0876 66.869 33.5167 66.2102 33.1889C65.5515 32.8611 64.7912 32.8021 64.0897 33.0243C64.0631 33.0316 64.0378 33.04 64.0112 33.0497C63.3004 33.2982 62.7172 33.8185 62.3897 34.4965C62.0621 35.1745 62.0169 35.9548 62.264 36.6661L63.2222 41.7057C63.2496 41.85 63.3079 41.9867 63.393 42.1064C63.478 42.226 63.5879 42.326 63.7152 42.3993C63.8542 42.4806 64.0109 42.5271 64.1719 42.5346C64.3043 42.543 64.4371 42.5245 64.5621 42.4803L65.0745 42.3014L68.3634 41.156L69.4388 40.7814C69.5774 40.7329 69.7041 40.6551 69.81 40.5533C69.9159 40.4515 69.9987 40.3281 70.0527 40.1915C70.1067 40.0548 70.1306 39.9081 70.1229 39.7614C70.1152 39.6147 70.0759 39.4714 70.0079 39.3412Z" fill="#4B93E7"/>
<path d="M79.0208 56.9301H0.120827C0.0887816 56.9301 0.0580487 56.9174 0.0353893 56.8947C0.0127299 56.8721 0 56.8413 0 56.8093C0 56.7773 0.0127299 56.7465 0.0353893 56.7239C0.0580487 56.7012 0.0887816 56.6885 0.120827 56.6885H79.0208C79.0528 56.6885 79.0836 56.7012 79.1062 56.7239C79.1289 56.7465 79.1416 56.7773 79.1416 56.8093C79.1416 56.8413 79.1289 56.8721 79.1062 56.8947C79.0836 56.9174 79.0528 56.9301 79.0208 56.9301Z" fill="#3F3D56"/>
<path d="M13.7134 54.6948V54.7552C13.7138 55.1649 13.8331 55.5656 14.0568 55.9087C14.2805 56.2519 14.599 56.5228 14.9736 56.6885C15.2424 56.8086 15.5335 56.8704 15.8279 56.8697H35.3414V54.6948H13.7134Z" fill="#3F3D56"/>
<path d="M48.9658 40.3609C48.6562 39.7217 48.1794 39.1781 47.586 38.7878C47.317 38.6097 47.0268 38.466 46.7221 38.3601C46.3069 38.2151 45.8702 38.1411 45.4304 38.1414H26.7023C25.6612 38.1426 24.6631 38.5567 23.9269 39.2928C23.1907 40.029 22.7766 41.0271 22.7754 42.0682V52.9427C22.7751 53.0953 22.7839 53.2478 22.802 53.3994C22.8285 53.6261 22.8746 53.85 22.9397 54.0688C23.0043 54.2843 23.0876 54.4937 23.1886 54.6946C23.5139 55.3482 24.0151 55.8981 24.6358 56.2823C25.2566 56.6665 25.9722 56.8699 26.7023 56.8695H45.4304C45.9462 56.8697 46.4569 56.7683 46.9334 56.571C47.4099 56.3737 47.8429 56.0845 48.2076 55.7198C48.5723 55.3551 48.8615 54.9222 49.0588 54.4456C49.2561 53.9691 49.3575 53.4584 49.3573 52.9427V42.0682C49.3582 41.4768 49.2243 40.8929 48.9658 40.3609Z" fill="#3F3D56"/>
<path d="M37.0934 48.472C37.6273 48.472 38.0601 48.0393 38.0601 47.5054C38.0601 46.9716 37.6273 46.5388 37.0934 46.5388C36.5596 46.5388 36.1268 46.9716 36.1268 47.5054C36.1268 48.0393 36.5596 48.472 37.0934 48.472Z" fill="white"/>
</g>
<defs>
<clipPath id="clip0_4_2170">
<rect width="86.427" height="73" fill="white"/>
</clipPath>
</defs>
</svg>
