<svg width="104" height="73" viewBox="0 0 104 73" fill="none" xmlns="http://www.w3.org/2000/svg">
<g clip-path="url(#clip0_4_2291)">
<path d="M22.9557 7.31249H16.3493C15.7141 7.31306 15.1052 7.56563 14.6561 8.01474C14.2069 8.46385 13.9544 9.07281 13.9538 9.70796V16.8704C13.8693 16.8654 13.7849 16.8578 13.7016 16.8477C12.1365 16.6831 10.6485 16.0844 9.40541 15.1193C8.1623 14.1542 7.21352 12.8611 6.66604 11.3856C6.11856 9.91014 5.99415 8.31107 6.30685 6.76869C6.61954 5.2263 7.35689 3.80194 8.43578 2.6562C9.51467 1.51046 10.8922 0.688897 12.413 0.284146C13.9338 -0.120606 15.5375 -0.0924509 17.0432 0.365437C18.5488 0.823326 19.8966 1.69274 20.9346 2.87565C21.9727 4.05856 22.6596 5.50792 22.9179 7.06033C22.9318 7.14354 22.9444 7.22802 22.9557 7.31249Z" fill="#F2F2F2"/>
<path d="M100.947 7.0603H16.3493C15.6473 7.06107 14.9743 7.34026 14.478 7.83662C13.9816 8.33298 13.7024 9.00597 13.7017 9.70793V54.3393C13.7024 55.0413 13.9816 55.7143 14.478 56.2106C14.9743 56.707 15.6473 56.9862 16.3493 56.9869H100.947C101.649 56.9862 102.322 56.707 102.818 56.2106C103.315 55.7143 103.594 55.0413 103.595 54.3393V9.70793C103.594 9.00597 103.315 8.33298 102.818 7.83662C102.322 7.34026 101.649 7.06107 100.947 7.0603ZM103.343 54.3393C103.342 54.9745 103.09 55.5834 102.64 56.0325C102.191 56.4817 101.582 56.7342 100.947 56.7348H16.3493C15.7141 56.7342 15.1052 56.4817 14.6561 56.0325C14.207 55.5834 13.9544 54.9745 13.9538 54.3393V9.70793C13.9544 9.07279 14.207 8.46382 14.6561 8.01471C15.1052 7.5656 15.7141 7.31303 16.3493 7.31246H100.947C101.582 7.31303 102.191 7.5656 102.64 8.01471C103.09 8.46382 103.342 9.07279 103.343 9.70793V54.3393Z" fill="#3F3D56"/>
<path d="M96.7865 14.2934H20.5097C20.4763 14.2934 20.4442 14.2801 20.4206 14.2565C20.397 14.2328 20.3837 14.2008 20.3837 14.1673C20.3837 14.1339 20.397 14.1018 20.4206 14.0782C20.4442 14.0545 20.4763 14.0413 20.5097 14.0413H96.7865C96.82 14.0413 96.8521 14.0545 96.8757 14.0782C96.8993 14.1018 96.9126 14.1339 96.9126 14.1673C96.9126 14.2008 96.8993 14.2328 96.8757 14.2565C96.8521 14.2801 96.82 14.2934 96.7865 14.2934Z" fill="#3F3D56"/>
<path d="M42.0691 51.5656C42.0356 51.5656 42.0036 51.5523 41.9799 51.5287C41.9563 51.505 41.943 51.473 41.943 51.4395V9.96006C41.943 9.92662 41.9563 9.89456 41.9799 9.87091C42.0036 9.84727 42.0356 9.83398 42.0691 9.83398C42.1025 9.83398 42.1346 9.84727 42.1582 9.87091C42.1819 9.89456 42.1951 9.92662 42.1951 9.96006V51.4395C42.1951 51.473 42.1819 51.505 42.1582 51.5287C42.1346 51.5523 42.1025 51.5656 42.0691 51.5656Z" fill="#3F3D56"/>
<path d="M61.1067 51.5656C61.0732 51.5656 61.0412 51.5523 61.0175 51.5287C60.9939 51.505 60.9806 51.473 60.9806 51.4395V9.96006C60.9806 9.92662 60.9939 9.89456 61.0175 9.87091C61.0412 9.84727 61.0732 9.83398 61.1067 9.83398C61.1401 9.83398 61.1722 9.84727 61.1958 9.87091C61.2195 9.89456 61.2327 9.92662 61.2327 9.96006V51.4395C61.2327 51.473 61.2195 51.505 61.1958 51.5287C61.1722 51.5523 61.1401 51.5656 61.1067 51.5656Z" fill="#3F3D56"/>
<path d="M80.1444 51.5656C80.111 51.5656 80.0789 51.5523 80.0552 51.5287C80.0316 51.505 80.0183 51.473 80.0183 51.4395V9.96006C80.0183 9.92662 80.0316 9.89456 80.0552 9.87091C80.0789 9.84727 80.111 9.83398 80.1444 9.83398C80.1778 9.83398 80.2099 9.84727 80.2335 9.87091C80.2572 9.89456 80.2705 9.92662 80.2705 9.96006V51.4395C80.2705 51.473 80.2572 51.505 80.2335 51.5287C80.2099 51.5523 80.1778 51.5656 80.1444 51.5656Z" fill="#3F3D56"/>
<path d="M29.8289 27.3067H25.222C25.0716 27.3065 24.9274 27.2467 24.821 27.1403C24.7147 27.034 24.6548 26.8898 24.6547 26.7393V21.3029C24.6548 21.1525 24.7147 21.0083 24.821 20.9019C24.9274 20.7956 25.0716 20.7358 25.222 20.7356H29.8289C29.9793 20.7358 30.1235 20.7956 30.2299 20.9019C30.3362 21.0083 30.3961 21.1525 30.3962 21.3029V26.7394C30.3961 26.8898 30.3362 27.034 30.2299 27.1403C30.1235 27.2467 29.9793 27.3065 29.8289 27.3067Z" fill="#4B93E7"/>
<path d="M36.3849 42.8143H31.778C31.6276 42.8141 31.4834 42.7543 31.3771 42.6479C31.2707 42.5415 31.2109 42.3973 31.2107 42.2469V36.8105C31.2109 36.6601 31.2707 36.5159 31.3771 36.4095C31.4834 36.3032 31.6276 36.2433 31.778 36.2432H36.3849C36.5353 36.2433 36.6795 36.3032 36.7859 36.4095C36.8923 36.5159 36.9521 36.6601 36.9523 36.8105V42.2469C36.9521 42.3973 36.8923 42.5415 36.7859 42.6479C36.6795 42.7543 36.5353 42.8141 36.3849 42.8143Z" fill="#4B93E7"/>
<path d="M51.2621 30.5848H46.6552C46.5048 30.5846 46.3606 30.5248 46.2542 30.4184C46.1479 30.312 46.0881 30.1678 46.0879 30.0174V24.581C46.0881 24.4306 46.1479 24.2864 46.2542 24.18C46.3606 24.0737 46.5048 24.0138 46.6552 24.0137H51.2621C51.4125 24.0138 51.5567 24.0737 51.6631 24.18C51.7695 24.2864 51.8293 24.4306 51.8295 24.581V30.0174C51.8293 30.1678 51.7695 30.3121 51.6631 30.4184C51.5567 30.5248 51.4125 30.5846 51.2621 30.5848Z" fill="#4B93E7"/>
<path d="M70.5519 24.6592H65.945C65.7946 24.6591 65.6504 24.5992 65.544 24.4929C65.4377 24.3865 65.3779 24.2423 65.3777 24.0919V18.6555C65.3779 18.5051 65.4377 18.3609 65.544 18.2545C65.6504 18.1481 65.7946 18.0883 65.945 18.0881H70.5519C70.7023 18.0883 70.8465 18.1481 70.9529 18.2545C71.0592 18.3609 71.1191 18.5051 71.1192 18.6555V24.0919C71.1191 24.2423 71.0592 24.3865 70.9529 24.4929C70.8465 24.5992 70.7023 24.6591 70.5519 24.6592Z" fill="#4B93E7"/>
<path d="M88.3288 24.6592H83.7219C83.5715 24.6591 83.4273 24.5992 83.3209 24.4929C83.2145 24.3865 83.1547 24.2423 83.1545 24.0919V18.6555C83.1547 18.5051 83.2145 18.3609 83.3209 18.2545C83.4273 18.1481 83.5715 18.0883 83.7219 18.0881H88.3288C88.4792 18.0883 88.6234 18.1481 88.7297 18.2545C88.8361 18.3609 88.8959 18.5051 88.8961 18.6555V24.0919C88.8959 24.2423 88.8361 24.3865 88.7297 24.4929C88.6234 24.5992 88.4792 24.6591 88.3288 24.6592Z" fill="#4B93E7"/>
<path d="M96.5238 26.1722H91.917C91.7665 26.172 91.6223 26.1122 91.516 26.0058C91.4096 25.8995 91.3498 25.7552 91.3496 25.6048V20.1684C91.3498 20.018 91.4096 19.8738 91.516 19.7674C91.6223 19.6611 91.7665 19.6012 91.917 19.6011H96.5238C96.6742 19.6012 96.8184 19.6611 96.9248 19.7674C97.0312 19.8738 97.091 20.018 97.0912 20.1684V25.6048C97.091 25.7552 97.0312 25.8995 96.9248 26.0058C96.8184 26.1122 96.6742 26.172 96.5238 26.1722Z" fill="#E6E6E6"/>
<path d="M92.8676 35.8799H88.2607C88.1103 35.8798 87.9661 35.8199 87.8597 35.7136C87.7534 35.6072 87.6935 35.463 87.6934 35.3126V29.8762C87.6935 29.7258 87.7534 29.5816 87.8597 29.4752C87.9661 29.3688 88.1103 29.309 88.2607 29.3088H92.8676C93.018 29.309 93.1622 29.3688 93.2686 29.4752C93.3749 29.5816 93.4347 29.7258 93.4349 29.8762V35.3126C93.4347 35.463 93.3749 35.6072 93.2686 35.7136C93.1622 35.8199 93.018 35.8798 92.8676 35.8799Z" fill="#E6E6E6"/>
<path d="M77.234 33.8628H72.6272C72.4767 33.8627 72.3325 33.8028 72.2262 33.6965C72.1198 33.5901 72.06 33.4459 72.0598 33.2955V27.8591C72.06 27.7087 72.1198 27.5645 72.2262 27.4581C72.3325 27.3517 72.4767 27.2919 72.6272 27.2917H77.234C77.3844 27.2919 77.5287 27.3517 77.635 27.4581C77.7414 27.5645 77.8012 27.7087 77.8014 27.8591V33.2955C77.8012 33.4459 77.7414 33.5901 77.635 33.6965C77.5287 33.8029 77.3844 33.8627 77.234 33.8628Z" fill="#F7AC25"/>
<path d="M68.2825 35.8799H63.6756C63.5252 35.8798 63.381 35.8199 63.2746 35.7136C63.1683 35.6072 63.1084 35.463 63.1083 35.3126V29.8762C63.1084 29.7258 63.1683 29.5816 63.2746 29.4752C63.381 29.3688 63.5252 29.309 63.6756 29.3088H68.2825C68.4329 29.309 68.5771 29.3688 68.6835 29.4752C68.7898 29.5816 68.8497 29.7258 68.8498 29.8762V35.3126C68.8497 35.463 68.7898 35.6072 68.6835 35.7136C68.5771 35.8199 68.4329 35.8798 68.2825 35.8799Z" fill="#E6E6E6"/>
<path d="M48.9927 44.4532H44.3858C44.2354 44.453 44.0912 44.3932 43.9848 44.2868C43.8785 44.1805 43.8187 44.0363 43.8185 43.8858V38.4494C43.8187 38.299 43.8785 38.1548 43.9848 38.0484C44.0912 37.9421 44.2354 37.8822 44.3858 37.8821H48.9927C49.1431 37.8822 49.2873 37.9421 49.3937 38.0484C49.5 38.1548 49.5599 38.299 49.56 38.4494V43.8858C49.5599 44.0363 49.5 44.1805 49.3937 44.2868C49.2873 44.3932 49.1431 44.453 48.9927 44.4532Z" fill="#E6E6E6"/>
<path d="M25.6684 37.2669H21.0615C20.9111 37.2667 20.7669 37.2069 20.6605 37.1005C20.5541 36.9942 20.4943 36.85 20.4941 36.6996V31.2631C20.4943 31.1127 20.5541 30.9685 20.6605 30.8622C20.7669 30.7558 20.9111 30.696 21.0615 30.6958H25.6684C25.8188 30.696 25.963 30.7558 26.0693 30.8622C26.1757 30.9685 26.2355 31.1127 26.2357 31.2631V36.6996C26.2355 36.85 26.1757 36.9942 26.0693 37.1005C25.963 37.2069 25.8188 37.2667 25.6684 37.2669Z" fill="#F7AC25"/>
<path d="M38.6543 27.3067H34.0475C33.897 27.3065 33.7528 27.2467 33.6465 27.1403C33.5401 27.034 33.4803 26.8898 33.4801 26.7393V21.3029C33.4803 21.1525 33.5401 21.0083 33.6465 20.9019C33.7528 20.7956 33.897 20.7358 34.0475 20.7356H38.6543C38.8047 20.7358 38.9489 20.7956 39.0553 20.9019C39.1617 21.0083 39.2215 21.1525 39.2217 21.3029V26.7394C39.2215 26.8898 39.1617 27.034 39.0553 27.1403C38.9489 27.2467 38.8047 27.3065 38.6543 27.3067Z" fill="#E6E6E6"/>
<path d="M34.8826 12.2296H27.6962C27.5625 12.2296 27.4342 12.1764 27.3396 12.0819C27.245 11.9873 27.1919 11.859 27.1919 11.7253C27.1919 11.5915 27.245 11.4632 27.3396 11.3687C27.4342 11.2741 27.5625 11.2209 27.6962 11.2209H34.8826C35.0164 11.2209 35.1446 11.2741 35.2392 11.3687C35.3338 11.4632 35.3869 11.5915 35.3869 11.7253C35.3869 11.859 35.3338 11.9873 35.2392 12.0819C35.1446 12.1764 35.0164 12.2296 34.8826 12.2296Z" fill="#CCCCCC"/>
<path d="M55.1811 12.2296H47.9947C47.8609 12.2296 47.7326 12.1764 47.6381 12.0819C47.5435 11.9873 47.4904 11.859 47.4904 11.7253C47.4904 11.5915 47.5435 11.4632 47.6381 11.3687C47.7326 11.2741 47.8609 11.2209 47.9947 11.2209H55.1811C55.3148 11.2209 55.4431 11.2741 55.5377 11.3687C55.6323 11.4632 55.6854 11.5915 55.6854 11.7253C55.6854 11.859 55.6323 11.9873 55.5377 12.0819C55.4431 12.1764 55.3148 12.2296 55.1811 12.2296Z" fill="#CCCCCC"/>
<path d="M74.2188 12.2296H67.0324C66.8986 12.2296 66.7704 12.1764 66.6758 12.0819C66.5812 11.9873 66.5281 11.859 66.5281 11.7253C66.5281 11.5915 66.5812 11.4632 66.6758 11.3687C66.7704 11.2741 66.8986 11.2209 67.0324 11.2209H74.2188C74.3525 11.2209 74.4808 11.2741 74.5754 11.3687C74.67 11.4632 74.7231 11.5915 74.7231 11.7253C74.7231 11.859 74.67 11.9873 74.5754 12.0819C74.4808 12.1764 74.3525 12.2296 74.2188 12.2296Z" fill="#CCCCCC"/>
<path d="M91.9957 12.2296H84.8092C84.6755 12.2296 84.5472 12.1764 84.4526 12.0819C84.3581 11.9873 84.3049 11.859 84.3049 11.7253C84.3049 11.5915 84.3581 11.4632 84.4526 11.3687C84.5472 11.2741 84.6755 11.2209 84.8092 11.2209H91.9957C92.1294 11.2209 92.2577 11.2741 92.3523 11.3687C92.4468 11.4632 92.5 11.5915 92.5 11.7253C92.5 11.859 92.4468 11.9873 92.3523 12.0819C92.2577 12.1764 92.1294 12.2296 91.9957 12.2296Z" fill="#CCCCCC"/>
<path d="M18.7867 49.1565C18.6023 49.1384 18.424 49.0801 18.2645 48.9857C18.105 48.8913 17.9682 48.763 17.8636 48.61C17.759 48.457 17.6893 48.2829 17.6592 48.1C17.6292 47.9171 17.6397 47.7299 17.6899 47.5514L14.4581 44.5431L16.1668 44.1096L19.3447 46.6871C19.6389 46.7913 19.8846 46.9997 20.0353 47.273C20.186 47.5462 20.2313 47.8652 20.1625 48.1696C20.0937 48.474 19.9157 48.7426 19.6621 48.9245C19.4086 49.1063 19.0971 49.1889 18.7867 49.1565Z" fill="#FFB8B8"/>
<path d="M23.2492 71.3916H24.7949L25.5301 65.4297H23.2489L23.2492 71.3916Z" fill="#FFB8B8"/>
<path d="M27.7759 72.8267L22.918 72.8269L22.9179 70.95L25.8989 70.9498C26.3967 70.9498 26.8741 71.1475 27.2261 71.4995C27.5781 71.8515 27.7759 72.3289 27.7759 72.8267Z" fill="#082777"/>
<path d="M12.6512 70.2756L14.145 70.6733L16.3893 65.1012L14.1849 64.5144L12.6512 70.2756Z" fill="#FFB8B8"/>
<path d="M16.6565 72.8271L11.9621 71.5776L12.4449 69.7639L15.3255 70.5306C15.8066 70.6587 16.217 70.9726 16.4666 71.4032C16.7162 71.8339 16.7845 72.3461 16.6565 72.8271Z" fill="#082777"/>
<path d="M25.2106 70.263H22.852C22.703 70.2635 22.5593 70.2082 22.449 70.1081C22.3387 70.0079 22.2699 69.8701 22.2562 69.7217L20.8244 54.8532C20.8139 54.7442 20.7658 54.6421 20.6884 54.5646C20.611 54.4871 20.509 54.4389 20.4 54.4282C20.2909 54.4176 20.1816 54.4451 20.0906 54.5062C19.9996 54.5673 19.9327 54.6581 19.9014 54.7631L15.7442 68.6567C15.7002 68.8044 15.6009 68.9294 15.467 69.0056C15.3331 69.0819 15.175 69.1035 15.0255 69.066L12.8314 68.5173C12.7548 68.4982 12.6828 68.4641 12.6194 68.417C12.5561 68.3699 12.5026 68.3108 12.4623 68.243C12.4219 68.1751 12.3953 68.1 12.384 68.0219C12.3728 67.9438 12.3771 67.8642 12.3968 67.7877C12.4326 67.6477 15.9787 53.7896 16.0097 53.6471C16.8131 47.7255 17.7744 46.1387 18.2908 45.2864C18.3335 45.2158 18.3728 45.1509 18.4082 45.0896C18.4524 45.0129 18.7249 44.2519 18.8978 43.7577C18.9203 43.6773 18.9591 43.6024 19.012 43.5378C19.0648 43.4732 19.1305 43.4202 19.2048 43.3823C21.3747 42.2726 23.9135 43.0407 24.6399 43.3026C24.7603 43.345 24.8638 43.4253 24.9347 43.5315C27.1139 46.8185 26.0444 65.9091 25.8079 69.7028C25.7981 69.8545 25.7309 69.9969 25.6199 70.1009C25.509 70.2049 25.3627 70.2629 25.2106 70.263Z" fill="#082777"/>
<path d="M19.1239 32.6016C20.8341 32.6016 22.2205 31.2152 22.2205 29.505C22.2205 27.7948 20.8341 26.4084 19.1239 26.4084C17.4137 26.4084 16.0273 27.7948 16.0273 29.505C16.0273 31.2152 17.4137 32.6016 19.1239 32.6016Z" fill="#FFB8B8"/>
<path d="M18.7958 44.3587L18.7736 44.3372C18.7318 44.2968 14.606 40.2548 15.14 36.5173C15.3683 34.9187 16.6618 33.8973 18.8804 33.5632C19.6955 33.4422 20.5269 33.6194 21.2217 34.0623C21.9166 34.5052 22.4283 35.184 22.6627 35.974L24.8564 43.4736L18.7958 44.3587Z" fill="#CCCCCC"/>
<path d="M16.6842 47.2337L13.7443 44.3123C13.5432 44.1114 13.3973 43.8622 13.3205 43.5886C13.2436 43.315 13.2385 43.0262 13.3056 42.75L14.7288 36.9607C14.7714 36.7872 14.8492 36.6243 14.9573 36.4821C15.0654 36.3399 15.2016 36.2214 15.3574 36.134C15.5131 36.0465 15.6852 35.9919 15.8629 35.9737C16.0406 35.9554 16.2202 35.9738 16.3905 36.0277C16.7151 36.1323 16.9862 36.3592 17.1465 36.6603C17.3067 36.9614 17.3435 37.313 17.2489 37.6407L15.7506 42.7338L18.1736 45.3356L16.6842 47.2337Z" fill="#CCCCCC"/>
<path d="M32.4528 37.2638C32.3751 37.432 32.2614 37.5812 32.1198 37.7008C31.9782 37.8203 31.8121 37.9074 31.6332 37.9558C31.4543 38.0043 31.2669 38.0129 31.0843 37.981C30.9017 37.9492 30.7283 37.8778 30.5763 37.7717L26.6516 39.8059L26.8251 38.0779L30.3044 35.9246C30.4996 35.6811 30.7772 35.5176 31.0848 35.4652C31.3924 35.4127 31.7086 35.4749 31.9734 35.64C32.2382 35.805 32.4333 36.0615 32.5217 36.3608C32.61 36.6601 32.5855 36.9813 32.4528 37.2638Z" fill="#FFB8B8"/>
<path d="M30.1477 38.5499L26.3217 40.2032C26.0671 40.3124 25.7886 40.3542 25.5131 40.3247C25.2376 40.2951 24.9744 40.1952 24.7487 40.0345L19.8835 36.5486C19.7383 36.4445 19.616 36.3118 19.5241 36.1586C19.4323 36.0053 19.3729 35.8349 19.3496 35.6578C19.3262 35.4807 19.3395 35.3007 19.3885 35.1289C19.4376 34.9571 19.5214 34.7973 19.6347 34.6592C19.8524 34.3966 20.1638 34.2292 20.5029 34.1923C20.842 34.1554 21.1821 34.2519 21.4513 34.4615L25.623 37.7448L28.9388 36.4619L30.1477 38.5499Z" fill="#CCCCCC"/>
<path d="M19.6373 30.4974C20.0193 30.0187 20.733 29.993 21.2578 29.6772C21.9451 29.2637 22.2293 28.3395 22.0078 27.5685C21.7863 26.7975 21.1331 26.1966 20.3841 25.9093C19.6352 25.6219 18.8019 25.6183 18.0119 25.7573C16.8355 25.9641 15.6774 26.5131 14.96 27.468C14.2425 28.4229 14.06 29.8213 14.7101 30.8232C15.009 31.2837 15.4703 31.6638 15.5896 32.1996C15.7462 32.9031 15.2528 33.5815 14.7242 34.0714C14.1219 34.6294 13.431 35.0968 12.9034 35.7259C12.3758 36.3549 12.0239 37.2144 12.2647 37.9993C12.4664 38.657 13.0534 39.1415 13.6971 39.3842C14.3408 39.6268 15.0418 39.6619 15.7296 39.6753C16.3975 39.6884 17.1068 39.6721 17.6694 39.312C18.2717 38.9265 18.5933 38.1952 18.6171 37.4805C18.6408 36.7658 18.402 36.0656 18.0819 35.4261C17.8911 35.045 17.6693 34.6757 17.5425 34.2687C17.4158 33.8618 17.3938 33.4 17.5968 33.0252C17.8102 32.6313 18.242 32.3937 18.6816 32.3073C18.7044 32.3028 18.7286 32.2988 18.7539 32.2953C18.879 32.279 18.9995 32.2376 19.1081 32.1735C19.2167 32.1094 19.3112 32.0239 19.3858 31.9222C19.4605 31.8205 19.5137 31.7048 19.5423 31.5819C19.571 31.4591 19.5744 31.3317 19.5524 31.2075C19.5023 30.9283 19.5066 30.6611 19.6373 30.4974Z" fill="#082777"/>
<path d="M60.9242 71.5237H59.3785L58.6432 65.5618L60.9244 65.5619L60.9242 71.5237Z" fill="#A0616A"/>
<path d="M58.2745 71.082H61.2554V72.9589H56.3976C56.3976 72.7125 56.4461 72.4684 56.5405 72.2407C56.6348 72.013 56.773 71.8061 56.9473 71.6318C57.1216 71.4575 57.3285 71.3192 57.5562 71.2249C57.7839 71.1306 58.028 71.082 58.2745 71.082Z" fill="#082777"/>
<path d="M72.1394 69.7729L70.7335 70.4151L67.5874 65.2977L69.6625 64.3499L72.1394 69.7729Z" fill="#A0616A"/>
<path d="M69.5457 70.4719L72.2572 69.2334L73.037 70.9407L68.6183 72.9589C68.5159 72.7348 68.4586 72.4926 68.4498 72.2463C68.441 71.9999 68.4808 71.7543 68.5669 71.5234C68.6531 71.2924 68.7838 71.0807 68.9518 70.9003C69.1197 70.7199 69.3215 70.5743 69.5457 70.4719Z" fill="#082777"/>
<path d="M67.6382 51.4215C67.7863 51.3101 67.9081 51.1675 67.9952 51.0039C68.0822 50.8402 68.1323 50.6595 68.1419 50.4744C68.1516 50.2893 68.1205 50.1044 68.0509 49.9326C67.9813 49.7608 67.8749 49.6064 67.7392 49.4801L69.5562 45.3574L67.2479 45.7486L65.8763 49.6036C65.6794 49.8457 65.5781 50.1516 65.5917 50.4634C65.6052 50.7751 65.7326 51.0711 65.9498 51.2952C66.167 51.5192 66.4588 51.6559 66.77 51.6792C67.0812 51.7025 67.3901 51.6108 67.6382 51.4215Z" fill="#A0616A"/>
<path d="M60.8257 69.9517H59.3491C59.2058 69.9512 59.0681 69.8968 58.9632 69.7993C58.8583 69.7018 58.7941 69.5683 58.7832 69.4255L57.9779 47.9219C57.9719 47.8395 57.984 47.7568 58.0133 47.6796C58.0426 47.6023 58.0885 47.5324 58.1476 47.4747C58.2067 47.417 58.2778 47.3729 58.3557 47.3455C58.4337 47.3182 58.5167 47.3081 58.5989 47.3162L67.1387 48.2231C67.2771 48.2366 67.4058 48.3005 67.5002 48.4026C67.5946 48.5047 67.6482 48.638 67.6509 48.777L67.8299 58.2625C67.8308 58.314 67.8408 58.3649 67.8593 58.4129L71.3624 67.4972C71.3895 67.5673 71.4023 67.6422 71.4002 67.7174C71.398 67.7926 71.381 67.8666 71.35 67.9351C71.319 68.0036 71.2746 68.0653 71.2196 68.1166C71.1645 68.1678 71.0998 68.2076 71.0292 68.2336L69.5328 68.7849C69.4029 68.8327 69.2599 68.8314 69.1308 68.7812C69.0018 68.7309 68.8956 68.6352 68.8322 68.512L64.5288 60.1444C64.5054 60.0989 64.4883 60.0505 64.4779 60.0003L63.7427 56.4584C63.7214 56.3557 63.6642 56.2639 63.5814 56.1996C63.4986 56.1352 63.3955 56.1025 63.2907 56.1072C63.186 56.112 63.0863 56.1539 63.0096 56.2255C62.9329 56.297 62.8843 56.3936 62.8723 56.4978L61.3893 69.4489C61.3735 69.5873 61.3073 69.715 61.2034 69.8078C61.0994 69.9005 60.965 69.9518 60.8257 69.9517Z" fill="#082777"/>
<path d="M61.5609 31.1082C63.2711 31.1082 64.6575 29.7218 64.6575 28.0116C64.6575 26.3014 63.2711 24.915 61.5609 24.915C59.8507 24.915 58.4644 26.3014 58.4644 28.0116C58.4644 29.7218 59.8507 31.1082 61.5609 31.1082Z" fill="#A0616A"/>
<path d="M63.6846 49.8881C61.5847 49.8649 59.5348 49.244 57.775 48.098L57.7449 48.0772L57.748 48.0407L58.9325 34.2458C58.9733 33.7778 59.1822 33.3404 59.5206 33.0145C59.8589 32.6886 60.3039 32.4962 60.7731 32.4729C62.3082 32.4024 64.3702 32.4914 65.474 33.3134C67.1421 34.5559 67.9461 36.4268 67.6798 38.4464C67.1275 42.6345 67.7531 48.2841 67.8263 48.9145L67.8316 48.9599L67.79 48.979C66.504 49.5773 65.1029 49.8875 63.6846 49.8881Z" fill="#4B93E7"/>
<path d="M67.8119 48.9378C67.7246 48.9377 67.6383 48.9194 67.5585 48.8842C67.4786 48.849 67.4069 48.7976 67.3479 48.7333L66.6705 47.9943C66.5973 47.914 66.546 47.8162 66.5215 47.7104C66.4971 47.6045 66.5002 47.4941 66.5307 47.3898L68.0752 42.1622L65.7252 37.227C65.6154 36.996 65.5885 36.7343 65.649 36.4858C65.7024 36.2676 65.8206 36.0708 65.988 35.9212C66.1555 35.7716 66.3644 35.6763 66.5871 35.6479C66.8099 35.6194 67.036 35.6591 67.2357 35.7618C67.4354 35.8645 67.5993 36.0253 67.7058 36.223L70.8949 41.3975C71.0244 41.6074 71.1004 41.8459 71.1163 42.0921C71.1321 42.3383 71.0872 42.5846 70.9856 42.8093L68.3872 48.5667C68.3444 48.6618 68.2786 48.7449 68.1957 48.8082C68.1128 48.8716 68.0154 48.9134 67.9123 48.9298C67.8791 48.9351 67.8456 48.9378 67.8119 48.9378Z" fill="#4B93E7"/>
<path d="M45.9852 38.952C46.1339 39.0626 46.305 39.1393 46.4866 39.1766C46.6681 39.2139 46.8557 39.211 47.036 39.1679C47.2162 39.1249 47.3849 39.0429 47.5301 38.9277C47.6752 38.8124 47.7934 38.6668 47.8761 38.5009L52.3441 39.0804L51.3173 36.9764L47.2319 36.7487C46.9441 36.6281 46.622 36.6173 46.3268 36.7183C46.0315 36.8192 45.7835 37.025 45.6299 37.2966C45.4762 37.5682 45.4275 37.8867 45.493 38.1918C45.5585 38.4969 45.7336 38.7674 45.9852 38.952Z" fill="#A0616A"/>
<path d="M55.8332 40.1011C55.7554 40.1011 55.6777 40.0957 55.6006 40.0851L48.5717 39.1102C48.4568 39.0944 48.3477 39.0503 48.2541 38.9818C48.1606 38.9133 48.0855 38.8226 48.0358 38.7179C48.0197 38.6842 48.0063 38.6492 47.9957 38.6134C47.9685 38.5203 47.9609 38.4226 47.9734 38.3264C47.9858 38.2302 48.0181 38.1377 48.0682 38.0546L48.6498 37.0903C48.7124 36.9872 48.8004 36.9019 48.9054 36.8427C49.0104 36.7834 49.1289 36.752 49.2494 36.7516H49.2504L55.3772 36.7587L59.9531 32.659C60.166 32.4687 60.4378 32.3574 60.7231 32.3439C60.9735 32.3323 61.2215 32.3968 61.4345 32.5291C61.6475 32.6613 61.8154 32.855 61.916 33.0846C62.0167 33.3142 62.0454 33.5689 61.9984 33.8151C61.9513 34.0614 61.8308 34.2876 61.6526 34.4639L57.0867 39.5421C56.9287 39.718 56.7354 39.8587 56.5194 39.955C56.3035 40.0513 56.0697 40.1011 55.8332 40.1011Z" fill="#4B93E7"/>
<path d="M61.913 30.7664C62.196 30.1115 62.4354 29.2393 61.8926 28.7762C61.5778 28.5077 61.1243 28.5071 60.7119 28.4737C59.5498 28.3795 58.3535 27.8448 57.7855 26.8267C57.2175 25.8085 57.5347 24.2945 58.6063 23.8351C59.3286 23.5255 60.1567 23.7364 60.9128 23.9508L63.183 24.5945C63.8575 24.7858 64.5657 24.9968 65.0513 25.5025C65.8257 26.309 65.7679 27.6725 65.1527 28.6063C64.5376 29.54 63.6113 30.5139 62.5508 30.8684L61.913 30.7664Z" fill="#082777"/>
<path d="M93.2322 72.9999H0.150065C0.130315 73 0.110748 72.9962 0.0924845 72.9886C0.074221 72.9811 0.0576217 72.9701 0.0436357 72.9561C0.0296498 72.9422 0.0185528 72.9256 0.0109813 72.9074C0.00340993 72.8891 -0.000488281 72.8696 -0.000488281 72.8498C-0.000488281 72.8301 0.00340993 72.8105 0.0109813 72.7923C0.0185528 72.774 0.0296498 72.7575 0.0436357 72.7435C0.0576217 72.7296 0.074221 72.7185 0.0924845 72.711C0.110748 72.7035 0.130315 72.6997 0.150065 72.6997H93.2322C93.252 72.6997 93.2715 72.7035 93.2898 72.711C93.3081 72.7185 93.3247 72.7296 93.3386 72.7435C93.3526 72.7575 93.3637 72.774 93.3713 72.7923C93.3789 72.8105 93.3828 72.8301 93.3828 72.8498C93.3828 72.8696 93.3789 72.8891 93.3713 72.9074C93.3637 72.9256 93.3526 72.9422 93.3386 72.9561C93.3247 72.9701 93.3081 72.9811 93.2898 72.9886C93.2715 72.9962 93.252 73 93.2322 72.9999Z" fill="#3F3D56"/>
</g>
<defs>
<clipPath id="clip0_4_2291">
<rect width="103.595" height="73" fill="white"/>
</clipPath>
</defs>
</svg>
